  0
SECTION
  2
HEADER
  9
$ACADVER
  1
AC1027
  9
$ACADMAINTVER
 70
105
  9
$DWGCODEPAGE
  3
ANSI_1252
  9
$LASTSAVEDBY
  1
ezdxf
  9
$REQUIREDVERSIONS
160
0
  9
$INSBASE
 10
0.0
 20
0.0
 30
0.0
  9
$EXTMIN
 10
1e+20
 20
1e+20
 30
1e+20
  9
$EXTMAX
 10
-1e+20
 20
-1e+20
 30
-1e+20
  9
$LIMMIN
 10
0.0
 20
0.0
  9
$LIMMAX
 10
420.0
 20
297.0
  9
$ORTHOMODE
 70
0
  9
$REGENMODE
 70
1
  9
$FILLMODE
 70
1
  9
$QTEXTMODE
 70
0
  9
$MIRRTEXT
 70
1
  9
$LTSCALE
 40
1.0
  9
$ATTMODE
 70
1
  9
$TEXTSIZE
 40
2.5
  9
$TRACEWID
 40
1.0
  9
$TEXTSTYLE
  7
OpenSans
  9
$CLAYER
  8
0
  9
$CELTYPE
  6
ByLayer
  9
$CECOLOR
 62
256
  9
$CELTSCALE
 40
1.0
  9
$DISPSILH
 70
0
  9
$DIMSCALE
 40
1.0
  9
$DIMASZ
 40
0.175
  9
$DIMEXO
 40
0.125
  9
$DIMDLI
 40
3.75
  9
$DIMRND
 40
0.0
  9
$DIMDLE
 40
0.0
  9
$DIMEXE
 40
0.375
  9
$DIMTP
 40
0.0
  9
$DIMTM
 40
0.0
  9
$DIMTXT
 40
0.25
  9
$DIMCEN
 40
2.5
  9
$DIMTSZ
 40
0.0
  9
$DIMTOL
 70
0
  9
$DIMLIM
 70
0
  9
$DIMTIH
 70
0
  9
$DIMTOH
 70
0
  9
$DIMSE1
 70
0
  9
$DIMSE2
 70
0
  9
$DIMTAD
 70
1
  9
$DIMZIN
 70
12
  9
$DIMBLK
  1
ARCHTICK
  9
$DIMASO
 70
1
  9
$DIMSHO
 70
1
  9
$DIMPOST
  1

  9
$DIMAPOST
  1

  9
$DIMALT
 70
0
  9
$DIMALTD
 70
3
  9
$DIMALTF
 40
0.03937007874
  9
$DIMLFAC
 40
100.0
  9
$DIMTOFL
 70
1
  9
$DIMTVP
 40
0.0
  9
$DIMTIX
 70
0
  9
$DIMSOXD
 70
0
  9
$DIMSAH
 70
0
  9
$DIMBLK1
  1

  9
$DIMBLK2
  1

  9
$DIMSTYLE
  2
EZDXF
  9
$DIMCLRD
 70
0
  9
$DIMCLRE
 70
0
  9
$DIMCLRT
 70
0
  9
$DIMTFAC
 40
0.5
  9
$DIMGAP
 40
0.1
  9
$DIMJUST
 70
0
  9
$DIMSD1
 70
0
  9
$DIMSD2
 70
0
  9
$DIMTOLJ
 70
0
  9
$DIMTZIN
 70
8
  9
$DIMALTZ
 70
0
  9
$DIMALTTZ
 70
0
  9
$DIMUPT
 70
1
  9
$DIMDEC
 70
2
  9
$DIMTDEC
 70
2
  9
$DIMALTU
 70
2
  9
$DIMALTTD
 70
3
  9
$DIMTXSTY
  7
OpenSansCondensed-Light
  9
$DIMAUNIT
 70
0
  9
$DIMADEC
 70
2
  9
$DIMALTRND
 40
0.0
  9
$DIMAZIN
 70
3
  9
$DIMDSEP
 70
46
  9
$DIMATFIT
 70
3
  9
$DIMFRAC
 70
0
  9
$DIMLDRBLK
  1

  9
$DIMLUNIT
 70
2
  9
$DIMLWD
 70
-2
  9
$DIMLWE
 70
-2
  9
$DIMTMOVE
 70
2
  9
$DIMFXL
 40
1.0
  9
$DIMFXLON
 70
0
  9
$DIMJOGANG
 40
0.785398163397
  9
$DIMTFILL
 70
0
  9
$DIMTFILLCLR
 70
0
  9
$DIMARCSYM
 70
0
  9
$DIMLTYPE
  6

  9
$DIMLTEX1
  6

  9
$DIMLTEX2
  6

  9
$DIMTXTDIRECTION
 70
0
  9
$LUNITS
 70
2
  9
$LUPREC
 70
4
  9
$SKETCHINC
 40
1.0
  9
$FILLETRAD
 40
10.0
  9
$AUNITS
 70
0
  9
$AUPREC
 70
2
  9
$MENU
  1
.
  9
$ELEVATION
 40
0.0
  9
$PELEVATION
 40
0.0
  9
$THICKNESS
 40
0.0
  9
$LIMCHECK
 70
0
  9
$CHAMFERA
 40
0.0
  9
$CHAMFERB
 40
0.0
  9
$CHAMFERC
 40
0.0
  9
$CHAMFERD
 40
0.0
  9
$SKPOLY
 70
0
  9
$TDCREATE
 40
2461280.763703704
  9
$TDUCREATE
 40
2458532.153996898
  9
$TDUPDATE
 40
2461280.763715278
  9
$TDUUPDATE
 40
2458532.1544311
  9
$TDINDWG
 40
0.0
  9
$TDUSRTIMER
 40
0.0
  9
$USRTIMER
 70
1
  9
$ANGBASE
 50
0.0
  9
$ANGDIR
 70
0
  9
$PDMODE
 70
0
  9
$PDSIZE
 40
0.0
  9
$PLINEWID
 40
0.0
  9
$SPLFRAME
 70
0
  9
$SPLINETYPE
 70
6
  9
$SPLINESEGS
 70
8
  9
$HANDSEED
  5
3E6
  9
$SURFTAB1
 70
6
  9
$SURFTAB2
 70
6
  9
$SURFTYPE
 70
6
  9
$SURFU
 70
6
  9
$SURFV
 70
6
  9
$UCSBASE
  2

  9
$UCSNAME
  2

  9
$UCSORG
 10
0.0
 20
0.0
 30
0.0
  9
$UCSXDIR
 10
1.0
 20
0.0
 30
0.0
  9
$UCSYDIR
 10
0.0
 20
1.0
 30
0.0
  9
$UCSORTHOREF
  2

  9
$UCSORTHOVIEW
 70
0
  9
$UCSORGTOP
 10
0.0
 20
0.0
 30
0.0
  9
$UCSORGBOTTOM
 10
0.0
 20
0.0
 30
0.0
  9
$UCSORGLEFT
 10
0.0
 20
0.0
 30
0.0
  9
$UCSORGRIGHT
 10
0.0
 20
0.0
 30
0.0
  9
$UCSORGFRONT
 10
0.0
 20
0.0
 30
0.0
  9
$UCSORGBACK
 10
0.0
 20
0.0
 30
0.0
  9
$PUCSBASE
  2

  9
$PUCSNAME
  2

  9
$PUCSORG
 10
0.0
 20
0.0
 30
0.0
  9
$PUCSXDIR
 10
1.0
 20
0.0
 30
0.0
  9
$PUCSYDIR
 10
0.0
 20
1.0
 30
0.0
  9
$PUCSORTHOREF
  2

  9
$PUCSORTHOVIEW
 70
0
  9
$PUCSORGTOP
 10
0.0
 20
0.0
 30
0.0
  9
$PUCSORGBOTTOM
 10
0.0
 20
0.0
 30
0.0
  9
$PUCSORGLEFT
 10
0.0
 20
0.0
 30
0.0
  9
$PUCSORGRIGHT
 10
0.0
 20
0.0
 30
0.0
  9
$PUCSORGFRONT
 10
0.0
 20
0.0
 30
0.0
  9
$PUCSORGBACK
 10
0.0
 20
0.0
 30
0.0
  9
$USERI1
 70
0
  9
$USERI2
 70
0
  9
$USERI3
 70
0
  9
$USERI4
 70
0
  9
$USERI5
 70
0
  9
$USERR1
 40
0.0
  9
$USERR2
 40
0.0
  9
$USERR3
 40
0.0
  9
$USERR4
 40
0.0
  9
$USERR5
 40
0.0
  9
$WORLDVIEW
 70
1
  9
$SHADEDGE
 70
3
  9
$SHADEDIF
 70
70
  9
$TILEMODE
 70
1
  9
$MAXACTVP
 70
64
  9
$PINSBASE
 10
0.0
 20
0.0
 30
0.0
  9
$PLIMCHECK
 70
0
  9
$PEXTMIN
 10
1e+20
 20
1e+20
 30
1e+20
  9
$PEXTMAX
 10
-1e+20
 20
-1e+20
 30
-1e+20
  9
$PLIMMIN
 10
0.0
 20
0.0
  9
$PLIMMAX
 10
420.0
 20
297.0
  9
$UNITMODE
 70
0
  9
$VISRETAIN
 70
1
  9
$PLINEGEN
 70
0
  9
$PSLTSCALE
 70
1
  9
$TREEDEPTH
 70
3020
  9
$CMLSTYLE
  2
Standard
  9
$CMLJUST
 70
0
  9
$CMLSCALE
 40
20.0
  9
$PROXYGRAPHICS
 70
1
  9
$MEASUREMENT
 70
1
  9
$CELWEIGHT
370
-1
  9
$ENDCAPS
280
0
  9
$JOINSTYLE
280
0
  9
$LWDISPLAY
290
0
  9
$INSUNITS
 70
6
  9
$HYPERLINKBASE
  1

  9
$STYLESHEET
  1

  9
$XEDIT
290
1
  9
$CEPSNTYPE
380
0
  9
$PSTYLEMODE
290
1
  9
$FINGERPRINTGUID
  2
{AFDE7936-4DA1-44B0-9FF0-1238BA36D62F}
  9
$VERSIONGUID
  2
{29D92DB9-17BE-4102-9B6D-491225724099}
  9
$EXTNAMES
290
1
  9
$PSVPSCALE
 40
0.0
  9
$OLESTARTUP
290
0
  9
$SORTENTS
280
127
  9
$INDEXCTL
280
0
  9
$HIDETEXT
280
1
  9
$XCLIPFRAME
280
1
  9
$HALOGAP
280
0
  9
$OBSCOLOR
 70
257
  9
$OBSLTYPE
280
0
  9
$INTERSECTIONDISPLAY
280
0
  9
$INTERSECTIONCOLOR
 70
257
  9
$DIMASSOC
280
2
  9
$PROJECTNAME
  1

  9
$CAMERADISPLAY
290
0
  9
$LENSLENGTH
 40
50.0
  9
$CAMERAHEIGHT
 40
0.0
  9
$STEPSPERSEC
 40
24.0
  9
$STEPSIZE
 40
100.0
  9
$3DDWFPREC
 40
2.0
  9
$PSOLWIDTH
 40
0.005
  9
$PSOLHEIGHT
 40
0.08
  9
$LOFTANG1
 40
1.570796326795
  9
$LOFTANG2
 40
1.570796326795
  9
$LOFTMAG1
 40
0.0
  9
$LOFTMAG2
 40
0.0
  9
$LOFTPARAM
 70
7
  9
$LOFTNORMALS
280
1
  9
$LATITUDE
 40
37.795
  9
$LONGITUDE
 40
-122.394
  9
$NORTHDIRECTION
 40
0.0
  9
$TIMEZONE
 70
-8000
  9
$LIGHTGLYPHDISPLAY
280
1
  9
$TILEMODELIGHTSYNCH
280
1
  9
$CMATERIAL
347
20
  9
$SOLIDHIST
280
0
  9
$SHOWHIST
280
1
  9
$DWFFRAME
280
2
  9
$DGNFRAME
280
2
  9
$REALWORLDSCALE
290
1
  9
$INTERFERECOLOR
 62
256
  9
$CSHADOW
280
0
  9
$SHADOWPLANELOCATION
 40
0.0
  0
ENDSEC
  0
SECTION
  2
CLASSES
  0
CLASS
  1
ACDBDICTIONARYWDFLT
  2
AcDbDictionaryWithDefault
  3
ObjectDBX Classes
 90
0
 91
0
280
0
281
0
  0
CLASS
  1
SUN
  2
AcDbSun
  3
SCENEOE
 90
1153
 91
0
280
0
281
0
  0
CLASS
  1
VISUALSTYLE
  2
AcDbVisualStyle
  3
ObjectDBX Classes
 90
4095
 91
0
280
0
281
0
  0
CLASS
  1
MATERIAL
  2
AcDbMaterial
  3
ObjectDBX Classes
 90
1153
 91
0
280
0
281
0
  0
CLASS
  1
SCALE
  2
AcDbScale
  3
ObjectDBX Classes
 90
1153
 91
0
280
0
281
0
  0
CLASS
  1
TABLESTYLE
  2
AcDbTableStyle
  3
ObjectDBX Classes
 90
4095
 91
0
280
0
281
0
  0
CLASS
  1
MLEADERSTYLE
  2
AcDbMLeaderStyle
  3
ACDB_MLEADERSTYLE_CLASS
 90
4095
 91
0
280
0
281
0
  0
CLASS
  1
DICTIONARYVAR
  2
AcDbDictionaryVar
  3
ObjectDBX Classes
 90
0
 91
0
280
0
281
0
  0
CLASS
  1
CELLSTYLEMAP
  2
AcDbCellStyleMap
  3
ObjectDBX Classes
 90
1152
 91
0
280
0
281
0
  0
CLASS
  1
MENTALRAYRENDERSETTINGS
  2
AcDbMentalRayRenderSettings
  3
SCENEOE
 90
1024
 91
0
280
0
281
0
  0
CLASS
  1
ACDBDETAILVIEWSTYLE
  2
AcDbDetailViewStyle
  3
ObjectDBX Classes
 90
1025
 91
0
280
0
281
0
  0
CLASS
  1
ACDBSECTIONVIEWSTYLE
  2
AcDbSectionViewStyle
  3
ObjectDBX Classes
 90
1025
 91
0
280
0
281
0
  0
CLASS
  1
RASTERVARIABLES
  2
AcDbRasterVariables
  3
ISM
 90
0
 91
0
280
0
281
0
  0
CLASS
  1
LAYOUT
  2
AcDbLayout
  3
ObjectDBX Classes
 90
0
 91
0
280
0
281
0
  0
CLASS
  1
ACDBPLACEHOLDER
  2
AcDbPlaceHolder
  3
ObjectDBX Classes
 90
0
 91
0
280
0
281
0
  0
ENDSEC
  0
SECTION
  2
TABLES
  0
TABLE
  2
VPORT
  5
8
330
0
100
AcDbSymbolTable
 70
1
  0
VPORT
  5
23
330
8
100
AcDbSymbolTableRecord
100
AcDbViewportTableRecord
  2
*Active
 70
0
 10
0.0
 20
0.0
 11
1.0
 21
1.0
 12
0.0
 22
0.0
 13
0.0
 23
0.0
 14
0.5
 24
0.5
 15
0.5
 25
0.5
 16
0.0
 26
0.0
 36
1.0
 17
0.0
 27
0.0
 37
0.0
 40
1000.0
 41
1.34
 42
50.0
 43
0.0
 44
0.0
 50
0.0
 51
0.0
 71
0
 72
1000
 73
1
 74
3
 75
0
 76
0
 77
0
 78
0
281
0
 65
0
146
0.0
  0
ENDTAB
  0
TABLE
  2
LTYPE
  5
2
330
0
100
AcDbSymbolTable
 70
21
  0
LTYPE
  5
24
330
2
100
AcDbSymbolTableRecord
100
AcDbLinetypeTableRecord
  2
ByBlock
 70
0
  3

 72
65
 73
0
 40
0.0
  0
LTYPE
  5
25
330
2
100
AcDbSymbolTableRecord
100
AcDbLinetypeTableRecord
  2
ByLayer
 70
0
  3

 72
65
 73
0
 40
0.0
  0
LTYPE
  5
26
330
2
100
AcDbSymbolTableRecord
100
AcDbLinetypeTableRecord
  2
Continuous
 70
0
  3

 72
65
 73
0
 40
0.0
  0
LTYPE
  5
2F
330
2
100
AcDbSymbolTableRecord
100
AcDbLinetypeTableRecord
  2
CENTER
 70
0
  3
Center ____ _ ____ _ ____ _ ____ _ ____ _ ____
 72
65
 73
4
 40
5.08
 49
3.175
 74
0
 49
-0.635
 74
0
 49
0.635
 74
0
 49
-0.635
 74
0
  0
LTYPE
  5
30
330
2
100
AcDbSymbolTableRecord
100
AcDbLinetypeTableRecord
  2
CENTERX2
 70
0
  3
Center (2x) ________  __  ________  __  ________
 72
65
 73
4
 40
8.89
 49
6.35
 74
0
 49
-0.635
 74
0
 49
1.27
 74
0
 49
-0.635
 74
0
  0
LTYPE
  5
31
330
2
100
AcDbSymbolTableRecord
100
AcDbLinetypeTableRecord
  2
CENTER2
 70
0
  3
Center (.5x) ____ _ ____ _ ____ _ ____ _ ____
 72
65
 73
4
 40
2.54
 49
1.587
 74
0
 49
-0.318
 74
0
 49
0.318
 74
0
 49
-0.318
 74
0
  0
LTYPE
  5
32
330
2
100
AcDbSymbolTableRecord
100
AcDbLinetypeTableRecord
  2
DASHED
 70
0
  3
Dashed __ __ __ __ __ __ __ __ __ __ __ __ __ _
 72
65
 73
2
 40
1.524
 49
1.27
 74
0
 49
-0.254
 74
0
  0
LTYPE
  5
33
330
2
100
AcDbSymbolTableRecord
100
AcDbLinetypeTableRecord
  2
DASHEDX2
 70
0
  3
Dashed (2x) ____  ____  ____  ____  ____  ____
 72
65
 73
2
 40
3.048
 49
2.54
 74
0
 49
-0.508
 74
0
  0
LTYPE
  5
34
330
2
100
AcDbSymbolTableRecord
100
AcDbLinetypeTableRecord
  2
DASHED2
 70
0
  3
Dashed (.5x) _ _ _ _ _ _ _ _ _ _ _ _ _ _
 72
65
 73
2
 40
0.762
 49
0.635
 74
0
 49
-0.127
 74
0
  0
LTYPE
  5
35
330
2
100
AcDbSymbolTableRecord
100
AcDbLinetypeTableRecord
  2
PHANTOM
 70
0
  3
Phantom ______  __  __  ______  __  __  ______
 72
65
 73
6
 40
6.35
 49
3.175
 74
0
 49
-0.635
 74
0
 49
0.635
 74
0
 49
-0.635
 74
0
 49
0.635
 74
0
 49
-0.635
 74
0
  0
LTYPE
  5
36
330
2
100
AcDbSymbolTableRecord
100
AcDbLinetypeTableRecord
  2
PHANTOMX2
 70
0
  3
Phantom (2x)____________    ____    ____    ____________
 72
65
 73
6
 40
10.795
 49
6.35
 74
0
 49
-0.635
 74
0
 49
1.27
 74
0
 49
-0.635
 74
0
 49
1.27
 74
0
 49
-0.635
 74
0
  0
LTYPE
  5
37
330
2
100
AcDbSymbolTableRecord
100
AcDbLinetypeTableRecord
  2
PHANTOM2
 70
0
  3
Phantom (.5x) ___ _ _ ___ _ _ ___ _ _ ___ _ _ ___
 72
65
 73
6
 40
3.175
 49
1.587
 74
0
 49
-0.318
 74
0
 49
0.318
 74
0
 49
-0.318
 74
0
 49
0.318
 74
0
 49
-0.318
 74
0
  0
LTYPE
  5
38
330
2
100
AcDbSymbolTableRecord
100
AcDbLinetypeTableRecord
  2
DASHDOT
 70
0
  3
Dash dot __ . __ . __ . __ . __ . __ . __ . __
 72
65
 73
4
 40
3.556
 49
2.54
 74
0
 49
-0.508
 74
0
 49
0.0
 74
0
 49
-0.508
 74
0
  0
LTYPE
  5
39
330
2
100
AcDbSymbolTableRecord
100
AcDbLinetypeTableRecord
  2
DASHDOTX2
 70
0
  3
Dash dot (2x) ____  .  ____  .  ____  .  ____
 72
65
 73
4
 40
6.096
 49
5.08
 74
0
 49
-0.508
 74
0
 49
0.0
 74
0
 49
-0.508
 74
0
  0
LTYPE
  5
3A
330
2
100
AcDbSymbolTableRecord
100
AcDbLinetypeTableRecord
  2
DASHDOT2
 70
0
  3
Dash dot (.5x) _ . _ . _ . _ . _ . _ . _ . _
 72
65
 73
4
 40
1.778
 49
1.27
 74
0
 49
-0.254
 74
0
 49
0.0
 74
0
 49
-0.254
 74
0
  0
LTYPE
  5
3B
330
2
100
AcDbSymbolTableRecord
100
AcDbLinetypeTableRecord
  2
DOT
 70
0
  3
Dot .  .  .  .  .  .  .  .  .  .  .  .  .  .  .  .
 72
65
 73
2
 40
0.508
 49
0.0
 74
0
 49
-0.508
 74
0
  0
LTYPE
  5
3C
330
2
100
AcDbSymbolTableRecord
100
AcDbLinetypeTableRecord
  2
DOTX2
 70
0
  3
Dot (2x) .    .    .    .    .    .    .    . 
 72
65
 73
2
 40
1.016
 49
0.0
 74
0
 49
-1.016
 74
0
  0
LTYPE
  5
3D
330
2
100
AcDbSymbolTableRecord
100
AcDbLinetypeTableRecord
  2
DOT2
 70
0
  3
Dot (.5) . . . . . . . . . . . . . . . . . . . 
 72
65
 73
2
 40
0.254
 49
0.0
 74
0
 49
-0.254
 74
0
  0
LTYPE
  5
3E
330
2
100
AcDbSymbolTableRecord
100
AcDbLinetypeTableRecord
  2
DIVIDE
 70
0
  3
Divide __ . . __ . . __ . . __ . . __ . . __
 72
65
 73
6
 40
4.064
 49
2.54
 74
0
 49
-0.508
 74
0
 49
0.0
 74
0
 49
-0.508
 74
0
 49
0.0
 74
0
 49
-0.508
 74
0
  0
LTYPE
  5
3F
330
2
100
AcDbSymbolTableRecord
100
AcDbLinetypeTableRecord
  2
DIVIDEX2
 70
0
  3
Divide (2x) ____  . .  ____  . .  ____  . .  ____
 72
65
 73
6
 40
6.604
 49
5.08
 74
0
 49
-0.508
 74
0
 49
0.0
 74
0
 49
-0.508
 74
0
 49
0.0
 74
0
 49
-0.508
 74
0
  0
LTYPE
  5
40
330
2
100
AcDbSymbolTableRecord
100
AcDbLinetypeTableRecord
  2
DIVIDE2
 70
0
  3
Divide(.5x) _ . _ . _ . _ . _ . _ . _ . _
 72
65
 73
6
 40
2.032
 49
1.27
 74
0
 49
-0.254
 74
0
 49
0.0
 74
0
 49
-0.254
 74
0
 49
0.0
 74
0
 49
-0.254
 74
0
  0
ENDTAB
  0
TABLE
  2
LAYER
  5
1
330
0
100
AcDbSymbolTable
 70
2
  0
LAYER
  5
27
330
1
100
AcDbSymbolTableRecord
100
AcDbLayerTableRecord
  2
0
 70
0
 62
7
  6
Continuous
370
-3
390
13
347
21
  0
LAYER
  5
28
330
1
100
AcDbSymbolTableRecord
100
AcDbLayerTableRecord
  2
Defpoints
 70
0
 62
7
  6
Continuous
290
0
370
-3
390
13
347
21
  0
ENDTAB
  0
TABLE
  2
STYLE
  5
5
330
0
100
AcDbSymbolTable
 70
26
  0
STYLE
  5
29
330
5
100
AcDbSymbolTableRecord
100
AcDbTextStyleTableRecord
  2
Standard
 70
0
 40
0.0
 41
1.0
 50
0.0
 71
0
 42
2.5
  3
txt
  4

  0
STYLE
  5
41
330
5
100
AcDbSymbolTableRecord
100
AcDbTextStyleTableRecord
  2
OpenSans-Light
 70
0
 40
0.0
 41
1.0
 50
0.0
 71
0
 42
2.5
  3
OpenSans-Light.ttf
  4

  0
STYLE
  5
42
330
5
100
AcDbSymbolTableRecord
100
AcDbTextStyleTableRecord
  2
OpenSans-Light-Italic
 70
0
 40
0.0
 41
1.0
 50
0.0
 71
0
 42
2.5
  3
OpenSans-LightItalic.ttf
  4

  0
STYLE
  5
43
330
5
100
AcDbSymbolTableRecord
100
AcDbTextStyleTableRecord
  2
OpenSans
 70
0
 40
0.0
 41
1.0
 50
0.0
 71
0
 42
2.5
  3
OpenSans-Regular.ttf
  4

  0
STYLE
  5
44
330
5
100
AcDbSymbolTableRecord
100
AcDbTextStyleTableRecord
  2
OpenSans-Italic
 70
0
 40
0.0
 41
1.0
 50
0.0
 71
0
 42
2.5
  3
OpenSans-Italic.ttf
  4

  0
STYLE
  5
45
330
5
100
AcDbSymbolTableRecord
100
AcDbTextStyleTableRecord
  2
OpenSans-SemiBold
 70
0
 40
0.0
 41
1.0
 50
0.0
 71
0
 42
2.5
  3
OpenSans-SemiBold.ttf
  4

  0
STYLE
  5
46
330
5
100
AcDbSymbolTableRecord
100
AcDbTextStyleTableRecord
  2
OpenSans-SemiBoldItalic
 70
0
 40
0.0
 41
1.0
 50
0.0
 71
0
 42
2.5
  3
OpenSans-SemiBoldItalic.ttf
  4

  0
STYLE
  5
47
330
5
100
AcDbSymbolTableRecord
100
AcDbTextStyleTableRecord
  2
OpenSans-Bold
 70
0
 40
0.0
 41
1.0
 50
0.0
 71
0
 42
2.5
  3
OpenSans-Bold.ttf
  4

  0
STYLE
  5
48
330
5
100
AcDbSymbolTableRecord
100
AcDbTextStyleTableRecord
  2
OpenSans-BoldItalic
 70
0
 40
0.0
 41
1.0
 50
0.0
 71
0
 42
2.5
  3
OpenSans-BoldItalic.ttf
  4

  0
STYLE
  5
49
330
5
100
AcDbSymbolTableRecord
100
AcDbTextStyleTableRecord
  2
OpenSans-ExtraBold
 70
0
 40
0.0
 41
1.0
 50
0.0
 71
0
 42
2.5
  3
OpenSans-ExtraBold.ttf
  4

  0
STYLE
  5
4A
330
5
100
AcDbSymbolTableRecord
100
AcDbTextStyleTableRecord
  2
OpenSans-ExtraBoldItalic
 70
0
 40
0.0
 41
1.0
 50
0.0
 71
0
 42
2.5
  3
OpenSans-ExtraBoldItalic.ttf
  4

  0
STYLE
  5
4B
330
5
100
AcDbSymbolTableRecord
100
AcDbTextStyleTableRecord
  2
OpenSansCondensed-Bold
 70
0
 40
0.0
 41
1.0
 50
0.0
 71
0
 42
2.5
  3
OpenSansCondensed-Bold.ttf
  4

  0
STYLE
  5
4C
330
5
100
AcDbSymbolTableRecord
100
AcDbTextStyleTableRecord
  2
OpenSansCondensed-Light
 70
0
 40
0.0
 41
1.0
 50
0.0
 71
0
 42
2.5
  3
OpenSansCondensed-Light.ttf
  4

  0
STYLE
  5
4D
330
5
100
AcDbSymbolTableRecord
100
AcDbTextStyleTableRecord
  2
OpenSansCondensed-Italic
 70
0
 40
0.0
 41
1.0
 50
0.0
 71
0
 42
2.5
  3
OpenSansCondensed-LightItalic.ttf
  4

  0
STYLE
  5
4E
330
5
100
AcDbSymbolTableRecord
100
AcDbTextStyleTableRecord
  2
LiberationSans
 70
0
 40
0.0
 41
1.0
 50
0.0
 71
0
 42
2.5
  3
LiberationSans-Regular.ttf
  4

  0
STYLE
  5
4F
330
5
100
AcDbSymbolTableRecord
100
AcDbTextStyleTableRecord
  2
LiberationSans-Bold
 70
0
 40
0.0
 41
1.0
 50
0.0
 71
0
 42
2.5
  3
LiberationSans-Bold.ttf
  4

  0
STYLE
  5
50
330
5
100
AcDbSymbolTableRecord
100
AcDbTextStyleTableRecord
  2
LiberationSans-BoldItalic
 70
0
 40
0.0
 41
1.0
 50
0.0
 71
0
 42
2.5
  3
LiberationSans-BoldItalic.ttf
  4

  0
STYLE
  5
51
330
5
100
AcDbSymbolTableRecord
100
AcDbTextStyleTableRecord
  2
LiberationSans-Italic
 70
0
 40
0.0
 41
1.0
 50
0.0
 71
0
 42
2.5
  3
LiberationSans-Italic.ttf
  4

  0
STYLE
  5
52
330
5
100
AcDbSymbolTableRecord
100
AcDbTextStyleTableRecord
  2
LiberationSerif
 70
0
 40
0.0
 41
1.0
 50
0.0
 71
0
 42
2.5
  3
LiberationSerif-Regular.ttf
  4

  0
STYLE
  5
53
330
5
100
AcDbSymbolTableRecord
100
AcDbTextStyleTableRecord
  2
LiberationSerif-Bold
 70
0
 40
0.0
 41
1.0
 50
0.0
 71
0
 42
2.5
  3
LiberationSerif-Bold.ttf
  4

  0
STYLE
  5
54
330
5
100
AcDbSymbolTableRecord
100
AcDbTextStyleTableRecord
  2
LiberationSerif-BoldItalic
 70
0
 40
0.0
 41
1.0
 50
0.0
 71
0
 42
2.5
  3
LiberationSerif-BoldItalic.ttf
  4

  0
STYLE
  5
55
330
5
100
AcDbSymbolTableRecord
100
AcDbTextStyleTableRecord
  2
LiberationSerif-Italic
 70
0
 40
0.0
 41
1.0
 50
0.0
 71
0
 42
2.5
  3
LiberationSerif-Italic.ttf
  4

  0
STYLE
  5
56
330
5
100
AcDbSymbolTableRecord
100
AcDbTextStyleTableRecord
  2
LiberationMono
 70
0
 40
0.0
 41
1.0
 50
0.0
 71
0
 42
2.5
  3
LiberationMono-Regular.ttf
  4

  0
STYLE
  5
57
330
5
100
AcDbSymbolTableRecord
100
AcDbTextStyleTableRecord
  2
LiberationMono-Bold
 70
0
 40
0.0
 41
1.0
 50
0.0
 71
0
 42
2.5
  3
LiberationMono-Bold.ttf
  4

  0
STYLE
  5
58
330
5
100
AcDbSymbolTableRecord
100
AcDbTextStyleTableRecord
  2
LiberationMono-BoldItalic
 70
0
 40
0.0
 41
1.0
 50
0.0
 71
0
 42
2.5
  3
LiberationMono-BoldItalic.ttf
  4

  0
STYLE
  5
59
330
5
100
AcDbSymbolTableRecord
100
AcDbTextStyleTableRecord
  2
LiberationMono-Italic
 70
0
 40
0.0
 41
1.0
 50
0.0
 71
0
 42
2.5
  3
LiberationMono-Italic.ttf
  4

  0
ENDTAB
  0
TABLE
  2
VIEW
  5
7
330
0
100
AcDbSymbolTable
 70
0
  0
ENDTAB
  0
TABLE
  2
UCS
  5
6
330
0
100
AcDbSymbolTable
 70
0
  0
ENDTAB
  0
TABLE
  2
APPID
  5
3
330
0
100
AcDbSymbolTable
 70
3
  0
APPID
  5
2A
330
3
100
AcDbSymbolTableRecord
100
AcDbRegAppTableRecord
  2
ACAD
 70
0
  0
APPID
  5
3E3
330
3
100
AcDbSymbolTableRecord
100
AcDbRegAppTableRecord
  2
HATCHBACKGROUNDCOLOR
 70
0
  0
APPID
  5
3E4
330
3
100
AcDbSymbolTableRecord
100
AcDbRegAppTableRecord
  2
EZDXF
 70
0
  0
ENDTAB
  0
TABLE
  2
DIMSTYLE
  5
4
330
0
100
AcDbSymbolTable
 70
12
100
AcDbDimStyleTable
  0
DIMSTYLE
105
2B
330
4
100
AcDbSymbolTableRecord
100
AcDbDimStyleTableRecord
  2
Standard
 70
0
 40
1.0
 41
2.5
 42
0.625
 43
3.75
 44
1.25
 45
0.0
 46
0.0
 47
0.0
 48
0.0
 49
2.5
140
2.5
141
2.5
142
0.0
143
0.03937007874
144
1.0
145
0.0
146
1.0
147
0.625
148
0.0
 69
0
 70
0
 71
0
 72
0
 73
0
 74
0
 75
0
 76
0
 77
1
 78
8
 79
3
170
0
171
3
172
1
173
0
174
0
175
0
176
0
177
0
178
0
179
2
271
2
272
2
273
2
274
3
275
0
276
0
277
2
278
44
279
0
280
0
281
0
282
0
283
0
284
8
285
0
286
0
288
0
289
3
290
0
371
-2
372
-2
  0
DIMSTYLE
105
73
330
4
100
AcDbSymbolTableRecord
100
AcDbDimStyleTableRecord
  2
EZDXF
 70
0
 40
1.0
 41
0.175
 42
0.125
 43
3.75
 44
0.375
 45
0.0
 46
0.0
 47
0.0
 48
0.0
 49
2.5
140
0.25
141
2.5
142
0.0
143
0.03937007874
144
100.0
145
0.0
146
0.5
147
0.1
148
0.0
 69
0
 70
0
 71
0
 72
0
 73
0
 74
0
 75
0
 76
0
 77
1
 78
12
 79
3
170
0
171
3
172
1
173
0
174
0
175
0
176
0
177
0
178
0
179
2
271
2
272
2
273
2
274
3
275
0
276
0
277
2
278
46
279
2
280
0
281
0
282
0
283
0
284
8
285
0
286
0
288
1
289
3
290
0
340
4C
342
74
371
-2
372
-2
  0
DIMSTYLE
105
7C
330
4
100
AcDbSymbolTableRecord
100
AcDbDimStyleTableRecord
  2
EZ_M_100_H25_CM
 70
0
 40
1.0
 41
0.25
 42
0.125
 43
3.75
 44
0.375
 45
0.0
 46
0.0
 47
0.0
 48
0.0
 49
2.5
140
0.25
141
2.5
142
0.125
143
0.03937007874
144
100.0
145
0.0
146
0.5
147
0.1
148
0.0
 69
0
 70
0
 71
0
 72
0
 73
0
 74
0
 75
0
 76
0
 77
1
 78
12
 79
3
170
0
171
3
172
1
173
0
174
0
175
0
176
0
177
0
178
0
179
2
271
2
272
2
273
2
274
3
275
0
276
0
277
2
278
46
279
2
280
0
281
0
282
0
283
0
284
8
285
0
286
0
288
1
289
3
290
0
340
4C
371
-2
372
-2
  0
DIMSTYLE
105
7D
330
4
100
AcDbSymbolTableRecord
100
AcDbDimStyleTableRecord
  2
EZ_M_50_H25_CM
 70
0
 40
1.0
 41
0.125
 42
0.0625
 43
3.75
 44
0.1875
 45
0.0
 46
0.0
 47
0.0
 48
0.0
 49
2.5
140
0.125
141
2.5
142
0.0625
143
0.03937007874
144
100.0
145
0.0
146
0.5
147
0.05
148
0.0
 69
0
 70
0
 71
0
 72
0
 73
0
 74
0
 75
0
 76
0
 77
1
 78
12
 79
3
170
0
171
3
172
1
173
0
174
0
175
0
176
0
177
0
178
0
179
2
271
2
272
2
273
2
274
3
275
0
276
0
277
2
278
46
279
2
280
0
281
0
282
0
283
0
284
8
285
0
286
0
288
1
289
3
290
0
340
4C
371
-2
372
-2
  0
DIMSTYLE
105
7E
330
4
100
AcDbSymbolTableRecord
100
AcDbDimStyleTableRecord
  2
EZ_M_25_H25_CM
 70
0
 40
1.0
 41
0.0625
 42
0.03125
 43
3.75
 44
0.09375
 45
0.0
 46
0.0
 47
0.0
 48
0.0
 49
2.5
140
0.0625
141
2.5
142
0.03125
143
0.03937007874
144
100.0
145
0.0
146
0.5
147
0.025
148
0.0
 69
0
 70
0
 71
0
 72
0
 73
0
 74
0
 75
0
 76
0
 77
1
 78
12
 79
3
170
0
171
3
172
1
173
0
174
0
175
0
176
0
177
0
178
0
179
2
271
2
272
2
273
2
274
3
275
0
276
0
277
2
278
46
279
2
280
0
281
0
282
0
283
0
284
8
285
0
286
0
288
1
289
3
290
0
340
4C
371
-2
372
-2
  0
DIMSTYLE
105
7F
330
4
100
AcDbSymbolTableRecord
100
AcDbDimStyleTableRecord
  2
EZ_M_20_H25_CM
 70
0
 40
1.0
 41
0.05
 42
0.025
 43
3.75
 44
0.07500000000000001
 45
0.0
 46
0.0
 47
0.0
 48
0.0
 49
2.5
140
0.05
141
2.5
142
0.025
143
0.03937007874
144
100.0
145
0.0
146
0.5
147
0.020000000000000004
148
0.0
 69
0
 70
0
 71
0
 72
0
 73
0
 74
0
 75
0
 76
0
 77
1
 78
12
 79
3
170
0
171
3
172
1
173
0
174
0
175
0
176
0
177
0
178
0
179
2
271
2
272
2
273
2
274
3
275
0
276
0
277
2
278
46
279
2
280
0
281
0
282
0
283
0
284
8
285
0
286
0
288
1
289
3
290
0
340
4C
371
-2
372
-2
  0
DIMSTYLE
105
80
330
4
100
AcDbSymbolTableRecord
100
AcDbDimStyleTableRecord
  2
EZ_M_10_H25_CM
 70
0
 40
1.0
 41
0.025
 42
0.0125
 43
3.75
 44
0.037500000000000006
 45
0.0
 46
0.0
 47
0.0
 48
0.0
 49
2.5
140
0.025
141
2.5
142
0.0125
143
0.03937007874
144
100.0
145
0.0
146
0.5
147
0.010000000000000002
148
0.0
 69
0
 70
0
 71
0
 72
0
 73
0
 74
0
 75
0
 76
0
 77
1
 78
12
 79
3
170
0
171
3
172
1
173
0
174
0
175
0
176
0
177
0
178
0
179
2
271
2
272
2
273
2
274
3
275
0
276
0
277
2
278
46
279
2
280
0
281
0
282
0
283
0
284
8
285
0
286
0
288
1
289
3
290
0
340
4C
371
-2
372
-2
  0
DIMSTYLE
105
81
330
4
100
AcDbSymbolTableRecord
100
AcDbDimStyleTableRecord
  2
EZ_M_5_H25_CM
 70
0
 40
1.0
 41
0.0125
 42
0.00625
 43
3.75
 44
0.018750000000000003
 45
0.0
 46
0.0
 47
0.0
 48
0.0
 49
2.5
140
0.0125
141
2.5
142
0.00625
143
0.03937007874
144
100.0
145
0.0
146
0.5
147
0.005000000000000001
148
0.0
 69
0
 70
0
 71
0
 72
0
 73
0
 74
0
 75
0
 76
0
 77
1
 78
12
 79
3
170
0
171
3
172
1
173
0
174
0
175
0
176
0
177
0
178
0
179
2
271
2
272
2
273
2
274
3
275
0
276
0
277
2
278
46
279
2
280
0
281
0
282
0
283
0
284
8
285
0
286
0
288
1
289
3
290
0
340
4C
371
-2
372
-2
  0
DIMSTYLE
105
82
330
4
100
AcDbSymbolTableRecord
100
AcDbDimStyleTableRecord
  2
EZ_M_1_H25_CM
 70
0
 40
1.0
 41
0.0025
 42
0.00125
 43
3.75
 44
0.00375
 45
0.0
 46
0.0
 47
0.0
 48
0.0
 49
2.5
140
0.0025
141
2.5
142
0.00125
143
0.03937007874
144
100.0
145
0.0
146
0.5
147
0.001
148
0.0
 69
0
 70
0
 71
0
 72
0
 73
0
 74
0
 75
0
 76
0
 77
1
 78
12
 79
3
170
0
171
3
172
1
173
0
174
0
175
0
176
0
177
0
178
0
179
2
271
2
272
2
273
2
274
3
275
0
276
0
277
2
278
46
279
2
280
0
281
0
282
0
283
0
284
8
285
0
286
0
288
1
289
3
290
0
340
4C
371
-2
372
-2
  0
DIMSTYLE
105
83
330
4
100
AcDbSymbolTableRecord
100
AcDbDimStyleTableRecord
  2
EZ_RADIUS
 70
0
 40
1.0
 41
0.25
 42
0.125
 43
3.75
 44
0.375
 45
0.0
 46
0.0
 47
0.0
 48
0.0
 49
2.5
140
0.25
141
0.0
142
0.0
143
0.03937007874
144
100.0
145
0.0
146
0.5
147
0.1
148
0.0
 69
0
 70
0
 71
0
 72
0
 73
0
 74
0
 75
0
 76
0
 77
1
 78
12
 79
3
170
0
171
3
172
0
173
0
174
0
175
0
176
0
177
0
178
0
179
2
271
2
272
2
273
2
274
3
275
0
276
0
277
2
278
46
279
1
280
0
281
0
282
0
283
0
284
8
285
0
286
0
288
1
289
3
290
0
340
4C
342
84
371
-2
372
-2
  0
DIMSTYLE
105
88
330
4
100
AcDbSymbolTableRecord
100
AcDbDimStyleTableRecord
  2
EZ_RADIUS_INSIDE
 70
0
 40
1.0
 41
0.25
 42
0.125
 43
3.75
 44
0.375
 45
0.0
 46
0.0
 47
0.0
 48
0.0
 49
2.5
140
0.25
141
0.0
142
0.0
143
0.03937007874
144
100.0
145
0.0
146
0.5
147
0.1
148
0.0
 69
0
 70
0
 71
0
 72
0
 73
0
 74
0
 75
0
 76
0
 77
0
 78
12
 79
3
170
0
171
3
172
0
173
0
174
1
175
0
176
0
177
0
178
0
179
2
271
2
272
2
273
2
274
3
275
0
276
0
277
2
278
46
279
0
280
0
281
0
282
0
283
0
284
8
285
0
286
0
288
1
289
0
290
0
340
4C
342
84
371
-2
372
-2
  0
DIMSTYLE
105
89
330
4
100
AcDbSymbolTableRecord
100
AcDbDimStyleTableRecord
  2
EZ_CURVED
 70
0
 40
1.0
 41
0.25
 42
0.125
 43
3.75
 44
0.375
 45
0.0
 46
0.0
 47
0.0
 48
0.0
 49
2.5
140
0.25
141
2.5
142
0.0
143
0.03937007874
144
100.0
145
0.0
146
0.5
147
0.1
148
0.0
 69
0
 70
0
 71
0
 72
0
 73
0
 74
0
 75
0
 76
0
 77
1
 78
12
 79
2
 90
2
170
0
171
3
172
1
173
0
174
0
175
0
176
0
177
0
178
0
179
2
271
2
272
2
273
2
274
3
275
0
276
0
277
2
278
46
279
2
280
0
281
0
282
0
283
0
284
8
285
0
286
0
288
1
289
3
290
0
340
4C
371
-2
372
-2
  0
ENDTAB
  0
TABLE
  2
BLOCK_RECORD
  5
9
330
0
100
AcDbSymbolTable
 70
183
  0
BLOCK_RECORD
  5
17
330
9
100
AcDbSymbolTableRecord
100
AcDbBlockTableRecord
  2
*Model_Space
340
1A
 70
0
280
1
281
0
  0
BLOCK_RECORD
  5
1B
330
9
100
AcDbSymbolTableRecord
100
AcDbBlockTableRecord
  2
*Paper_Space
340
1E
 70
0
280
1
281
0
  0
BLOCK_RECORD
  5
74
330
9
100
AcDbSymbolTableRecord
100
AcDbBlockTableRecord
  2
_ARCHTICK
340
0
 70
0
280
1
281
0
  0
BLOCK_RECORD
  5
78
330
9
100
AcDbSymbolTableRecord
100
AcDbBlockTableRecord
  2
_CLOSEDFILLED
340
0
 70
0
280
1
281
0
  0
BLOCK_RECORD
  5
84
330
9
100
AcDbSymbolTableRecord
100
AcDbBlockTableRecord
  2
_CLOSEDBLANK
340
0
 70
0
280
1
281
0
  0
BLOCK_RECORD
  5
8A
330
9
100
AcDbSymbolTableRecord
100
AcDbBlockTableRecord
  2
STAGE-6X4
340
0
 70
0
280
1
281
0
  0
BLOCK_RECORD
  5
8E
330
9
100
AcDbSymbolTableRecord
100
AcDbBlockTableRecord
  2
STAGE-8X6
340
0
 70
0
280
1
281
0
  0
BLOCK_RECORD
  5
92
330
9
100
AcDbSymbolTableRecord
100
AcDbBlockTableRecord
  2
STAGE-12X8
340
0
 70
0
280
1
281
0
  0
BLOCK_RECORD
  5
96
330
9
100
AcDbSymbolTableRecord
100
AcDbBlockTableRecord
  2
STAGE-16X10
340
0
 70
0
280
1
281
0
  0
BLOCK_RECORD
  5
9A
330
9
100
AcDbSymbolTableRecord
100
AcDbBlockTableRecord
  2
STAGE-20X12
340
0
 70
0
280
1
281
0
  0
BLOCK_RECORD
  5
9E
330
9
100
AcDbSymbolTableRecord
100
AcDbBlockTableRecord
  2
STAGE-ROUND-8M
340
0
 70
0
280
1
281
0
  0
BLOCK_RECORD
  5
A4
330
9
100
AcDbSymbolTableRecord
100
AcDbBlockTableRecord
  2
STAGE-ROOF-12X8
340
0
 70
0
280
1
281
0
  0
BLOCK_RECORD
  5
AA
330
9
100
AcDbSymbolTableRecord
100
AcDbBlockTableRecord
  2
STAGE-BACKDROP-8M
340
0
 70
0
280
1
281
0
  0
BLOCK_RECORD
  5
AF
330
9
100
AcDbSymbolTableRecord
100
AcDbBlockTableRecord
  2
DJ-BOOTH-4X2
340
0
 70
0
280
1
281
0
  0
BLOCK_RECORD
  5
B3
330
9
100
AcDbSymbolTableRecord
100
AcDbBlockTableRecord
  2
RISER-2X1
340
0
 70
0
280
1
281
0
  0
BLOCK_RECORD
  5
B7
330
9
100
AcDbSymbolTableRecord
100
AcDbBlockTableRecord
  2
LED-SCREEN-6X4
340
0
 70
0
280
1
281
0
  0
BLOCK_RECORD
  5
BC
330
9
100
AcDbSymbolTableRecord
100
AcDbBlockTableRecord
  2
LED-SCREEN-10X6
340
0
 70
0
280
1
281
0
  0
BLOCK_RECORD
  5
C1
330
9
100
AcDbSymbolTableRecord
100
AcDbBlockTableRecord
  2
LED-SCREEN-16X9
340
0
 70
0
280
1
281
0
  0
BLOCK_RECORD
  5
C6
330
9
100
AcDbSymbolTableRecord
100
AcDbBlockTableRecord
  2
SPEAKER-STACK
340
0
 70
0
280
1
281
0
  0
BLOCK_RECORD
  5
CA
330
9
100
AcDbSymbolTableRecord
100
AcDbBlockTableRecord
  2
DELAY-TOWER
340
0
 70
0
280
1
281
0
  0
BLOCK_RECORD
  5
D0
330
9
100
AcDbSymbolTableRecord
100
AcDbBlockTableRecord
  2
LIGHTING-TOWER
340
0
 70
0
280
1
281
0
  0
BLOCK_RECORD
  5
D6
330
9
100
AcDbSymbolTableRecord
100
AcDbBlockTableRecord
  2
FOH-CONTROL-6X3
340
0
 70
0
280
1
281
0
  0
BLOCK_RECORD
  5
DA
330
9
100
AcDbSymbolTableRecord
100
AcDbBlockTableRecord
  2
PYRO-POSITION
340
0
 70
0
280
1
281
0
  0
BLOCK_RECORD
  5
DE
330
9
100
AcDbSymbolTableRecord
100
AcDbBlockTableRecord
  2
GRANDSTAND-10X5-100PAX
340
0
 70
0
280
1
281
0
  0
BLOCK_RECORD
  5
E6
330
9
100
AcDbSymbolTableRecord
100
AcDbBlockTableRecord
  2
GRANDSTAND-20X8-300PAX
340
0
 70
0
280
1
281
0
  0
BLOCK_RECORD
  5
F1
330
9
100
AcDbSymbolTableRecord
100
AcDbBlockTableRecord
  2
GRANDSTAND-30X10-500PAX
340
0
 70
0
280
1
281
0
  0
BLOCK_RECORD
  5
FF
330
9
100
AcDbSymbolTableRecord
100
AcDbBlockTableRecord
  2
BLEACHER-6X3
340
0
 70
0
280
1
281
0
  0
BLOCK_RECORD
  5
105
330
9
100
AcDbSymbolTableRecord
100
AcDbBlockTableRecord
  2
VIEWING-DECK-10X6
340
0
 70
0
280
1
281
0
  0
BLOCK_RECORD
  5
109
330
9
100
AcDbSymbolTableRecord
100
AcDbBlockTableRecord
  2
SEATING-ROW-10PAX
340
0
 70
0
280
1
281
0
  0
BLOCK_RECORD
  5
10E
330
9
100
AcDbSymbolTableRecord
100
AcDbBlockTableRecord
  2
SEATING-BLOCK-8X6
340
0
 70
0
280
1
281
0
  0
BLOCK_RECORD
  5
117
330
9
100
AcDbSymbolTableRecord
100
AcDbBlockTableRecord
  2
CHAIR
340
0
 70
0
280
1
281
0
  0
BLOCK_RECORD
  5
11B
330
9
100
AcDbSymbolTableRecord
100
AcDbBlockTableRecord
  2
BENCH-2M
340
0
 70
0
280
1
281
0
  0
BLOCK_RECORD
  5
11F
330
9
100
AcDbSymbolTableRecord
100
AcDbBlockTableRecord
  2
BENCH-3M
340
0
 70
0
280
1
281
0
  0
BLOCK_RECORD
  5
123
330
9
100
AcDbSymbolTableRecord
100
AcDbBlockTableRecord
  2
BEANBAG
340
0
 70
0
280
1
281
0
  0
BLOCK_RECORD
  5
129
330
9
100
AcDbSymbolTableRecord
100
AcDbBlockTableRecord
  2
LOUNGE-SOFA-2M
340
0
 70
0
280
1
281
0
  0
BLOCK_RECORD
  5
12D
330
9
100
AcDbSymbolTableRecord
100
AcDbBlockTableRecord
  2
LOUNGE-ARMCHAIR
340
0
 70
0
280
1
281
0
  0
BLOCK_RECORD
  5
131
330
9
100
AcDbSymbolTableRecord
100
AcDbBlockTableRecord
  2
TABLE-ROUND-1.8M-10PAX
340
0
 70
0
280
1
281
0
  0
BLOCK_RECORD
  5
137
330
9
100
AcDbSymbolTableRecord
100
AcDbBlockTableRecord
  2
TABLE-ROUND-1.5M-8PAX
340
0
 70
0
280
1
281
0
  0
BLOCK_RECORD
  5
13D
330
9
100
AcDbSymbolTableRecord
100
AcDbBlockTableRecord
  2
TABLE-RECT-1.8X0.8
340
0
 70
0
280
1
281
0
  0
BLOCK_RECORD
  5
141
330
9
100
AcDbSymbolTableRecord
100
AcDbBlockTableRecord
  2
TABLE-COCKTAIL-0.6M
340
0
 70
0
280
1
281
0
  0
BLOCK_RECORD
  5
147
330
9
100
AcDbSymbolTableRecord
100
AcDbBlockTableRecord
  2
STOOL
340
0
 70
0
280
1
281
0
  0
BLOCK_RECORD
  5
14D
330
9
100
AcDbSymbolTableRecord
100
AcDbBlockTableRecord
  2
PICNIC-TABLE-2.2X1.5
340
0
 70
0
280
1
281
0
  0
BLOCK_RECORD
  5
151
330
9
100
AcDbSymbolTableRecord
100
AcDbBlockTableRecord
  2
SHADE-SAIL-6X6
340
0
 70
0
280
1
281
0
  0
BLOCK_RECORD
  5
157
330
9
100
AcDbSymbolTableRecord
100
AcDbBlockTableRecord
  2
SHADE-SAIL-10X10
340
0
 70
0
280
1
281
0
  0
BLOCK_RECORD
  5
15D
330
9
100
AcDbSymbolTableRecord
100
AcDbBlockTableRecord
  2
SHADE-SAIL-12X12
340
0
 70
0
280
1
281
0
  0
BLOCK_RECORD
  5
163
330
9
100
AcDbSymbolTableRecord
100
AcDbBlockTableRecord
  2
SHADE-SAIL-15X15
340
0
 70
0
280
1
281
0
  0
BLOCK_RECORD
  5
169
330
9
100
AcDbSymbolTableRecord
100
AcDbBlockTableRecord
  2
CANOPY-3X3
340
0
 70
0
280
1
281
0
  0
BLOCK_RECORD
  5
16F
330
9
100
AcDbSymbolTableRecord
100
AcDbBlockTableRecord
  2
CANOPY-5X5
340
0
 70
0
280
1
281
0
  0
BLOCK_RECORD
  5
175
330
9
100
AcDbSymbolTableRecord
100
AcDbBlockTableRecord
  2
CANOPY-6X6
340
0
 70
0
280
1
281
0
  0
BLOCK_RECORD
  5
17B
330
9
100
AcDbSymbolTableRecord
100
AcDbBlockTableRecord
  2
CANOPY-10X10
340
0
 70
0
280
1
281
0
  0
BLOCK_RECORD
  5
181
330
9
100
AcDbSymbolTableRecord
100
AcDbBlockTableRecord
  2
CANOPY-15X10
340
0
 70
0
280
1
281
0
  0
BLOCK_RECORD
  5
187
330
9
100
AcDbSymbolTableRecord
100
AcDbBlockTableRecord
  2
CANOPY-20X10
340
0
 70
0
280
1
281
0
  0
BLOCK_RECORD
  5
18D
330
9
100
AcDbSymbolTableRecord
100
AcDbBlockTableRecord
  2
MARQUEE-10X20
340
0
 70
0
280
1
281
0
  0
BLOCK_RECORD
  5
193
330
9
100
AcDbSymbolTableRecord
100
AcDbBlockTableRecord
  2
MARQUEE-15X30
340
0
 70
0
280
1
281
0
  0
BLOCK_RECORD
  5
199
330
9
100
AcDbSymbolTableRecord
100
AcDbBlockTableRecord
  2
PERGOLA-5X5
340
0
 70
0
280
1
281
0
  0
BLOCK_RECORD
  5
19F
330
9
100
AcDbSymbolTableRecord
100
AcDbBlockTableRecord
  2
UMBRELLA-3M
340
0
 70
0
280
1
281
0
  0
BLOCK_RECORD
  5
1A5
330
9
100
AcDbSymbolTableRecord
100
AcDbBlockTableRecord
  2
UMBRELLA-4M
340
0
 70
0
280
1
281
0
  0
BLOCK_RECORD
  5
1AB
330
9
100
AcDbSymbolTableRecord
100
AcDbBlockTableRecord
  2
UMBRELLA-5M
340
0
 70
0
280
1
281
0
  0
BLOCK_RECORD
  5
1B1
330
9
100
AcDbSymbolTableRecord
100
AcDbBlockTableRecord
  2
MIST-FAN
340
0
 70
0
280
1
281
0
  0
BLOCK_RECORD
  5
1B7
330
9
100
AcDbSymbolTableRecord
100
AcDbBlockTableRecord
  2
MIST-ARCH-3M
340
0
 70
0
280
1
281
0
  0
BLOCK_RECORD
  5
1BC
330
9
100
AcDbSymbolTableRecord
100
AcDbBlockTableRecord
  2
STRING-LIGHT-10M
340
0
 70
0
280
1
281
0
  0
BLOCK_RECORD
  5
1C1
330
9
100
AcDbSymbolTableRecord
100
AcDbBlockTableRecord
  2
STRING-LIGHT-20M
340
0
 70
0
280
1
281
0
  0
BLOCK_RECORD
  5
1C6
330
9
100
AcDbSymbolTableRecord
100
AcDbBlockTableRecord
  2
SHUTTLE-CART-3X1.2
340
0
 70
0
280
1
281
0
  0
BLOCK_RECORD
  5
1CB
330
9
100
AcDbSymbolTableRecord
100
AcDbBlockTableRecord
  2
EVAP-COOLER
340
0
 70
0
280
1
281
0
  0
BLOCK_RECORD
  5
1CF
330
9
100
AcDbSymbolTableRecord
100
AcDbBlockTableRecord
  2
AC-SPLIT-UNIT
340
0
 70
0
280
1
281
0
  0
BLOCK_RECORD
  5
1D3
330
9
100
AcDbSymbolTableRecord
100
AcDbBlockTableRecord
  2
AC-PACKAGE-3TON
340
0
 70
0
280
1
281
0
  0
BLOCK_RECORD
  5
1D7
330
9
100
AcDbSymbolTableRecord
100
AcDbBlockTableRecord
  2
AC-DUCT-TENT-5X5
340
0
 70
0
280
1
281
0
  0
BLOCK_RECORD
  5
1DD
330
9
100
AcDbSymbolTableRecord
100
AcDbBlockTableRecord
  2
FOOD-TRUCK-7X2.5
340
0
 70
0
280
1
281
0
  0
BLOCK_RECORD
  5
1E2
330
9
100
AcDbSymbolTableRecord
100
AcDbBlockTableRecord
  2
FOOD-TRAILER-5X2
340
0
 70
0
280
1
281
0
  0
BLOCK_RECORD
  5
1E7
330
9
100
AcDbSymbolTableRecord
100
AcDbBlockTableRecord
  2
FOOD-KIOSK-3X3
340
0
 70
0
280
1
281
0
  0
BLOCK_RECORD
  5
1EB
330
9
100
AcDbSymbolTableRecord
100
AcDbBlockTableRecord
  2
FOOD-KIOSK-4X4
340
0
 70
0
280
1
281
0
  0
BLOCK_RECORD
  5
1EF
330
9
100
AcDbSymbolTableRecord
100
AcDbBlockTableRecord
  2
FOOD-COURT-TENT-10X10
340
0
 70
0
280
1
281
0
  0
BLOCK_RECORD
  5
1F5
330
9
100
AcDbSymbolTableRecord
100
AcDbBlockTableRecord
  2
COFFEE-CART-2X1
340
0
 70
0
280
1
281
0
  0
BLOCK_RECORD
  5
1F9
330
9
100
AcDbSymbolTableRecord
100
AcDbBlockTableRecord
  2
JUICE-BAR-4X2
340
0
 70
0
280
1
281
0
  0
BLOCK_RECORD
  5
1FD
330
9
100
AcDbSymbolTableRecord
100
AcDbBlockTableRecord
  2
MOCKTAIL-BAR-6X1
340
0
 70
0
280
1
281
0
  0
BLOCK_RECORD
  5
201
330
9
100
AcDbSymbolTableRecord
100
AcDbBlockTableRecord
  2
BEVERAGE-COUNTER-4X1
340
0
 70
0
280
1
281
0
  0
BLOCK_RECORD
  5
205
330
9
100
AcDbSymbolTableRecord
100
AcDbBlockTableRecord
  2
BUFFET-LINE-6X1
340
0
 70
0
280
1
281
0
  0
BLOCK_RECORD
  5
209
330
9
100
AcDbSymbolTableRecord
100
AcDbBlockTableRecord
  2
SERVING-COUNTER-3X1
340
0
 70
0
280
1
281
0
  0
BLOCK_RECORD
  5
20D
330
9
100
AcDbSymbolTableRecord
100
AcDbBlockTableRecord
  2
WATER-REFILL-STATION-2X1
340
0
 70
0
280
1
281
0
  0
BLOCK_RECORD
  5
211
330
9
100
AcDbSymbolTableRecord
100
AcDbBlockTableRecord
  2
ICE-BOX
340
0
 70
0
280
1
281
0
  0
BLOCK_RECORD
  5
215
330
9
100
AcDbSymbolTableRecord
100
AcDbBlockTableRecord
  2
FRIDGE-UPRIGHT
340
0
 70
0
280
1
281
0
  0
BLOCK_RECORD
  5
219
330
9
100
AcDbSymbolTableRecord
100
AcDbBlockTableRecord
  2
PREP-TABLE-2X1
340
0
 70
0
280
1
281
0
  0
BLOCK_RECORD
  5
21D
330
9
100
AcDbSymbolTableRecord
100
AcDbBlockTableRecord
  2
KITCHEN-CONTAINER-6X2.4
340
0
 70
0
280
1
281
0
  0
BLOCK_RECORD
  5
221
330
9
100
AcDbSymbolTableRecord
100
AcDbBlockTableRecord
  2
HAND-SINK
340
0
 70
0
280
1
281
0
  0
BLOCK_RECORD
  5
225
330
9
100
AcDbSymbolTableRecord
100
AcDbBlockTableRecord
  2
TOILET-SINGLE
340
0
 70
0
280
1
281
0
  0
BLOCK_RECORD
  5
229
330
9
100
AcDbSymbolTableRecord
100
AcDbBlockTableRecord
  2
TOILET-ACCESSIBLE
340
0
 70
0
280
1
281
0
  0
BLOCK_RECORD
  5
22D
330
9
100
AcDbSymbolTableRecord
100
AcDbBlockTableRecord
  2
TOILET-BLOCK-4-MALE
340
0
 70
0
280
1
281
0
  0
BLOCK_RECORD
  5
231
330
9
100
AcDbSymbolTableRecord
100
AcDbBlockTableRecord
  2
TOILET-BLOCK-4-FEMALE
340
0
 70
0
280
1
281
0
  0
BLOCK_RECORD
  5
235
330
9
100
AcDbSymbolTableRecord
100
AcDbBlockTableRecord
  2
TOILET-BLOCK-8-MALE
340
0
 70
0
280
1
281
0
  0
BLOCK_RECORD
  5
239
330
9
100
AcDbSymbolTableRecord
100
AcDbBlockTableRecord
  2
TOILET-BLOCK-8-FEMALE
340
0
 70
0
280
1
281
0
  0
BLOCK_RECORD
  5
23D
330
9
100
AcDbSymbolTableRecord
100
AcDbBlockTableRecord
  2
TOILET-BLOCK-12-MALE
340
0
 70
0
280
1
281
0
  0
BLOCK_RECORD
  5
241
330
9
100
AcDbSymbolTableRecord
100
AcDbBlockTableRecord
  2
TOILET-BLOCK-12-FEMALE
340
0
 70
0
280
1
281
0
  0
BLOCK_RECORD
  5
245
330
9
100
AcDbSymbolTableRecord
100
AcDbBlockTableRecord
  2
TOILET-VIP-6X3
340
0
 70
0
280
1
281
0
  0
BLOCK_RECORD
  5
249
330
9
100
AcDbSymbolTableRecord
100
AcDbBlockTableRecord
  2
SHOWER-UNIT
340
0
 70
0
280
1
281
0
  0
BLOCK_RECORD
  5
24D
330
9
100
AcDbSymbolTableRecord
100
AcDbBlockTableRecord
  2
HANDWASH-STATION-4TAP
340
0
 70
0
280
1
281
0
  0
BLOCK_RECORD
  5
251
330
9
100
AcDbSymbolTableRecord
100
AcDbBlockTableRecord
  2
BABY-CHANGE-UNIT
340
0
 70
0
280
1
281
0
  0
BLOCK_RECORD
  5
255
330
9
100
AcDbSymbolTableRecord
100
AcDbBlockTableRecord
  2
PRAYER-TENT-5X5-MALE
340
0
 70
0
280
1
281
0
  0
BLOCK_RECORD
  5
25B
330
9
100
AcDbSymbolTableRecord
100
AcDbBlockTableRecord
  2
PRAYER-TENT-5X5-FEMALE
340
0
 70
0
280
1
281
0
  0
BLOCK_RECORD
  5
261
330
9
100
AcDbSymbolTableRecord
100
AcDbBlockTableRecord
  2
PRAYER-TENT-10X10-MALE
340
0
 70
0
280
1
281
0
  0
BLOCK_RECORD
  5
267
330
9
100
AcDbSymbolTableRecord
100
AcDbBlockTableRecord
  2
PRAYER-TENT-10X10-FEMALE
340
0
 70
0
280
1
281
0
  0
BLOCK_RECORD
  5
26D
330
9
100
AcDbSymbolTableRecord
100
AcDbBlockTableRecord
  2
PRAYER-MAT-ROW-6PAX
340
0
 70
0
280
1
281
0
  0
BLOCK_RECORD
  5
272
330
9
100
AcDbSymbolTableRecord
100
AcDbBlockTableRecord
  2
WUDU-ABLUTION-STATION-4M
340
0
 70
0
280
1
281
0
  0
BLOCK_RECORD
  5
276
330
9
100
AcDbSymbolTableRecord
100
AcDbBlockTableRecord
  2
SHOE-RACK-2M
340
0
 70
0
280
1
281
0
  0
BLOCK_RECORD
  5
27A
330
9
100
AcDbSymbolTableRecord
100
AcDbBlockTableRecord
  2
TICKET-BOOTH-2X2
340
0
 70
0
280
1
281
0
  0
BLOCK_RECORD
  5
27E
330
9
100
AcDbSymbolTableRecord
100
AcDbBlockTableRecord
  2
TICKET-BOOTH-3X2
340
0
 70
0
280
1
281
0
  0
BLOCK_RECORD
  5
282
330
9
100
AcDbSymbolTableRecord
100
AcDbBlockTableRecord
  2
ACCREDITATION-CABIN-6X3
340
0
 70
0
280
1
281
0
  0
BLOCK_RECORD
  5
286
330
9
100
AcDbSymbolTableRecord
100
AcDbBlockTableRecord
  2
TURNSTILE
340
0
 70
0
280
1
281
0
  0
BLOCK_RECORD
  5
28A
330
9
100
AcDbSymbolTableRecord
100
AcDbBlockTableRecord
  2
MAG-SEARCH-ARCH
340
0
 70
0
280
1
281
0
  0
BLOCK_RECORD
  5
28F
330
9
100
AcDbSymbolTableRecord
100
AcDbBlockTableRecord
  2
SEARCH-TABLE-2X1
340
0
 70
0
280
1
281
0
  0
BLOCK_RECORD
  5
293
330
9
100
AcDbSymbolTableRecord
100
AcDbBlockTableRecord
  2
BAG-DROP-3X2
340
0
 70
0
280
1
281
0
  0
BLOCK_RECORD
  5
297
330
9
100
AcDbSymbolTableRecord
100
AcDbBlockTableRecord
  2
ENTRANCE-GATE-6M
340
0
 70
0
280
1
281
0
  0
BLOCK_RECORD
  5
29C
330
9
100
AcDbSymbolTableRecord
100
AcDbBlockTableRecord
  2
ENTRANCE-GATE-10M
340
0
 70
0
280
1
281
0
  0
BLOCK_RECORD
  5
2A1
330
9
100
AcDbSymbolTableRecord
100
AcDbBlockTableRecord
  2
QUEUE-LANE-10X2
340
0
 70
0
280
1
281
0
  0
BLOCK_RECORD
  5
2A5
330
9
100
AcDbSymbolTableRecord
100
AcDbBlockTableRecord
  2
CROWD-BARRIER-2.5M
340
0
 70
0
280
1
281
0
  0
BLOCK_RECORD
  5
2AA
330
9
100
AcDbSymbolTableRecord
100
AcDbBlockTableRecord
  2
BARRIER-LINE-10M
340
0
 70
0
280
1
281
0
  0
BLOCK_RECORD
  5
2AF
330
9
100
AcDbSymbolTableRecord
100
AcDbBlockTableRecord
  2
HERAS-FENCE-3.5M
340
0
 70
0
280
1
281
0
  0
BLOCK_RECORD
  5
2B4
330
9
100
AcDbSymbolTableRecord
100
AcDbBlockTableRecord
  2
WATER-BARRIER-2M
340
0
 70
0
280
1
281
0
  0
BLOCK_RECORD
  5
2B9
330
9
100
AcDbSymbolTableRecord
100
AcDbBlockTableRecord
  2
SECURITY-CABIN-2X2
340
0
 70
0
280
1
281
0
  0
BLOCK_RECORD
  5
2BD
330
9
100
AcDbSymbolTableRecord
100
AcDbBlockTableRecord
  2
CCTV-POLE
340
0
 70
0
280
1
281
0
  0
BLOCK_RECORD
  5
2C3
330
9
100
AcDbSymbolTableRecord
100
AcDbBlockTableRecord
  2
GENERATOR-100KVA
340
0
 70
0
280
1
281
0
  0
BLOCK_RECORD
  5
2C7
330
9
100
AcDbSymbolTableRecord
100
AcDbBlockTableRecord
  2
GENERATOR-250KVA
340
0
 70
0
280
1
281
0
  0
BLOCK_RECORD
  5
2CB
330
9
100
AcDbSymbolTableRecord
100
AcDbBlockTableRecord
  2
GENERATOR-500KVA
340
0
 70
0
280
1
281
0
  0
BLOCK_RECORD
  5
2CF
330
9
100
AcDbSymbolTableRecord
100
AcDbBlockTableRecord
  2
FUEL-TANK-2X1
340
0
 70
0
280
1
281
0
  0
BLOCK_RECORD
  5
2D3
330
9
100
AcDbSymbolTableRecord
100
AcDbBlockTableRecord
  2
DISTRIBUTION-BOARD
340
0
 70
0
280
1
281
0
  0
BLOCK_RECORD
  5
2D7
330
9
100
AcDbSymbolTableRecord
100
AcDbBlockTableRecord
  2
CABLE-RAMP-1.5M
340
0
 70
0
280
1
281
0
  0
BLOCK_RECORD
  5
2DC
330
9
100
AcDbSymbolTableRecord
100
AcDbBlockTableRecord
  2
LIGHT-TOWER-MOBILE
340
0
 70
0
280
1
281
0
  0
BLOCK_RECORD
  5
2E0
330
9
100
AcDbSymbolTableRecord
100
AcDbBlockTableRecord
  2
WATER-TANK-1000L
340
0
 70
0
280
1
281
0
  0
BLOCK_RECORD
  5
2E6
330
9
100
AcDbSymbolTableRecord
100
AcDbBlockTableRecord
  2
WASTE-BIN-240L
340
0
 70
0
280
1
281
0
  0
BLOCK_RECORD
  5
2EA
330
9
100
AcDbSymbolTableRecord
100
AcDbBlockTableRecord
  2
BIN-CLUSTER-3
340
0
 70
0
280
1
281
0
  0
BLOCK_RECORD
  5
2EE
330
9
100
AcDbSymbolTableRecord
100
AcDbBlockTableRecord
  2
RECYCLING-STATION-3X1
340
0
 70
0
280
1
281
0
  0
BLOCK_RECORD
  5
2F2
330
9
100
AcDbSymbolTableRecord
100
AcDbBlockTableRecord
  2
SKIP-6M
340
0
 70
0
280
1
281
0
  0
BLOCK_RECORD
  5
2F6
330
9
100
AcDbSymbolTableRecord
100
AcDbBlockTableRecord
  2
CABIN-20FT
340
0
 70
0
280
1
281
0
  0
BLOCK_RECORD
  5
2FA
330
9
100
AcDbSymbolTableRecord
100
AcDbBlockTableRecord
  2
CABIN-40FT
340
0
 70
0
280
1
281
0
  0
BLOCK_RECORD
  5
2FE
330
9
100
AcDbSymbolTableRecord
100
AcDbBlockTableRecord
  2
OFFICE-CABIN-6X3
340
0
 70
0
280
1
281
0
  0
BLOCK_RECORD
  5
302
330
9
100
AcDbSymbolTableRecord
100
AcDbBlockTableRecord
  2
STORAGE-TENT-5X10
340
0
 70
0
280
1
281
0
  0
BLOCK_RECORD
  5
308
330
9
100
AcDbSymbolTableRecord
100
AcDbBlockTableRecord
  2
MEDIC-POINT-3X3
340
0
 70
0
280
1
281
0
  0
BLOCK_RECORD
  5
30C
330
9
100
AcDbSymbolTableRecord
100
AcDbBlockTableRecord
  2
AMBULANCE-BAY-6X3
340
0
 70
0
280
1
281
0
  0
BLOCK_RECORD
  5
310
330
9
100
AcDbSymbolTableRecord
100
AcDbBlockTableRecord
  2
FIRE-POINT
340
0
 70
0
280
1
281
0
  0
BLOCK_RECORD
  5
314
330
9
100
AcDbSymbolTableRecord
100
AcDbBlockTableRecord
  2
FORKLIFT-3X1.2
340
0
 70
0
280
1
281
0
  0
BLOCK_RECORD
  5
319
330
9
100
AcDbSymbolTableRecord
100
AcDbBlockTableRecord
  2
GOLF-BUGGY-3X1.2
340
0
 70
0
280
1
281
0
  0
BLOCK_RECORD
  5
31E
330
9
100
AcDbSymbolTableRecord
100
AcDbBlockTableRecord
  2
CAMERA-PLATFORM-3X3
340
0
 70
0
280
1
281
0
  0
BLOCK_RECORD
  5
322
330
9
100
AcDbSymbolTableRecord
100
AcDbBlockTableRecord
  2
COMMENTARY-BOOTH-4X2
340
0
 70
0
280
1
281
0
  0
BLOCK_RECORD
  5
326
330
9
100
AcDbSymbolTableRecord
100
AcDbBlockTableRecord
  2
PRESS-DESK-6X1
340
0
 70
0
280
1
281
0
  0
BLOCK_RECORD
  5
32A
330
9
100
AcDbSymbolTableRecord
100
AcDbBlockTableRecord
  2
MEDIA-CABIN-6X3
340
0
 70
0
280
1
281
0
  0
BLOCK_RECORD
  5
32E
330
9
100
AcDbSymbolTableRecord
100
AcDbBlockTableRecord
  2
MEDIA-TENT-10X10
340
0
 70
0
280
1
281
0
  0
BLOCK_RECORD
  5
334
330
9
100
AcDbSymbolTableRecord
100
AcDbBlockTableRecord
  2
OB-VAN-12X2.5
340
0
 70
0
280
1
281
0
  0
BLOCK_RECORD
  5
339
330
9
100
AcDbSymbolTableRecord
100
AcDbBlockTableRecord
  2
SATELLITE-DISH-3M
340
0
 70
0
280
1
281
0
  0
BLOCK_RECORD
  5
33F
330
9
100
AcDbSymbolTableRecord
100
AcDbBlockTableRecord
  2
PHOTO-POSITION-2X2
340
0
 70
0
280
1
281
0
  0
BLOCK_RECORD
  5
343
330
9
100
AcDbSymbolTableRecord
100
AcDbBlockTableRecord
  2
MIXED-ZONE-10X3
340
0
 70
0
280
1
281
0
  0
BLOCK_RECORD
  5
347
330
9
100
AcDbSymbolTableRecord
100
AcDbBlockTableRecord
  2
PRESS-CONF-TENT-10X8
340
0
 70
0
280
1
281
0
  0
BLOCK_RECORD
  5
34D
330
9
100
AcDbSymbolTableRecord
100
AcDbBlockTableRecord
  2
SPONSOR-BOOTH-3X3
340
0
 70
0
280
1
281
0
  0
BLOCK_RECORD
  5
351
330
9
100
AcDbSymbolTableRecord
100
AcDbBlockTableRecord
  2
SPONSOR-BOOTH-6X3
340
0
 70
0
280
1
281
0
  0
BLOCK_RECORD
  5
355
330
9
100
AcDbSymbolTableRecord
100
AcDbBlockTableRecord
  2
SPONSOR-PAVILION-10X10
340
0
 70
0
280
1
281
0
  0
BLOCK_RECORD
  5
35B
330
9
100
AcDbSymbolTableRecord
100
AcDbBlockTableRecord
  2
SPONSOR-ARCH-8M
340
0
 70
0
280
1
281
0
  0
BLOCK_RECORD
  5
360
330
9
100
AcDbSymbolTableRecord
100
AcDbBlockTableRecord
  2
TOTEM-1X0.5
340
0
 70
0
280
1
281
0
  0
BLOCK_RECORD
  5
364
330
9
100
AcDbSymbolTableRecord
100
AcDbBlockTableRecord
  2
FLAG-POLE
340
0
 70
0
280
1
281
0
  0
BLOCK_RECORD
  5
36A
330
9
100
AcDbSymbolTableRecord
100
AcDbBlockTableRecord
  2
BANNER-WALL-6M
340
0
 70
0
280
1
281
0
  0
BLOCK_RECORD
  5
36F
330
9
100
AcDbSymbolTableRecord
100
AcDbBlockTableRecord
  2
PHOTO-WALL-4M
340
0
 70
0
280
1
281
0
  0
BLOCK_RECORD
  5
374
330
9
100
AcDbSymbolTableRecord
100
AcDbBlockTableRecord
  2
MERCH-BOOTH-4X3
340
0
 70
0
280
1
281
0
  0
BLOCK_RECORD
  5
378
330
9
100
AcDbSymbolTableRecord
100
AcDbBlockTableRecord
  2
INFO-KIOSK-2X2
340
0
 70
0
280
1
281
0
  0
BLOCK_RECORD
  5
37C
330
9
100
AcDbSymbolTableRecord
100
AcDbBlockTableRecord
  2
ACTIVATION-POD-5X5
340
0
 70
0
280
1
281
0
  0
BLOCK_RECORD
  5
380
330
9
100
AcDbSymbolTableRecord
100
AcDbBlockTableRecord
  2
VR-POD-3X3
340
0
 70
0
280
1
281
0
  0
BLOCK_RECORD
  5
384
330
9
100
AcDbSymbolTableRecord
100
AcDbBlockTableRecord
  2
KIDS-ZONE-10X10
340
0
 70
0
280
1
281
0
  0
BLOCK_RECORD
  5
388
330
9
100
AcDbSymbolTableRecord
100
AcDbBlockTableRecord
  2
STAGE-MEET-GREET-6X4
340
0
 70
0
280
1
281
0
  0
BLOCK_RECORD
  5
38C
330
9
100
AcDbSymbolTableRecord
100
AcDbBlockTableRecord
  2
PONTOON-10X3
340
0
 70
0
280
1
281
0
  0
BLOCK_RECORD
  5
390
330
9
100
AcDbSymbolTableRecord
100
AcDbBlockTableRecord
  2
PONTOON-20X3
340
0
 70
0
280
1
281
0
  0
BLOCK_RECORD
  5
394
330
9
100
AcDbSymbolTableRecord
100
AcDbBlockTableRecord
  2
BOAT-CRADLE-6X3
340
0
 70
0
280
1
281
0
  0
BLOCK_RECORD
  5
398
330
9
100
AcDbSymbolTableRecord
100
AcDbBlockTableRecord
  2
BOAT-TENT-12X8
340
0
 70
0
280
1
281
0
  0
BLOCK_RECORD
  5
39E
330
9
100
AcDbSymbolTableRecord
100
AcDbBlockTableRecord
  2
CRANE-PAD-8X8
340
0
 70
0
280
1
281
0
  0
BLOCK_RECORD
  5
3A2
330
9
100
AcDbSymbolTableRecord
100
AcDbBlockTableRecord
  2
SLIPWAY-8X12
340
0
 70
0
280
1
281
0
  0
BLOCK_RECORD
  5
3A6
330
9
100
AcDbSymbolTableRecord
100
AcDbBlockTableRecord
  2
PIT-BAY-8X6
340
0
 70
0
280
1
281
0
  0
BLOCK_RECORD
  5
3AA
330
9
100
AcDbSymbolTableRecord
100
AcDbBlockTableRecord
  2
TEAM-TENT-10X10
340
0
 70
0
280
1
281
0
  0
BLOCK_RECORD
  5
3B0
330
9
100
AcDbSymbolTableRecord
100
AcDbBlockTableRecord
  2
SCRUTINEERING-BAY-6X6
340
0
 70
0
280
1
281
0
  0
BLOCK_RECORD
  5
3B4
330
9
100
AcDbSymbolTableRecord
100
AcDbBlockTableRecord
  2
RACE-CONTROL-6X4
340
0
 70
0
280
1
281
0
  0
BLOCK_RECORD
  5
3B8
330
9
100
AcDbSymbolTableRecord
100
AcDbBlockTableRecord
  2
PODIUM-6X4
340
0
 70
0
280
1
281
0
  0
BLOCK_RECORD
  5
3BC
330
9
100
AcDbSymbolTableRecord
100
AcDbBlockTableRecord
  2
START-GANTRY-12M
340
0
 70
0
280
1
281
0
  0
BLOCK_RECORD
  5
3C1
330
9
100
AcDbSymbolTableRecord
100
AcDbBlockTableRecord
  2
COURSE-MARKER-BUOY
340
0
 70
0
280
1
281
0
  0
BLOCK_RECORD
  5
3C7
330
9
100
AcDbSymbolTableRecord
100
AcDbBlockTableRecord
  2
PALM-4M
340
0
 70
0
280
1
281
0
  0
BLOCK_RECORD
  5
3CD
330
9
100
AcDbSymbolTableRecord
100
AcDbBlockTableRecord
  2
TREE-5M
340
0
 70
0
280
1
281
0
  0
BLOCK_RECORD
  5
3D3
330
9
100
AcDbSymbolTableRecord
100
AcDbBlockTableRecord
  2
PLANTER-1X1
340
0
 70
0
280
1
281
0
  0
BLOCK_RECORD
  5
3D7
330
9
100
AcDbSymbolTableRecord
100
AcDbBlockTableRecord
  2
PLANTER-BOX-2X0.6
340
0
 70
0
280
1
281
0
  0
BLOCK_RECORD
  5
3DB
330
9
100
AcDbSymbolTableRecord
100
AcDbBlockTableRecord
  2
TURF-AREA-10X10
340
0
 70
0
280
1
281
0
  0
BLOCK_RECORD
  5
3DF
330
9
100
AcDbSymbolTableRecord
100
AcDbBlockTableRecord
  2
GRAVEL-PATH-10X2
340
0
 70
0
280
1
281
0
  0
ENDTAB
  0
ENDSEC
  0
SECTION
  2
BLOCKS
  0
BLOCK
  5
18
330
17
100
AcDbEntity
  8
0
100
AcDbBlockBegin
  2
*Model_Space
 70
0
 10
0.0
 20
0.0
 30
0.0
  3
*Model_Space
  1

  0
ENDBLK
  5
19
330
17
100
AcDbEntity
  8
0
100
AcDbBlockEnd
  0
BLOCK
  5
1C
330
1B
100
AcDbEntity
  8
0
100
AcDbBlockBegin
  2
*Paper_Space
 70
0
 10
0.0
 20
0.0
 30
0.0
  3
*Paper_Space
  1

  0
ENDBLK
  5
1D
330
1B
100
AcDbEntity
  8
0
100
AcDbBlockEnd
  0
BLOCK
  5
75
330
74
100
AcDbEntity
  8
0
100
AcDbBlockBegin
  2
_ARCHTICK
 70
0
 10
0.0
 20
0.0
 30
0.0
  3
_ARCHTICK
  1

  0
LWPOLYLINE
  5
77
330
74
100
AcDbEntity
  8
0
  6
BYBLOCK
 62
0
100
AcDbPolyline
 90
2
 70
0
 43
0.15
 10
-0.5
 20
-0.5
 10
0.5
 20
0.5
  0
ENDBLK
  5
76
330
74
100
AcDbEntity
  8
0
100
AcDbBlockEnd
  0
BLOCK
  5
79
330
78
100
AcDbEntity
  8
0
100
AcDbBlockBegin
  2
_CLOSEDFILLED
 70
0
 10
0.0
 20
0.0
 30
0.0
  3
_CLOSEDFILLED
  1

  0
SOLID
  5
7B
330
78
100
AcDbEntity
  8
0
  6
BYBLOCK
 62
0
100
AcDbTrace
 10
-1.0
 20
0.16439898372402537
 30
0.0
 11
0.0
 21
0.0
 31
0.0
 12
-1.0
 22
-0.16439898372402537
 32
0.0
 13
-1.0
 23
-0.16439898372402537
 33
0.0
  0
ENDBLK
  5
7A
330
78
100
AcDbEntity
  8
0
100
AcDbBlockEnd
  0
BLOCK
  5
85
330
84
100
AcDbEntity
  8
0
100
AcDbBlockBegin
  2
_CLOSEDBLANK
 70
0
 10
0.0
 20
0.0
 30
0.0
  3
_CLOSEDBLANK
  1

  0
LWPOLYLINE
  5
87
330
84
100
AcDbEntity
  8
0
  6
BYBLOCK
 62
0
100
AcDbPolyline
 90
3
 70
1
 10
-1.0
 20
0.16439898372402537
 10
0.0
 20
0.0
 10
-1.0
 20
-0.16439898372402537
  0
ENDBLK
  5
86
330
84
100
AcDbEntity
  8
0
100
AcDbBlockEnd
  0
BLOCK
  5
8B
330
8A
100
AcDbEntity
  8
0
100
AcDbBlockBegin
  2
STAGE-6X4
 70
0
 10
0.0
 20
0.0
 30
0.0
  3
STAGE-6X4
  1

  0
LWPOLYLINE
  5
8D
330
8A
100
AcDbEntity
  8
0
100
AcDbPolyline
 90
4
 70
1
 10
-3.0
 20
-2.0
 10
3.0
 20
-2.0
 10
3.0
 20
2.0
 10
-3.0
 20
2.0
  0
ENDBLK
  5
8C
330
8A
100
AcDbEntity
  8
0
100
AcDbBlockEnd
  0
BLOCK
  5
8F
330
8E
100
AcDbEntity
  8
0
100
AcDbBlockBegin
  2
STAGE-8X6
 70
0
 10
0.0
 20
0.0
 30
0.0
  3
STAGE-8X6
  1

  0
LWPOLYLINE
  5
91
330
8E
100
AcDbEntity
  8
0
100
AcDbPolyline
 90
4
 70
1
 10
-4.0
 20
-3.0
 10
4.0
 20
-3.0
 10
4.0
 20
3.0
 10
-4.0
 20
3.0
  0
ENDBLK
  5
90
330
8E
100
AcDbEntity
  8
0
100
AcDbBlockEnd
  0
BLOCK
  5
93
330
92
100
AcDbEntity
  8
0
100
AcDbBlockBegin
  2
STAGE-12X8
 70
0
 10
0.0
 20
0.0
 30
0.0
  3
STAGE-12X8
  1

  0
LWPOLYLINE
  5
95
330
92
100
AcDbEntity
  8
0
100
AcDbPolyline
 90
4
 70
1
 10
-6.0
 20
-4.0
 10
6.0
 20
-4.0
 10
6.0
 20
4.0
 10
-6.0
 20
4.0
  0
ENDBLK
  5
94
330
92
100
AcDbEntity
  8
0
100
AcDbBlockEnd
  0
BLOCK
  5
97
330
96
100
AcDbEntity
  8
0
100
AcDbBlockBegin
  2
STAGE-16X10
 70
0
 10
0.0
 20
0.0
 30
0.0
  3
STAGE-16X10
  1

  0
LWPOLYLINE
  5
99
330
96
100
AcDbEntity
  8
0
100
AcDbPolyline
 90
4
 70
1
 10
-8.0
 20
-5.0
 10
8.0
 20
-5.0
 10
8.0
 20
5.0
 10
-8.0
 20
5.0
  0
ENDBLK
  5
98
330
96
100
AcDbEntity
  8
0
100
AcDbBlockEnd
  0
BLOCK
  5
9B
330
9A
100
AcDbEntity
  8
0
100
AcDbBlockBegin
  2
STAGE-20X12
 70
0
 10
0.0
 20
0.0
 30
0.0
  3
STAGE-20X12
  1

  0
LWPOLYLINE
  5
9D
330
9A
100
AcDbEntity
  8
0
100
AcDbPolyline
 90
4
 70
1
 10
-10.0
 20
-6.0
 10
10.0
 20
-6.0
 10
10.0
 20
6.0
 10
-10.0
 20
6.0
  0
ENDBLK
  5
9C
330
9A
100
AcDbEntity
  8
0
100
AcDbBlockEnd
  0
BLOCK
  5
9F
330
9E
100
AcDbEntity
  8
0
100
AcDbBlockBegin
  2
STAGE-ROUND-8M
 70
0
 10
0.0
 20
0.0
 30
0.0
  3
STAGE-ROUND-8M
  1

  0
CIRCLE
  5
A1
330
9E
100
AcDbEntity
  8
0
100
AcDbCircle
 10
0.0
 20
0.0
 30
0.0
 40
4.0
  0
LINE
  5
A2
330
9E
100
AcDbEntity
  8
0
100
AcDbLine
 10
-4.0
 20
0.0
 30
0.0
 11
4.0
 21
0.0
 31
0.0
  0
LINE
  5
A3
330
9E
100
AcDbEntity
  8
0
100
AcDbLine
 10
0.0
 20
-4.0
 30
0.0
 11
0.0
 21
4.0
 31
0.0
  0
ENDBLK
  5
A0
330
9E
100
AcDbEntity
  8
0
100
AcDbBlockEnd
  0
BLOCK
  5
A5
330
A4
100
AcDbEntity
  8
0
100
AcDbBlockBegin
  2
STAGE-ROOF-12X8
 70
0
 10
0.0
 20
0.0
 30
0.0
  3
STAGE-ROOF-12X8
  1

  0
LWPOLYLINE
  5
A7
330
A4
100
AcDbEntity
  8
0
100
AcDbPolyline
 90
4
 70
1
 10
-6.0
 20
-4.0
 10
6.0
 20
-4.0
 10
6.0
 20
4.0
 10
-6.0
 20
4.0
  0
LINE
  5
A8
330
A4
100
AcDbEntity
  8
0
100
AcDbLine
 10
-6.0
 20
-4.0
 30
0.0
 11
6.0
 21
4.0
 31
0.0
  0
LINE
  5
A9
330
A4
100
AcDbEntity
  8
0
100
AcDbLine
 10
-6.0
 20
4.0
 30
0.0
 11
6.0
 21
-4.0
 31
0.0
  0
ENDBLK
  5
A6
330
A4
100
AcDbEntity
  8
0
100
AcDbBlockEnd
  0
BLOCK
  5
AB
330
AA
100
AcDbEntity
  8
0
100
AcDbBlockBegin
  2
STAGE-BACKDROP-8M
 70
0
 10
0.0
 20
0.0
 30
0.0
  3
STAGE-BACKDROP-8M
  1

  0
LWPOLYLINE
  5
AD
330
AA
100
AcDbEntity
  8
0
100
AcDbPolyline
 90
4
 70
1
 10
-4.0
 20
-0.3
 10
4.0
 20
-0.3
 10
4.0
 20
0.3
 10
-4.0
 20
0.3
  0
LINE
  5
AE
330
AA
100
AcDbEntity
  8
0
100
AcDbLine
 10
-4.0
 20
0.0
 30
0.0
 11
4.0
 21
0.0
 31
0.0
  0
ENDBLK
  5
AC
330
AA
100
AcDbEntity
  8
0
100
AcDbBlockEnd
  0
BLOCK
  5
B0
330
AF
100
AcDbEntity
  8
0
100
AcDbBlockBegin
  2
DJ-BOOTH-4X2
 70
0
 10
0.0
 20
0.0
 30
0.0
  3
DJ-BOOTH-4X2
  1

  0
LWPOLYLINE
  5
B2
330
AF
100
AcDbEntity
  8
0
100
AcDbPolyline
 90
4
 70
1
 10
-2.0
 20
-1.0
 10
2.0
 20
-1.0
 10
2.0
 20
1.0
 10
-2.0
 20
1.0
  0
ENDBLK
  5
B1
330
AF
100
AcDbEntity
  8
0
100
AcDbBlockEnd
  0
BLOCK
  5
B4
330
B3
100
AcDbEntity
  8
0
100
AcDbBlockBegin
  2
RISER-2X1
 70
0
 10
0.0
 20
0.0
 30
0.0
  3
RISER-2X1
  1

  0
LWPOLYLINE
  5
B6
330
B3
100
AcDbEntity
  8
0
100
AcDbPolyline
 90
4
 70
1
 10
-1.0
 20
-0.5
 10
1.0
 20
-0.5
 10
1.0
 20
0.5
 10
-1.0
 20
0.5
  0
ENDBLK
  5
B5
330
B3
100
AcDbEntity
  8
0
100
AcDbBlockEnd
  0
BLOCK
  5
B8
330
B7
100
AcDbEntity
  8
0
100
AcDbBlockBegin
  2
LED-SCREEN-6X4
 70
0
 10
0.0
 20
0.0
 30
0.0
  3
LED-SCREEN-6X4
  1

  0
LWPOLYLINE
  5
BA
330
B7
100
AcDbEntity
  8
0
100
AcDbPolyline
 90
4
 70
1
 10
-3.0
 20
-0.4
 10
3.0
 20
-0.4
 10
3.0
 20
0.4
 10
-3.0
 20
0.4
  0
LINE
  5
BB
330
B7
100
AcDbEntity
  8
0
100
AcDbLine
 10
-3.0
 20
0.0
 30
0.0
 11
3.0
 21
0.0
 31
0.0
  0
ENDBLK
  5
B9
330
B7
100
AcDbEntity
  8
0
100
AcDbBlockEnd
  0
BLOCK
  5
BD
330
BC
100
AcDbEntity
  8
0
100
AcDbBlockBegin
  2
LED-SCREEN-10X6
 70
0
 10
0.0
 20
0.0
 30
0.0
  3
LED-SCREEN-10X6
  1

  0
LWPOLYLINE
  5
BF
330
BC
100
AcDbEntity
  8
0
100
AcDbPolyline
 90
4
 70
1
 10
-5.0
 20
-0.5
 10
5.0
 20
-0.5
 10
5.0
 20
0.5
 10
-5.0
 20
0.5
  0
LINE
  5
C0
330
BC
100
AcDbEntity
  8
0
100
AcDbLine
 10
-5.0
 20
0.0
 30
0.0
 11
5.0
 21
0.0
 31
0.0
  0
ENDBLK
  5
BE
330
BC
100
AcDbEntity
  8
0
100
AcDbBlockEnd
  0
BLOCK
  5
C2
330
C1
100
AcDbEntity
  8
0
100
AcDbBlockBegin
  2
LED-SCREEN-16X9
 70
0
 10
0.0
 20
0.0
 30
0.0
  3
LED-SCREEN-16X9
  1

  0
LWPOLYLINE
  5
C4
330
C1
100
AcDbEntity
  8
0
100
AcDbPolyline
 90
4
 70
1
 10
-8.0
 20
-0.6
 10
8.0
 20
-0.6
 10
8.0
 20
0.6
 10
-8.0
 20
0.6
  0
LINE
  5
C5
330
C1
100
AcDbEntity
  8
0
100
AcDbLine
 10
-8.0
 20
0.0
 30
0.0
 11
8.0
 21
0.0
 31
0.0
  0
ENDBLK
  5
C3
330
C1
100
AcDbEntity
  8
0
100
AcDbBlockEnd
  0
BLOCK
  5
C7
330
C6
100
AcDbEntity
  8
0
100
AcDbBlockBegin
  2
SPEAKER-STACK
 70
0
 10
0.0
 20
0.0
 30
0.0
  3
SPEAKER-STACK
  1

  0
LWPOLYLINE
  5
C9
330
C6
100
AcDbEntity
  8
0
100
AcDbPolyline
 90
4
 70
1
 10
-0.6
 20
-0.6
 10
0.6
 20
-0.6
 10
0.6
 20
0.6
 10
-0.6
 20
0.6
  0
ENDBLK
  5
C8
330
C6
100
AcDbEntity
  8
0
100
AcDbBlockEnd
  0
BLOCK
  5
CB
330
CA
100
AcDbEntity
  8
0
100
AcDbBlockBegin
  2
DELAY-TOWER
 70
0
 10
0.0
 20
0.0
 30
0.0
  3
DELAY-TOWER
  1

  0
LWPOLYLINE
  5
CD
330
CA
100
AcDbEntity
  8
0
100
AcDbPolyline
 90
4
 70
1
 10
-1.0
 20
-1.0
 10
1.0
 20
-1.0
 10
1.0
 20
1.0
 10
-1.0
 20
1.0
  0
LINE
  5
CE
330
CA
100
AcDbEntity
  8
0
100
AcDbLine
 10
-1.0
 20
-1.0
 30
0.0
 11
1.0
 21
1.0
 31
0.0
  0
LINE
  5
CF
330
CA
100
AcDbEntity
  8
0
100
AcDbLine
 10
-1.0
 20
1.0
 30
0.0
 11
1.0
 21
-1.0
 31
0.0
  0
ENDBLK
  5
CC
330
CA
100
AcDbEntity
  8
0
100
AcDbBlockEnd
  0
BLOCK
  5
D1
330
D0
100
AcDbEntity
  8
0
100
AcDbBlockBegin
  2
LIGHTING-TOWER
 70
0
 10
0.0
 20
0.0
 30
0.0
  3
LIGHTING-TOWER
  1

  0
LWPOLYLINE
  5
D3
330
D0
100
AcDbEntity
  8
0
100
AcDbPolyline
 90
4
 70
1
 10
-1.25
 20
-1.25
 10
1.25
 20
-1.25
 10
1.25
 20
1.25
 10
-1.25
 20
1.25
  0
LINE
  5
D4
330
D0
100
AcDbEntity
  8
0
100
AcDbLine
 10
-1.25
 20
-1.25
 30
0.0
 11
1.25
 21
1.25
 31
0.0
  0
LINE
  5
D5
330
D0
100
AcDbEntity
  8
0
100
AcDbLine
 10
-1.25
 20
1.25
 30
0.0
 11
1.25
 21
-1.25
 31
0.0
  0
ENDBLK
  5
D2
330
D0
100
AcDbEntity
  8
0
100
AcDbBlockEnd
  0
BLOCK
  5
D7
330
D6
100
AcDbEntity
  8
0
100
AcDbBlockBegin
  2
FOH-CONTROL-6X3
 70
0
 10
0.0
 20
0.0
 30
0.0
  3
FOH-CONTROL-6X3
  1

  0
LWPOLYLINE
  5
D9
330
D6
100
AcDbEntity
  8
0
100
AcDbPolyline
 90
4
 70
1
 10
-3.0
 20
-1.5
 10
3.0
 20
-1.5
 10
3.0
 20
1.5
 10
-3.0
 20
1.5
  0
ENDBLK
  5
D8
330
D6
100
AcDbEntity
  8
0
100
AcDbBlockEnd
  0
BLOCK
  5
DB
330
DA
100
AcDbEntity
  8
0
100
AcDbBlockBegin
  2
PYRO-POSITION
 70
0
 10
0.0
 20
0.0
 30
0.0
  3
PYRO-POSITION
  1

  0
LWPOLYLINE
  5
DD
330
DA
100
AcDbEntity
  8
0
100
AcDbPolyline
 90
4
 70
1
 10
-0.75
 20
-0.75
 10
0.75
 20
-0.75
 10
0.75
 20
0.75
 10
-0.75
 20
0.75
  0
ENDBLK
  5
DC
330
DA
100
AcDbEntity
  8
0
100
AcDbBlockEnd
  0
BLOCK
  5
DF
330
DE
100
AcDbEntity
  8
0
100
AcDbBlockBegin
  2
GRANDSTAND-10X5-100PAX
 70
0
 10
0.0
 20
0.0
 30
0.0
  3
GRANDSTAND-10X5-100PAX
  1

  0
LWPOLYLINE
  5
E1
330
DE
100
AcDbEntity
  8
0
100
AcDbPolyline
 90
4
 70
1
 10
-5.0
 20
-2.5
 10
5.0
 20
-2.5
 10
5.0
 20
2.5
 10
-5.0
 20
2.5
  0
LINE
  5
E2
330
DE
100
AcDbEntity
  8
0
100
AcDbLine
 10
-5.0
 20
-1.5
 30
0.0
 11
5.0
 21
-1.5
 31
0.0
  0
LINE
  5
E3
330
DE
100
AcDbEntity
  8
0
100
AcDbLine
 10
-5.0
 20
-0.5
 30
0.0
 11
5.0
 21
-0.5
 31
0.0
  0
LINE
  5
E4
330
DE
100
AcDbEntity
  8
0
100
AcDbLine
 10
-5.0
 20
0.5
 30
0.0
 11
5.0
 21
0.5
 31
0.0
  0
LINE
  5
E5
330
DE
100
AcDbEntity
  8
0
100
AcDbLine
 10
-5.0
 20
1.5
 30
0.0
 11
5.0
 21
1.5
 31
0.0
  0
ENDBLK
  5
E0
330
DE
100
AcDbEntity
  8
0
100
AcDbBlockEnd
  0
BLOCK
  5
E7
330
E6
100
AcDbEntity
  8
0
100
AcDbBlockBegin
  2
GRANDSTAND-20X8-300PAX
 70
0
 10
0.0
 20
0.0
 30
0.0
  3
GRANDSTAND-20X8-300PAX
  1

  0
LWPOLYLINE
  5
E9
330
E6
100
AcDbEntity
  8
0
100
AcDbPolyline
 90
4
 70
1
 10
-10.0
 20
-4.0
 10
10.0
 20
-4.0
 10
10.0
 20
4.0
 10
-10.0
 20
4.0
  0
LINE
  5
EA
330
E6
100
AcDbEntity
  8
0
100
AcDbLine
 10
-10.0
 20
-3.0
 30
0.0
 11
10.0
 21
-3.0
 31
0.0
  0
LINE
  5
EB
330
E6
100
AcDbEntity
  8
0
100
AcDbLine
 10
-10.0
 20
-2.0
 30
0.0
 11
10.0
 21
-2.0
 31
0.0
  0
LINE
  5
EC
330
E6
100
AcDbEntity
  8
0
100
AcDbLine
 10
-10.0
 20
-1.0
 30
0.0
 11
10.0
 21
-1.0
 31
0.0
  0
LINE
  5
ED
330
E6
100
AcDbEntity
  8
0
100
AcDbLine
 10
-10.0
 20
0.0
 30
0.0
 11
10.0
 21
0.0
 31
0.0
  0
LINE
  5
EE
330
E6
100
AcDbEntity
  8
0
100
AcDbLine
 10
-10.0
 20
1.0
 30
0.0
 11
10.0
 21
1.0
 31
0.0
  0
LINE
  5
EF
330
E6
100
AcDbEntity
  8
0
100
AcDbLine
 10
-10.0
 20
2.0
 30
0.0
 11
10.0
 21
2.0
 31
0.0
  0
LINE
  5
F0
330
E6
100
AcDbEntity
  8
0
100
AcDbLine
 10
-10.0
 20
3.0
 30
0.0
 11
10.0
 21
3.0
 31
0.0
  0
ENDBLK
  5
E8
330
E6
100
AcDbEntity
  8
0
100
AcDbBlockEnd
  0
BLOCK
  5
F2
330
F1
100
AcDbEntity
  8
0
100
AcDbBlockBegin
  2
GRANDSTAND-30X10-500PAX
 70
0
 10
0.0
 20
0.0
 30
0.0
  3
GRANDSTAND-30X10-500PAX
  1

  0
LWPOLYLINE
  5
F4
330
F1
100
AcDbEntity
  8
0
100
AcDbPolyline
 90
4
 70
1
 10
-15.0
 20
-5.0
 10
15.0
 20
-5.0
 10
15.0
 20
5.0
 10
-15.0
 20
5.0
  0
LINE
  5
F5
330
F1
100
AcDbEntity
  8
0
100
AcDbLine
 10
-15.0
 20
-4.090909090909091
 30
0.0
 11
15.0
 21
-4.090909090909091
 31
0.0
  0
LINE
  5
F6
330
F1
100
AcDbEntity
  8
0
100
AcDbLine
 10
-15.0
 20
-3.1818181818181817
 30
0.0
 11
15.0
 21
-3.1818181818181817
 31
0.0
  0
LINE
  5
F7
330
F1
100
AcDbEntity
  8
0
100
AcDbLine
 10
-15.0
 20
-2.272727272727273
 30
0.0
 11
15.0
 21
-2.272727272727273
 31
0.0
  0
LINE
  5
F8
330
F1
100
AcDbEntity
  8
0
100
AcDbLine
 10
-15.0
 20
-1.3636363636363638
 30
0.0
 11
15.0
 21
-1.3636363636363638
 31
0.0
  0
LINE
  5
F9
330
F1
100
AcDbEntity
  8
0
100
AcDbLine
 10
-15.0
 20
-0.45454545454545503
 30
0.0
 11
15.0
 21
-0.45454545454545503
 31
0.0
  0
LINE
  5
FA
330
F1
100
AcDbEntity
  8
0
100
AcDbLine
 10
-15.0
 20
0.45454545454545414
 30
0.0
 11
15.0
 21
0.45454545454545414
 31
0.0
  0
LINE
  5
FB
330
F1
100
AcDbEntity
  8
0
100
AcDbLine
 10
-15.0
 20
1.3636363636363633
 30
0.0
 11
15.0
 21
1.3636363636363633
 31
0.0
  0
LINE
  5
FC
330
F1
100
AcDbEntity
  8
0
100
AcDbLine
 10
-15.0
 20
2.2727272727272725
 30
0.0
 11
15.0
 21
2.2727272727272725
 31
0.0
  0
LINE
  5
FD
330
F1
100
AcDbEntity
  8
0
100
AcDbLine
 10
-15.0
 20
3.1818181818181817
 30
0.0
 11
15.0
 21
3.1818181818181817
 31
0.0
  0
LINE
  5
FE
330
F1
100
AcDbEntity
  8
0
100
AcDbLine
 10
-15.0
 20
4.09090909090909
 30
0.0
 11
15.0
 21
4.09090909090909
 31
0.0
  0
ENDBLK
  5
F3
330
F1
100
AcDbEntity
  8
0
100
AcDbBlockEnd
  0
BLOCK
  5
100
330
FF
100
AcDbEntity
  8
0
100
AcDbBlockBegin
  2
BLEACHER-6X3
 70
0
 10
0.0
 20
0.0
 30
0.0
  3
BLEACHER-6X3
  1

  0
LWPOLYLINE
  5
102
330
FF
100
AcDbEntity
  8
0
100
AcDbPolyline
 90
4
 70
1
 10
-3.0
 20
-1.5
 10
3.0
 20
-1.5
 10
3.0
 20
1.5
 10
-3.0
 20
1.5
  0
LINE
  5
103
330
FF
100
AcDbEntity
  8
0
100
AcDbLine
 10
-3.0
 20
-0.5
 30
0.0
 11
3.0
 21
-0.5
 31
0.0
  0
LINE
  5
104
330
FF
100
AcDbEntity
  8
0
100
AcDbLine
 10
-3.0
 20
0.5
 30
0.0
 11
3.0
 21
0.5
 31
0.0
  0
ENDBLK
  5
101
330
FF
100
AcDbEntity
  8
0
100
AcDbBlockEnd
  0
BLOCK
  5
106
330
105
100
AcDbEntity
  8
0
100
AcDbBlockBegin
  2
VIEWING-DECK-10X6
 70
0
 10
0.0
 20
0.0
 30
0.0
  3
VIEWING-DECK-10X6
  1

  0
LWPOLYLINE
  5
108
330
105
100
AcDbEntity
  8
0
100
AcDbPolyline
 90
4
 70
1
 10
-5.0
 20
-3.0
 10
5.0
 20
-3.0
 10
5.0
 20
3.0
 10
-5.0
 20
3.0
  0
ENDBLK
  5
107
330
105
100
AcDbEntity
  8
0
100
AcDbBlockEnd
  0
BLOCK
  5
10A
330
109
100
AcDbEntity
  8
0
100
AcDbBlockBegin
  2
SEATING-ROW-10PAX
 70
0
 10
0.0
 20
0.0
 30
0.0
  3
SEATING-ROW-10PAX
  1

  0
LWPOLYLINE
  5
10C
330
109
100
AcDbEntity
  8
0
100
AcDbPolyline
 90
4
 70
1
 10
-2.75
 20
-0.3
 10
2.75
 20
-0.3
 10
2.75
 20
0.3
 10
-2.75
 20
0.3
  0
LINE
  5
10D
330
109
100
AcDbEntity
  8
0
100
AcDbLine
 10
-2.75
 20
0.0
 30
0.0
 11
2.75
 21
0.0
 31
0.0
  0
ENDBLK
  5
10B
330
109
100
AcDbEntity
  8
0
100
AcDbBlockEnd
  0
BLOCK
  5
10F
330
10E
100
AcDbEntity
  8
0
100
AcDbBlockBegin
  2
SEATING-BLOCK-8X6
 70
0
 10
0.0
 20
0.0
 30
0.0
  3
SEATING-BLOCK-8X6
  1

  0
LWPOLYLINE
  5
111
330
10E
100
AcDbEntity
  8
0
100
AcDbPolyline
 90
4
 70
1
 10
-4.0
 20
-3.0
 10
4.0
 20
-3.0
 10
4.0
 20
3.0
 10
-4.0
 20
3.0
  0
LINE
  5
112
330
10E
100
AcDbEntity
  8
0
100
AcDbLine
 10
-4.0
 20
-2.0
 30
0.0
 11
4.0
 21
-2.0
 31
0.0
  0
LINE
  5
113
330
10E
100
AcDbEntity
  8
0
100
AcDbLine
 10
-4.0
 20
-1.0
 30
0.0
 11
4.0
 21
-1.0
 31
0.0
  0
LINE
  5
114
330
10E
100
AcDbEntity
  8
0
100
AcDbLine
 10
-4.0
 20
0.0
 30
0.0
 11
4.0
 21
0.0
 31
0.0
  0
LINE
  5
115
330
10E
100
AcDbEntity
  8
0
100
AcDbLine
 10
-4.0
 20
1.0
 30
0.0
 11
4.0
 21
1.0
 31
0.0
  0
LINE
  5
116
330
10E
100
AcDbEntity
  8
0
100
AcDbLine
 10
-4.0
 20
2.0
 30
0.0
 11
4.0
 21
2.0
 31
0.0
  0
ENDBLK
  5
110
330
10E
100
AcDbEntity
  8
0
100
AcDbBlockEnd
  0
BLOCK
  5
118
330
117
100
AcDbEntity
  8
0
100
AcDbBlockBegin
  2
CHAIR
 70
0
 10
0.0
 20
0.0
 30
0.0
  3
CHAIR
  1

  0
LWPOLYLINE
  5
11A
330
117
100
AcDbEntity
  8
0
100
AcDbPolyline
 90
4
 70
1
 10
-0.25
 20
-0.25
 10
0.25
 20
-0.25
 10
0.25
 20
0.25
 10
-0.25
 20
0.25
  0
ENDBLK
  5
119
330
117
100
AcDbEntity
  8
0
100
AcDbBlockEnd
  0
BLOCK
  5
11C
330
11B
100
AcDbEntity
  8
0
100
AcDbBlockBegin
  2
BENCH-2M
 70
0
 10
0.0
 20
0.0
 30
0.0
  3
BENCH-2M
  1

  0
LWPOLYLINE
  5
11E
330
11B
100
AcDbEntity
  8
0
100
AcDbPolyline
 90
4
 70
1
 10
-1.0
 20
-0.25
 10
1.0
 20
-0.25
 10
1.0
 20
0.25
 10
-1.0
 20
0.25
  0
ENDBLK
  5
11D
330
11B
100
AcDbEntity
  8
0
100
AcDbBlockEnd
  0
BLOCK
  5
120
330
11F
100
AcDbEntity
  8
0
100
AcDbBlockBegin
  2
BENCH-3M
 70
0
 10
0.0
 20
0.0
 30
0.0
  3
BENCH-3M
  1

  0
LWPOLYLINE
  5
122
330
11F
100
AcDbEntity
  8
0
100
AcDbPolyline
 90
4
 70
1
 10
-1.5
 20
-0.25
 10
1.5
 20
-0.25
 10
1.5
 20
0.25
 10
-1.5
 20
0.25
  0
ENDBLK
  5
121
330
11F
100
AcDbEntity
  8
0
100
AcDbBlockEnd
  0
BLOCK
  5
124
330
123
100
AcDbEntity
  8
0
100
AcDbBlockBegin
  2
BEANBAG
 70
0
 10
0.0
 20
0.0
 30
0.0
  3
BEANBAG
  1

  0
CIRCLE
  5
126
330
123
100
AcDbEntity
  8
0
100
AcDbCircle
 10
0.0
 20
0.0
 30
0.0
 40
0.4
  0
LINE
  5
127
330
123
100
AcDbEntity
  8
0
100
AcDbLine
 10
-0.5
 20
0.0
 30
0.0
 11
0.5
 21
0.0
 31
0.0
  0
LINE
  5
128
330
123
100
AcDbEntity
  8
0
100
AcDbLine
 10
0.0
 20
-0.4
 30
0.0
 11
0.0
 21
0.4
 31
0.0
  0
ENDBLK
  5
125
330
123
100
AcDbEntity
  8
0
100
AcDbBlockEnd
  0
BLOCK
  5
12A
330
129
100
AcDbEntity
  8
0
100
AcDbBlockBegin
  2
LOUNGE-SOFA-2M
 70
0
 10
0.0
 20
0.0
 30
0.0
  3
LOUNGE-SOFA-2M
  1

  0
LWPOLYLINE
  5
12C
330
129
100
AcDbEntity
  8
0
100
AcDbPolyline
 90
4
 70
1
 10
-1.0
 20
-0.45
 10
1.0
 20
-0.45
 10
1.0
 20
0.45
 10
-1.0
 20
0.45
  0
ENDBLK
  5
12B
330
129
100
AcDbEntity
  8
0
100
AcDbBlockEnd
  0
BLOCK
  5
12E
330
12D
100
AcDbEntity
  8
0
100
AcDbBlockBegin
  2
LOUNGE-ARMCHAIR
 70
0
 10
0.0
 20
0.0
 30
0.0
  3
LOUNGE-ARMCHAIR
  1

  0
LWPOLYLINE
  5
130
330
12D
100
AcDbEntity
  8
0
100
AcDbPolyline
 90
4
 70
1
 10
-0.45
 20
-0.45
 10
0.45
 20
-0.45
 10
0.45
 20
0.45
 10
-0.45
 20
0.45
  0
ENDBLK
  5
12F
330
12D
100
AcDbEntity
  8
0
100
AcDbBlockEnd
  0
BLOCK
  5
132
330
131
100
AcDbEntity
  8
0
100
AcDbBlockBegin
  2
TABLE-ROUND-1.8M-10PAX
 70
0
 10
0.0
 20
0.0
 30
0.0
  3
TABLE-ROUND-1.8M-10PAX
  1

  0
CIRCLE
  5
134
330
131
100
AcDbEntity
  8
0
100
AcDbCircle
 10
0.0
 20
0.0
 30
0.0
 40
0.9
  0
LINE
  5
135
330
131
100
AcDbEntity
  8
0
100
AcDbLine
 10
-0.9
 20
0.0
 30
0.0
 11
0.9
 21
0.0
 31
0.0
  0
LINE
  5
136
330
131
100
AcDbEntity
  8
0
100
AcDbLine
 10
0.0
 20
-0.9
 30
0.0
 11
0.0
 21
0.9
 31
0.0
  0
ENDBLK
  5
133
330
131
100
AcDbEntity
  8
0
100
AcDbBlockEnd
  0
BLOCK
  5
138
330
137
100
AcDbEntity
  8
0
100
AcDbBlockBegin
  2
TABLE-ROUND-1.5M-8PAX
 70
0
 10
0.0
 20
0.0
 30
0.0
  3
TABLE-ROUND-1.5M-8PAX
  1

  0
CIRCLE
  5
13A
330
137
100
AcDbEntity
  8
0
100
AcDbCircle
 10
0.0
 20
0.0
 30
0.0
 40
0.75
  0
LINE
  5
13B
330
137
100
AcDbEntity
  8
0
100
AcDbLine
 10
-0.75
 20
0.0
 30
0.0
 11
0.75
 21
0.0
 31
0.0
  0
LINE
  5
13C
330
137
100
AcDbEntity
  8
0
100
AcDbLine
 10
0.0
 20
-0.75
 30
0.0
 11
0.0
 21
0.75
 31
0.0
  0
ENDBLK
  5
139
330
137
100
AcDbEntity
  8
0
100
AcDbBlockEnd
  0
BLOCK
  5
13E
330
13D
100
AcDbEntity
  8
0
100
AcDbBlockBegin
  2
TABLE-RECT-1.8X0.8
 70
0
 10
0.0
 20
0.0
 30
0.0
  3
TABLE-RECT-1.8X0.8
  1

  0
LWPOLYLINE
  5
140
330
13D
100
AcDbEntity
  8
0
100
AcDbPolyline
 90
4
 70
1
 10
-0.9
 20
-0.4
 10
0.9
 20
-0.4
 10
0.9
 20
0.4
 10
-0.9
 20
0.4
  0
ENDBLK
  5
13F
330
13D
100
AcDbEntity
  8
0
100
AcDbBlockEnd
  0
BLOCK
  5
142
330
141
100
AcDbEntity
  8
0
100
AcDbBlockBegin
  2
TABLE-COCKTAIL-0.6M
 70
0
 10
0.0
 20
0.0
 30
0.0
  3
TABLE-COCKTAIL-0.6M
  1

  0
CIRCLE
  5
144
330
141
100
AcDbEntity
  8
0
100
AcDbCircle
 10
0.0
 20
0.0
 30
0.0
 40
0.3
  0
LINE
  5
145
330
141
100
AcDbEntity
  8
0
100
AcDbLine
 10
-0.3
 20
0.0
 30
0.0
 11
0.3
 21
0.0
 31
0.0
  0
LINE
  5
146
330
141
100
AcDbEntity
  8
0
100
AcDbLine
 10
0.0
 20
-0.3
 30
0.0
 11
0.0
 21
0.3
 31
0.0
  0
ENDBLK
  5
143
330
141
100
AcDbEntity
  8
0
100
AcDbBlockEnd
  0
BLOCK
  5
148
330
147
100
AcDbEntity
  8
0
100
AcDbBlockBegin
  2
STOOL
 70
0
 10
0.0
 20
0.0
 30
0.0
  3
STOOL
  1

  0
CIRCLE
  5
14A
330
147
100
AcDbEntity
  8
0
100
AcDbCircle
 10
0.0
 20
0.0
 30
0.0
 40
0.2
  0
LINE
  5
14B
330
147
100
AcDbEntity
  8
0
100
AcDbLine
 10
-0.2
 20
0.0
 30
0.0
 11
0.2
 21
0.0
 31
0.0
  0
LINE
  5
14C
330
147
100
AcDbEntity
  8
0
100
AcDbLine
 10
0.0
 20
-0.2
 30
0.0
 11
0.0
 21
0.2
 31
0.0
  0
ENDBLK
  5
149
330
147
100
AcDbEntity
  8
0
100
AcDbBlockEnd
  0
BLOCK
  5
14E
330
14D
100
AcDbEntity
  8
0
100
AcDbBlockBegin
  2
PICNIC-TABLE-2.2X1.5
 70
0
 10
0.0
 20
0.0
 30
0.0
  3
PICNIC-TABLE-2.2X1.5
  1

  0
LWPOLYLINE
  5
150
330
14D
100
AcDbEntity
  8
0
100
AcDbPolyline
 90
4
 70
1
 10
-1.1
 20
-0.75
 10
1.1
 20
-0.75
 10
1.1
 20
0.75
 10
-1.1
 20
0.75
  0
ENDBLK
  5
14F
330
14D
100
AcDbEntity
  8
0
100
AcDbBlockEnd
  0
BLOCK
  5
152
330
151
100
AcDbEntity
  8
0
100
AcDbBlockBegin
  2
SHADE-SAIL-6X6
 70
0
 10
0.0
 20
0.0
 30
0.0
  3
SHADE-SAIL-6X6
  1

  0
LWPOLYLINE
  5
154
330
151
100
AcDbEntity
  8
0
100
AcDbPolyline
 90
4
 70
1
 10
-3.0
 20
-3.0
 10
3.0
 20
-3.0
 10
3.0
 20
3.0
 10
-3.0
 20
3.0
  0
LINE
  5
155
330
151
100
AcDbEntity
  8
0
100
AcDbLine
 10
-3.0
 20
-3.0
 30
0.0
 11
3.0
 21
3.0
 31
0.0
  0
LINE
  5
156
330
151
100
AcDbEntity
  8
0
100
AcDbLine
 10
-3.0
 20
3.0
 30
0.0
 11
3.0
 21
-3.0
 31
0.0
  0
ENDBLK
  5
153
330
151
100
AcDbEntity
  8
0
100
AcDbBlockEnd
  0
BLOCK
  5
158
330
157
100
AcDbEntity
  8
0
100
AcDbBlockBegin
  2
SHADE-SAIL-10X10
 70
0
 10
0.0
 20
0.0
 30
0.0
  3
SHADE-SAIL-10X10
  1

  0
LWPOLYLINE
  5
15A
330
157
100
AcDbEntity
  8
0
100
AcDbPolyline
 90
4
 70
1
 10
-5.0
 20
-5.0
 10
5.0
 20
-5.0
 10
5.0
 20
5.0
 10
-5.0
 20
5.0
  0
LINE
  5
15B
330
157
100
AcDbEntity
  8
0
100
AcDbLine
 10
-5.0
 20
-5.0
 30
0.0
 11
5.0
 21
5.0
 31
0.0
  0
LINE
  5
15C
330
157
100
AcDbEntity
  8
0
100
AcDbLine
 10
-5.0
 20
5.0
 30
0.0
 11
5.0
 21
-5.0
 31
0.0
  0
ENDBLK
  5
159
330
157
100
AcDbEntity
  8
0
100
AcDbBlockEnd
  0
BLOCK
  5
15E
330
15D
100
AcDbEntity
  8
0
100
AcDbBlockBegin
  2
SHADE-SAIL-12X12
 70
0
 10
0.0
 20
0.0
 30
0.0
  3
SHADE-SAIL-12X12
  1

  0
LWPOLYLINE
  5
160
330
15D
100
AcDbEntity
  8
0
100
AcDbPolyline
 90
4
 70
1
 10
-6.0
 20
-6.0
 10
6.0
 20
-6.0
 10
6.0
 20
6.0
 10
-6.0
 20
6.0
  0
LINE
  5
161
330
15D
100
AcDbEntity
  8
0
100
AcDbLine
 10
-6.0
 20
-6.0
 30
0.0
 11
6.0
 21
6.0
 31
0.0
  0
LINE
  5
162
330
15D
100
AcDbEntity
  8
0
100
AcDbLine
 10
-6.0
 20
6.0
 30
0.0
 11
6.0
 21
-6.0
 31
0.0
  0
ENDBLK
  5
15F
330
15D
100
AcDbEntity
  8
0
100
AcDbBlockEnd
  0
BLOCK
  5
164
330
163
100
AcDbEntity
  8
0
100
AcDbBlockBegin
  2
SHADE-SAIL-15X15
 70
0
 10
0.0
 20
0.0
 30
0.0
  3
SHADE-SAIL-15X15
  1

  0
LWPOLYLINE
  5
166
330
163
100
AcDbEntity
  8
0
100
AcDbPolyline
 90
4
 70
1
 10
-7.5
 20
-7.5
 10
7.5
 20
-7.5
 10
7.5
 20
7.5
 10
-7.5
 20
7.5
  0
LINE
  5
167
330
163
100
AcDbEntity
  8
0
100
AcDbLine
 10
-7.5
 20
-7.5
 30
0.0
 11
7.5
 21
7.5
 31
0.0
  0
LINE
  5
168
330
163
100
AcDbEntity
  8
0
100
AcDbLine
 10
-7.5
 20
7.5
 30
0.0
 11
7.5
 21
-7.5
 31
0.0
  0
ENDBLK
  5
165
330
163
100
AcDbEntity
  8
0
100
AcDbBlockEnd
  0
BLOCK
  5
16A
330
169
100
AcDbEntity
  8
0
100
AcDbBlockBegin
  2
CANOPY-3X3
 70
0
 10
0.0
 20
0.0
 30
0.0
  3
CANOPY-3X3
  1

  0
LWPOLYLINE
  5
16C
330
169
100
AcDbEntity
  8
0
100
AcDbPolyline
 90
4
 70
1
 10
-1.5
 20
-1.5
 10
1.5
 20
-1.5
 10
1.5
 20
1.5
 10
-1.5
 20
1.5
  0
LINE
  5
16D
330
169
100
AcDbEntity
  8
0
100
AcDbLine
 10
-1.5
 20
-1.5
 30
0.0
 11
1.5
 21
1.5
 31
0.0
  0
LINE
  5
16E
330
169
100
AcDbEntity
  8
0
100
AcDbLine
 10
-1.5
 20
1.5
 30
0.0
 11
1.5
 21
-1.5
 31
0.0
  0
ENDBLK
  5
16B
330
169
100
AcDbEntity
  8
0
100
AcDbBlockEnd
  0
BLOCK
  5
170
330
16F
100
AcDbEntity
  8
0
100
AcDbBlockBegin
  2
CANOPY-5X5
 70
0
 10
0.0
 20
0.0
 30
0.0
  3
CANOPY-5X5
  1

  0
LWPOLYLINE
  5
172
330
16F
100
AcDbEntity
  8
0
100
AcDbPolyline
 90
4
 70
1
 10
-2.5
 20
-2.5
 10
2.5
 20
-2.5
 10
2.5
 20
2.5
 10
-2.5
 20
2.5
  0
LINE
  5
173
330
16F
100
AcDbEntity
  8
0
100
AcDbLine
 10
-2.5
 20
-2.5
 30
0.0
 11
2.5
 21
2.5
 31
0.0
  0
LINE
  5
174
330
16F
100
AcDbEntity
  8
0
100
AcDbLine
 10
-2.5
 20
2.5
 30
0.0
 11
2.5
 21
-2.5
 31
0.0
  0
ENDBLK
  5
171
330
16F
100
AcDbEntity
  8
0
100
AcDbBlockEnd
  0
BLOCK
  5
176
330
175
100
AcDbEntity
  8
0
100
AcDbBlockBegin
  2
CANOPY-6X6
 70
0
 10
0.0
 20
0.0
 30
0.0
  3
CANOPY-6X6
  1

  0
LWPOLYLINE
  5
178
330
175
100
AcDbEntity
  8
0
100
AcDbPolyline
 90
4
 70
1
 10
-3.0
 20
-3.0
 10
3.0
 20
-3.0
 10
3.0
 20
3.0
 10
-3.0
 20
3.0
  0
LINE
  5
179
330
175
100
AcDbEntity
  8
0
100
AcDbLine
 10
-3.0
 20
-3.0
 30
0.0
 11
3.0
 21
3.0
 31
0.0
  0
LINE
  5
17A
330
175
100
AcDbEntity
  8
0
100
AcDbLine
 10
-3.0
 20
3.0
 30
0.0
 11
3.0
 21
-3.0
 31
0.0
  0
ENDBLK
  5
177
330
175
100
AcDbEntity
  8
0
100
AcDbBlockEnd
  0
BLOCK
  5
17C
330
17B
100
AcDbEntity
  8
0
100
AcDbBlockBegin
  2
CANOPY-10X10
 70
0
 10
0.0
 20
0.0
 30
0.0
  3
CANOPY-10X10
  1

  0
LWPOLYLINE
  5
17E
330
17B
100
AcDbEntity
  8
0
100
AcDbPolyline
 90
4
 70
1
 10
-5.0
 20
-5.0
 10
5.0
 20
-5.0
 10
5.0
 20
5.0
 10
-5.0
 20
5.0
  0
LINE
  5
17F
330
17B
100
AcDbEntity
  8
0
100
AcDbLine
 10
-5.0
 20
-5.0
 30
0.0
 11
5.0
 21
5.0
 31
0.0
  0
LINE
  5
180
330
17B
100
AcDbEntity
  8
0
100
AcDbLine
 10
-5.0
 20
5.0
 30
0.0
 11
5.0
 21
-5.0
 31
0.0
  0
ENDBLK
  5
17D
330
17B
100
AcDbEntity
  8
0
100
AcDbBlockEnd
  0
BLOCK
  5
182
330
181
100
AcDbEntity
  8
0
100
AcDbBlockBegin
  2
CANOPY-15X10
 70
0
 10
0.0
 20
0.0
 30
0.0
  3
CANOPY-15X10
  1

  0
LWPOLYLINE
  5
184
330
181
100
AcDbEntity
  8
0
100
AcDbPolyline
 90
4
 70
1
 10
-7.5
 20
-5.0
 10
7.5
 20
-5.0
 10
7.5
 20
5.0
 10
-7.5
 20
5.0
  0
LINE
  5
185
330
181
100
AcDbEntity
  8
0
100
AcDbLine
 10
-7.5
 20
-5.0
 30
0.0
 11
7.5
 21
5.0
 31
0.0
  0
LINE
  5
186
330
181
100
AcDbEntity
  8
0
100
AcDbLine
 10
-7.5
 20
5.0
 30
0.0
 11
7.5
 21
-5.0
 31
0.0
  0
ENDBLK
  5
183
330
181
100
AcDbEntity
  8
0
100
AcDbBlockEnd
  0
BLOCK
  5
188
330
187
100
AcDbEntity
  8
0
100
AcDbBlockBegin
  2
CANOPY-20X10
 70
0
 10
0.0
 20
0.0
 30
0.0
  3
CANOPY-20X10
  1

  0
LWPOLYLINE
  5
18A
330
187
100
AcDbEntity
  8
0
100
AcDbPolyline
 90
4
 70
1
 10
-10.0
 20
-5.0
 10
10.0
 20
-5.0
 10
10.0
 20
5.0
 10
-10.0
 20
5.0
  0
LINE
  5
18B
330
187
100
AcDbEntity
  8
0
100
AcDbLine
 10
-10.0
 20
-5.0
 30
0.0
 11
10.0
 21
5.0
 31
0.0
  0
LINE
  5
18C
330
187
100
AcDbEntity
  8
0
100
AcDbLine
 10
-10.0
 20
5.0
 30
0.0
 11
10.0
 21
-5.0
 31
0.0
  0
ENDBLK
  5
189
330
187
100
AcDbEntity
  8
0
100
AcDbBlockEnd
  0
BLOCK
  5
18E
330
18D
100
AcDbEntity
  8
0
100
AcDbBlockBegin
  2
MARQUEE-10X20
 70
0
 10
0.0
 20
0.0
 30
0.0
  3
MARQUEE-10X20
  1

  0
LWPOLYLINE
  5
190
330
18D
100
AcDbEntity
  8
0
100
AcDbPolyline
 90
4
 70
1
 10
-5.0
 20
-10.0
 10
5.0
 20
-10.0
 10
5.0
 20
10.0
 10
-5.0
 20
10.0
  0
LINE
  5
191
330
18D
100
AcDbEntity
  8
0
100
AcDbLine
 10
-5.0
 20
-10.0
 30
0.0
 11
5.0
 21
10.0
 31
0.0
  0
LINE
  5
192
330
18D
100
AcDbEntity
  8
0
100
AcDbLine
 10
-5.0
 20
10.0
 30
0.0
 11
5.0
 21
-10.0
 31
0.0
  0
ENDBLK
  5
18F
330
18D
100
AcDbEntity
  8
0
100
AcDbBlockEnd
  0
BLOCK
  5
194
330
193
100
AcDbEntity
  8
0
100
AcDbBlockBegin
  2
MARQUEE-15X30
 70
0
 10
0.0
 20
0.0
 30
0.0
  3
MARQUEE-15X30
  1

  0
LWPOLYLINE
  5
196
330
193
100
AcDbEntity
  8
0
100
AcDbPolyline
 90
4
 70
1
 10
-7.5
 20
-15.0
 10
7.5
 20
-15.0
 10
7.5
 20
15.0
 10
-7.5
 20
15.0
  0
LINE
  5
197
330
193
100
AcDbEntity
  8
0
100
AcDbLine
 10
-7.5
 20
-15.0
 30
0.0
 11
7.5
 21
15.0
 31
0.0
  0
LINE
  5
198
330
193
100
AcDbEntity
  8
0
100
AcDbLine
 10
-7.5
 20
15.0
 30
0.0
 11
7.5
 21
-15.0
 31
0.0
  0
ENDBLK
  5
195
330
193
100
AcDbEntity
  8
0
100
AcDbBlockEnd
  0
BLOCK
  5
19A
330
199
100
AcDbEntity
  8
0
100
AcDbBlockBegin
  2
PERGOLA-5X5
 70
0
 10
0.0
 20
0.0
 30
0.0
  3
PERGOLA-5X5
  1

  0
LWPOLYLINE
  5
19C
330
199
100
AcDbEntity
  8
0
100
AcDbPolyline
 90
4
 70
1
 10
-2.5
 20
-2.5
 10
2.5
 20
-2.5
 10
2.5
 20
2.5
 10
-2.5
 20
2.5
  0
LINE
  5
19D
330
199
100
AcDbEntity
  8
0
100
AcDbLine
 10
-2.5
 20
-2.5
 30
0.0
 11
2.5
 21
2.5
 31
0.0
  0
LINE
  5
19E
330
199
100
AcDbEntity
  8
0
100
AcDbLine
 10
-2.5
 20
2.5
 30
0.0
 11
2.5
 21
-2.5
 31
0.0
  0
ENDBLK
  5
19B
330
199
100
AcDbEntity
  8
0
100
AcDbBlockEnd
  0
BLOCK
  5
1A0
330
19F
100
AcDbEntity
  8
0
100
AcDbBlockBegin
  2
UMBRELLA-3M
 70
0
 10
0.0
 20
0.0
 30
0.0
  3
UMBRELLA-3M
  1

  0
CIRCLE
  5
1A2
330
19F
100
AcDbEntity
  8
0
100
AcDbCircle
 10
0.0
 20
0.0
 30
0.0
 40
1.5
  0
LINE
  5
1A3
330
19F
100
AcDbEntity
  8
0
100
AcDbLine
 10
-1.5
 20
0.0
 30
0.0
 11
1.5
 21
0.0
 31
0.0
  0
LINE
  5
1A4
330
19F
100
AcDbEntity
  8
0
100
AcDbLine
 10
0.0
 20
-1.5
 30
0.0
 11
0.0
 21
1.5
 31
0.0
  0
ENDBLK
  5
1A1
330
19F
100
AcDbEntity
  8
0
100
AcDbBlockEnd
  0
BLOCK
  5
1A6
330
1A5
100
AcDbEntity
  8
0
100
AcDbBlockBegin
  2
UMBRELLA-4M
 70
0
 10
0.0
 20
0.0
 30
0.0
  3
UMBRELLA-4M
  1

  0
CIRCLE
  5
1A8
330
1A5
100
AcDbEntity
  8
0
100
AcDbCircle
 10
0.0
 20
0.0
 30
0.0
 40
2.0
  0
LINE
  5
1A9
330
1A5
100
AcDbEntity
  8
0
100
AcDbLine
 10
-2.0
 20
0.0
 30
0.0
 11
2.0
 21
0.0
 31
0.0
  0
LINE
  5
1AA
330
1A5
100
AcDbEntity
  8
0
100
AcDbLine
 10
0.0
 20
-2.0
 30
0.0
 11
0.0
 21
2.0
 31
0.0
  0
ENDBLK
  5
1A7
330
1A5
100
AcDbEntity
  8
0
100
AcDbBlockEnd
  0
BLOCK
  5
1AC
330
1AB
100
AcDbEntity
  8
0
100
AcDbBlockBegin
  2
UMBRELLA-5M
 70
0
 10
0.0
 20
0.0
 30
0.0
  3
UMBRELLA-5M
  1

  0
CIRCLE
  5
1AE
330
1AB
100
AcDbEntity
  8
0
100
AcDbCircle
 10
0.0
 20
0.0
 30
0.0
 40
2.5
  0
LINE
  5
1AF
330
1AB
100
AcDbEntity
  8
0
100
AcDbLine
 10
-2.5
 20
0.0
 30
0.0
 11
2.5
 21
0.0
 31
0.0
  0
LINE
  5
1B0
330
1AB
100
AcDbEntity
  8
0
100
AcDbLine
 10
0.0
 20
-2.5
 30
0.0
 11
0.0
 21
2.5
 31
0.0
  0
ENDBLK
  5
1AD
330
1AB
100
AcDbEntity
  8
0
100
AcDbBlockEnd
  0
BLOCK
  5
1B2
330
1B1
100
AcDbEntity
  8
0
100
AcDbBlockBegin
  2
MIST-FAN
 70
0
 10
0.0
 20
0.0
 30
0.0
  3
MIST-FAN
  1

  0
CIRCLE
  5
1B4
330
1B1
100
AcDbEntity
  8
0
100
AcDbCircle
 10
0.0
 20
0.0
 30
0.0
 40
0.4
  0
LINE
  5
1B5
330
1B1
100
AcDbEntity
  8
0
100
AcDbLine
 10
-0.4
 20
0.0
 30
0.0
 11
0.4
 21
0.0
 31
0.0
  0
LINE
  5
1B6
330
1B1
100
AcDbEntity
  8
0
100
AcDbLine
 10
0.0
 20
-0.4
 30
0.0
 11
0.0
 21
0.4
 31
0.0
  0
ENDBLK
  5
1B3
330
1B1
100
AcDbEntity
  8
0
100
AcDbBlockEnd
  0
BLOCK
  5
1B8
330
1B7
100
AcDbEntity
  8
0
100
AcDbBlockBegin
  2
MIST-ARCH-3M
 70
0
 10
0.0
 20
0.0
 30
0.0
  3
MIST-ARCH-3M
  1

  0
LWPOLYLINE
  5
1BA
330
1B7
100
AcDbEntity
  8
0
100
AcDbPolyline
 90
4
 70
1
 10
-1.5
 20
-0.3
 10
1.5
 20
-0.3
 10
1.5
 20
0.3
 10
-1.5
 20
0.3
  0
LINE
  5
1BB
330
1B7
100
AcDbEntity
  8
0
100
AcDbLine
 10
-1.5
 20
0.0
 30
0.0
 11
1.5
 21
0.0
 31
0.0
  0
ENDBLK
  5
1B9
330
1B7
100
AcDbEntity
  8
0
100
AcDbBlockEnd
  0
BLOCK
  5
1BD
330
1BC
100
AcDbEntity
  8
0
100
AcDbBlockBegin
  2
STRING-LIGHT-10M
 70
0
 10
0.0
 20
0.0
 30
0.0
  3
STRING-LIGHT-10M
  1

  0
LWPOLYLINE
  5
1BF
330
1BC
100
AcDbEntity
  8
0
100
AcDbPolyline
 90
4
 70
1
 10
-5.0
 20
-0.15
 10
5.0
 20
-0.15
 10
5.0
 20
0.15
 10
-5.0
 20
0.15
  0
LINE
  5
1C0
330
1BC
100
AcDbEntity
  8
0
100
AcDbLine
 10
-5.0
 20
0.0
 30
0.0
 11
5.0
 21
0.0
 31
0.0
  0
ENDBLK
  5
1BE
330
1BC
100
AcDbEntity
  8
0
100
AcDbBlockEnd
  0
BLOCK
  5
1C2
330
1C1
100
AcDbEntity
  8
0
100
AcDbBlockBegin
  2
STRING-LIGHT-20M
 70
0
 10
0.0
 20
0.0
 30
0.0
  3
STRING-LIGHT-20M
  1

  0
LWPOLYLINE
  5
1C4
330
1C1
100
AcDbEntity
  8
0
100
AcDbPolyline
 90
4
 70
1
 10
-10.0
 20
-0.15
 10
10.0
 20
-0.15
 10
10.0
 20
0.15
 10
-10.0
 20
0.15
  0
LINE
  5
1C5
330
1C1
100
AcDbEntity
  8
0
100
AcDbLine
 10
-10.0
 20
0.0
 30
0.0
 11
10.0
 21
0.0
 31
0.0
  0
ENDBLK
  5
1C3
330
1C1
100
AcDbEntity
  8
0
100
AcDbBlockEnd
  0
BLOCK
  5
1C7
330
1C6
100
AcDbEntity
  8
0
100
AcDbBlockBegin
  2
SHUTTLE-CART-3X1.2
 70
0
 10
0.0
 20
0.0
 30
0.0
  3
SHUTTLE-CART-3X1.2
  1

  0
LWPOLYLINE
  5
1C9
330
1C6
100
AcDbEntity
  8
0
100
AcDbPolyline
 90
4
 70
1
 10
-1.5
 20
-0.6
 10
1.5
 20
-0.6
 10
1.5
 20
0.6
 10
-1.5
 20
0.6
  0
LINE
  5
1CA
330
1C6
100
AcDbEntity
  8
0
100
AcDbLine
 10
0.5
 20
-0.6
 30
0.0
 11
0.5
 21
0.6
 31
0.0
  0
ENDBLK
  5
1C8
330
1C6
100
AcDbEntity
  8
0
100
AcDbBlockEnd
  0
BLOCK
  5
1CC
330
1CB
100
AcDbEntity
  8
0
100
AcDbBlockBegin
  2
EVAP-COOLER
 70
0
 10
0.0
 20
0.0
 30
0.0
  3
EVAP-COOLER
  1

  0
LWPOLYLINE
  5
1CE
330
1CB
100
AcDbEntity
  8
0
100
AcDbPolyline
 90
4
 70
1
 10
-0.6
 20
-0.4
 10
0.6
 20
-0.4
 10
0.6
 20
0.4
 10
-0.6
 20
0.4
  0
ENDBLK
  5
1CD
330
1CB
100
AcDbEntity
  8
0
100
AcDbBlockEnd
  0
BLOCK
  5
1D0
330
1CF
100
AcDbEntity
  8
0
100
AcDbBlockBegin
  2
AC-SPLIT-UNIT
 70
0
 10
0.0
 20
0.0
 30
0.0
  3
AC-SPLIT-UNIT
  1

  0
LWPOLYLINE
  5
1D2
330
1CF
100
AcDbEntity
  8
0
100
AcDbPolyline
 90
4
 70
1
 10
-0.5
 20
-0.2
 10
0.5
 20
-0.2
 10
0.5
 20
0.2
 10
-0.5
 20
0.2
  0
ENDBLK
  5
1D1
330
1CF
100
AcDbEntity
  8
0
100
AcDbBlockEnd
  0
BLOCK
  5
1D4
330
1D3
100
AcDbEntity
  8
0
100
AcDbBlockBegin
  2
AC-PACKAGE-3TON
 70
0
 10
0.0
 20
0.0
 30
0.0
  3
AC-PACKAGE-3TON
  1

  0
LWPOLYLINE
  5
1D6
330
1D3
100
AcDbEntity
  8
0
100
AcDbPolyline
 90
4
 70
1
 10
-0.9
 20
-0.6
 10
0.9
 20
-0.6
 10
0.9
 20
0.6
 10
-0.9
 20
0.6
  0
ENDBLK
  5
1D5
330
1D3
100
AcDbEntity
  8
0
100
AcDbBlockEnd
  0
BLOCK
  5
1D8
330
1D7
100
AcDbEntity
  8
0
100
AcDbBlockBegin
  2
AC-DUCT-TENT-5X5
 70
0
 10
0.0
 20
0.0
 30
0.0
  3
AC-DUCT-TENT-5X5
  1

  0
LWPOLYLINE
  5
1DA
330
1D7
100
AcDbEntity
  8
0
100
AcDbPolyline
 90
4
 70
1
 10
-2.5
 20
-2.5
 10
2.5
 20
-2.5
 10
2.5
 20
2.5
 10
-2.5
 20
2.5
  0
LINE
  5
1DB
330
1D7
100
AcDbEntity
  8
0
100
AcDbLine
 10
-2.5
 20
-2.5
 30
0.0
 11
2.5
 21
2.5
 31
0.0
  0
LINE
  5
1DC
330
1D7
100
AcDbEntity
  8
0
100
AcDbLine
 10
-2.5
 20
2.5
 30
0.0
 11
2.5
 21
-2.5
 31
0.0
  0
ENDBLK
  5
1D9
330
1D7
100
AcDbEntity
  8
0
100
AcDbBlockEnd
  0
BLOCK
  5
1DE
330
1DD
100
AcDbEntity
  8
0
100
AcDbBlockBegin
  2
FOOD-TRUCK-7X2.5
 70
0
 10
0.0
 20
0.0
 30
0.0
  3
FOOD-TRUCK-7X2.5
  1

  0
LWPOLYLINE
  5
1E0
330
1DD
100
AcDbEntity
  8
0
100
AcDbPolyline
 90
4
 70
1
 10
-3.5
 20
-1.25
 10
3.5
 20
-1.25
 10
3.5
 20
1.25
 10
-3.5
 20
1.25
  0
LINE
  5
1E1
330
1DD
100
AcDbEntity
  8
0
100
AcDbLine
 10
1.5
 20
-1.25
 30
0.0
 11
1.5
 21
1.25
 31
0.0
  0
ENDBLK
  5
1DF
330
1DD
100
AcDbEntity
  8
0
100
AcDbBlockEnd
  0
BLOCK
  5
1E3
330
1E2
100
AcDbEntity
  8
0
100
AcDbBlockBegin
  2
FOOD-TRAILER-5X2
 70
0
 10
0.0
 20
0.0
 30
0.0
  3
FOOD-TRAILER-5X2
  1

  0
LWPOLYLINE
  5
1E5
330
1E2
100
AcDbEntity
  8
0
100
AcDbPolyline
 90
4
 70
1
 10
-2.5
 20
-1.0
 10
2.5
 20
-1.0
 10
2.5
 20
1.0
 10
-2.5
 20
1.0
  0
LINE
  5
1E6
330
1E2
100
AcDbEntity
  8
0
100
AcDbLine
 10
0.8333333333333333
 20
-1.0
 30
0.0
 11
0.8333333333333333
 21
1.0
 31
0.0
  0
ENDBLK
  5
1E4
330
1E2
100
AcDbEntity
  8
0
100
AcDbBlockEnd
  0
BLOCK
  5
1E8
330
1E7
100
AcDbEntity
  8
0
100
AcDbBlockBegin
  2
FOOD-KIOSK-3X3
 70
0
 10
0.0
 20
0.0
 30
0.0
  3
FOOD-KIOSK-3X3
  1

  0
LWPOLYLINE
  5
1EA
330
1E7
100
AcDbEntity
  8
0
100
AcDbPolyline
 90
4
 70
1
 10
-1.5
 20
-1.5
 10
1.5
 20
-1.5
 10
1.5
 20
1.5
 10
-1.5
 20
1.5
  0
ENDBLK
  5
1E9
330
1E7
100
AcDbEntity
  8
0
100
AcDbBlockEnd
  0
BLOCK
  5
1EC
330
1EB
100
AcDbEntity
  8
0
100
AcDbBlockBegin
  2
FOOD-KIOSK-4X4
 70
0
 10
0.0
 20
0.0
 30
0.0
  3
FOOD-KIOSK-4X4
  1

  0
LWPOLYLINE
  5
1EE
330
1EB
100
AcDbEntity
  8
0
100
AcDbPolyline
 90
4
 70
1
 10
-2.0
 20
-2.0
 10
2.0
 20
-2.0
 10
2.0
 20
2.0
 10
-2.0
 20
2.0
  0
ENDBLK
  5
1ED
330
1EB
100
AcDbEntity
  8
0
100
AcDbBlockEnd
  0
BLOCK
  5
1F0
330
1EF
100
AcDbEntity
  8
0
100
AcDbBlockBegin
  2
FOOD-COURT-TENT-10X10
 70
0
 10
0.0
 20
0.0
 30
0.0
  3
FOOD-COURT-TENT-10X10
  1

  0
LWPOLYLINE
  5
1F2
330
1EF
100
AcDbEntity
  8
0
100
AcDbPolyline
 90
4
 70
1
 10
-5.0
 20
-5.0
 10
5.0
 20
-5.0
 10
5.0
 20
5.0
 10
-5.0
 20
5.0
  0
LINE
  5
1F3
330
1EF
100
AcDbEntity
  8
0
100
AcDbLine
 10
-5.0
 20
-5.0
 30
0.0
 11
5.0
 21
5.0
 31
0.0
  0
LINE
  5
1F4
330
1EF
100
AcDbEntity
  8
0
100
AcDbLine
 10
-5.0
 20
5.0
 30
0.0
 11
5.0
 21
-5.0
 31
0.0
  0
ENDBLK
  5
1F1
330
1EF
100
AcDbEntity
  8
0
100
AcDbBlockEnd
  0
BLOCK
  5
1F6
330
1F5
100
AcDbEntity
  8
0
100
AcDbBlockBegin
  2
COFFEE-CART-2X1
 70
0
 10
0.0
 20
0.0
 30
0.0
  3
COFFEE-CART-2X1
  1

  0
LWPOLYLINE
  5
1F8
330
1F5
100
AcDbEntity
  8
0
100
AcDbPolyline
 90
4
 70
1
 10
-1.0
 20
-0.5
 10
1.0
 20
-0.5
 10
1.0
 20
0.5
 10
-1.0
 20
0.5
  0
ENDBLK
  5
1F7
330
1F5
100
AcDbEntity
  8
0
100
AcDbBlockEnd
  0
BLOCK
  5
1FA
330
1F9
100
AcDbEntity
  8
0
100
AcDbBlockBegin
  2
JUICE-BAR-4X2
 70
0
 10
0.0
 20
0.0
 30
0.0
  3
JUICE-BAR-4X2
  1

  0
LWPOLYLINE
  5
1FC
330
1F9
100
AcDbEntity
  8
0
100
AcDbPolyline
 90
4
 70
1
 10
-2.0
 20
-1.0
 10
2.0
 20
-1.0
 10
2.0
 20
1.0
 10
-2.0
 20
1.0
  0
ENDBLK
  5
1FB
330
1F9
100
AcDbEntity
  8
0
100
AcDbBlockEnd
  0
BLOCK
  5
1FE
330
1FD
100
AcDbEntity
  8
0
100
AcDbBlockBegin
  2
MOCKTAIL-BAR-6X1
 70
0
 10
0.0
 20
0.0
 30
0.0
  3
MOCKTAIL-BAR-6X1
  1

  0
LWPOLYLINE
  5
200
330
1FD
100
AcDbEntity
  8
0
100
AcDbPolyline
 90
4
 70
1
 10
-3.0
 20
-0.5
 10
3.0
 20
-0.5
 10
3.0
 20
0.5
 10
-3.0
 20
0.5
  0
ENDBLK
  5
1FF
330
1FD
100
AcDbEntity
  8
0
100
AcDbBlockEnd
  0
BLOCK
  5
202
330
201
100
AcDbEntity
  8
0
100
AcDbBlockBegin
  2
BEVERAGE-COUNTER-4X1
 70
0
 10
0.0
 20
0.0
 30
0.0
  3
BEVERAGE-COUNTER-4X1
  1

  0
LWPOLYLINE
  5
204
330
201
100
AcDbEntity
  8
0
100
AcDbPolyline
 90
4
 70
1
 10
-2.0
 20
-0.5
 10
2.0
 20
-0.5
 10
2.0
 20
0.5
 10
-2.0
 20
0.5
  0
ENDBLK
  5
203
330
201
100
AcDbEntity
  8
0
100
AcDbBlockEnd
  0
BLOCK
  5
206
330
205
100
AcDbEntity
  8
0
100
AcDbBlockBegin
  2
BUFFET-LINE-6X1
 70
0
 10
0.0
 20
0.0
 30
0.0
  3
BUFFET-LINE-6X1
  1

  0
LWPOLYLINE
  5
208
330
205
100
AcDbEntity
  8
0
100
AcDbPolyline
 90
4
 70
1
 10
-3.0
 20
-0.5
 10
3.0
 20
-0.5
 10
3.0
 20
0.5
 10
-3.0
 20
0.5
  0
ENDBLK
  5
207
330
205
100
AcDbEntity
  8
0
100
AcDbBlockEnd
  0
BLOCK
  5
20A
330
209
100
AcDbEntity
  8
0
100
AcDbBlockBegin
  2
SERVING-COUNTER-3X1
 70
0
 10
0.0
 20
0.0
 30
0.0
  3
SERVING-COUNTER-3X1
  1

  0
LWPOLYLINE
  5
20C
330
209
100
AcDbEntity
  8
0
100
AcDbPolyline
 90
4
 70
1
 10
-1.5
 20
-0.5
 10
1.5
 20
-0.5
 10
1.5
 20
0.5
 10
-1.5
 20
0.5
  0
ENDBLK
  5
20B
330
209
100
AcDbEntity
  8
0
100
AcDbBlockEnd
  0
BLOCK
  5
20E
330
20D
100
AcDbEntity
  8
0
100
AcDbBlockBegin
  2
WATER-REFILL-STATION-2X1
 70
0
 10
0.0
 20
0.0
 30
0.0
  3
WATER-REFILL-STATION-2X1
  1

  0
LWPOLYLINE
  5
210
330
20D
100
AcDbEntity
  8
0
100
AcDbPolyline
 90
4
 70
1
 10
-1.0
 20
-0.5
 10
1.0
 20
-0.5
 10
1.0
 20
0.5
 10
-1.0
 20
0.5
  0
ENDBLK
  5
20F
330
20D
100
AcDbEntity
  8
0
100
AcDbBlockEnd
  0
BLOCK
  5
212
330
211
100
AcDbEntity
  8
0
100
AcDbBlockBegin
  2
ICE-BOX
 70
0
 10
0.0
 20
0.0
 30
0.0
  3
ICE-BOX
  1

  0
LWPOLYLINE
  5
214
330
211
100
AcDbEntity
  8
0
100
AcDbPolyline
 90
4
 70
1
 10
-0.6
 20
-0.4
 10
0.6
 20
-0.4
 10
0.6
 20
0.4
 10
-0.6
 20
0.4
  0
ENDBLK
  5
213
330
211
100
AcDbEntity
  8
0
100
AcDbBlockEnd
  0
BLOCK
  5
216
330
215
100
AcDbEntity
  8
0
100
AcDbBlockBegin
  2
FRIDGE-UPRIGHT
 70
0
 10
0.0
 20
0.0
 30
0.0
  3
FRIDGE-UPRIGHT
  1

  0
LWPOLYLINE
  5
218
330
215
100
AcDbEntity
  8
0
100
AcDbPolyline
 90
4
 70
1
 10
-0.4
 20
-0.4
 10
0.4
 20
-0.4
 10
0.4
 20
0.4
 10
-0.4
 20
0.4
  0
ENDBLK
  5
217
330
215
100
AcDbEntity
  8
0
100
AcDbBlockEnd
  0
BLOCK
  5
21A
330
219
100
AcDbEntity
  8
0
100
AcDbBlockBegin
  2
PREP-TABLE-2X1
 70
0
 10
0.0
 20
0.0
 30
0.0
  3
PREP-TABLE-2X1
  1

  0
LWPOLYLINE
  5
21C
330
219
100
AcDbEntity
  8
0
100
AcDbPolyline
 90
4
 70
1
 10
-1.0
 20
-0.5
 10
1.0
 20
-0.5
 10
1.0
 20
0.5
 10
-1.0
 20
0.5
  0
ENDBLK
  5
21B
330
219
100
AcDbEntity
  8
0
100
AcDbBlockEnd
  0
BLOCK
  5
21E
330
21D
100
AcDbEntity
  8
0
100
AcDbBlockBegin
  2
KITCHEN-CONTAINER-6X2.4
 70
0
 10
0.0
 20
0.0
 30
0.0
  3
KITCHEN-CONTAINER-6X2.4
  1

  0
LWPOLYLINE
  5
220
330
21D
100
AcDbEntity
  8
0
100
AcDbPolyline
 90
4
 70
1
 10
-3.0
 20
-1.2
 10
3.0
 20
-1.2
 10
3.0
 20
1.2
 10
-3.0
 20
1.2
  0
ENDBLK
  5
21F
330
21D
100
AcDbEntity
  8
0
100
AcDbBlockEnd
  0
BLOCK
  5
222
330
221
100
AcDbEntity
  8
0
100
AcDbBlockBegin
  2
HAND-SINK
 70
0
 10
0.0
 20
0.0
 30
0.0
  3
HAND-SINK
  1

  0
LWPOLYLINE
  5
224
330
221
100
AcDbEntity
  8
0
100
AcDbPolyline
 90
4
 70
1
 10
-0.3
 20
-0.25
 10
0.3
 20
-0.25
 10
0.3
 20
0.25
 10
-0.3
 20
0.25
  0
ENDBLK
  5
223
330
221
100
AcDbEntity
  8
0
100
AcDbBlockEnd
  0
BLOCK
  5
226
330
225
100
AcDbEntity
  8
0
100
AcDbBlockBegin
  2
TOILET-SINGLE
 70
0
 10
0.0
 20
0.0
 30
0.0
  3
TOILET-SINGLE
  1

  0
LWPOLYLINE
  5
228
330
225
100
AcDbEntity
  8
0
100
AcDbPolyline
 90
4
 70
1
 10
-0.6
 20
-0.6
 10
0.6
 20
-0.6
 10
0.6
 20
0.6
 10
-0.6
 20
0.6
  0
ENDBLK
  5
227
330
225
100
AcDbEntity
  8
0
100
AcDbBlockEnd
  0
BLOCK
  5
22A
330
229
100
AcDbEntity
  8
0
100
AcDbBlockBegin
  2
TOILET-ACCESSIBLE
 70
0
 10
0.0
 20
0.0
 30
0.0
  3
TOILET-ACCESSIBLE
  1

  0
LWPOLYLINE
  5
22C
330
229
100
AcDbEntity
  8
0
100
AcDbPolyline
 90
4
 70
1
 10
-1.0
 20
-1.0
 10
1.0
 20
-1.0
 10
1.0
 20
1.0
 10
-1.0
 20
1.0
  0
ENDBLK
  5
22B
330
229
100
AcDbEntity
  8
0
100
AcDbBlockEnd
  0
BLOCK
  5
22E
330
22D
100
AcDbEntity
  8
0
100
AcDbBlockBegin
  2
TOILET-BLOCK-4-MALE
 70
0
 10
0.0
 20
0.0
 30
0.0
  3
TOILET-BLOCK-4-MALE
  1

  0
LWPOLYLINE
  5
230
330
22D
100
AcDbEntity
  8
0
100
AcDbPolyline
 90
4
 70
1
 10
-2.4
 20
-1.2
 10
2.4
 20
-1.2
 10
2.4
 20
1.2
 10
-2.4
 20
1.2
  0
ENDBLK
  5
22F
330
22D
100
AcDbEntity
  8
0
100
AcDbBlockEnd
  0
BLOCK
  5
232
330
231
100
AcDbEntity
  8
0
100
AcDbBlockBegin
  2
TOILET-BLOCK-4-FEMALE
 70
0
 10
0.0
 20
0.0
 30
0.0
  3
TOILET-BLOCK-4-FEMALE
  1

  0
LWPOLYLINE
  5
234
330
231
100
AcDbEntity
  8
0
100
AcDbPolyline
 90
4
 70
1
 10
-2.4
 20
-1.2
 10
2.4
 20
-1.2
 10
2.4
 20
1.2
 10
-2.4
 20
1.2
  0
ENDBLK
  5
233
330
231
100
AcDbEntity
  8
0
100
AcDbBlockEnd
  0
BLOCK
  5
236
330
235
100
AcDbEntity
  8
0
100
AcDbBlockBegin
  2
TOILET-BLOCK-8-MALE
 70
0
 10
0.0
 20
0.0
 30
0.0
  3
TOILET-BLOCK-8-MALE
  1

  0
LWPOLYLINE
  5
238
330
235
100
AcDbEntity
  8
0
100
AcDbPolyline
 90
4
 70
1
 10
-4.8
 20
-1.2
 10
4.8
 20
-1.2
 10
4.8
 20
1.2
 10
-4.8
 20
1.2
  0
ENDBLK
  5
237
330
235
100
AcDbEntity
  8
0
100
AcDbBlockEnd
  0
BLOCK
  5
23A
330
239
100
AcDbEntity
  8
0
100
AcDbBlockBegin
  2
TOILET-BLOCK-8-FEMALE
 70
0
 10
0.0
 20
0.0
 30
0.0
  3
TOILET-BLOCK-8-FEMALE
  1

  0
LWPOLYLINE
  5
23C
330
239
100
AcDbEntity
  8
0
100
AcDbPolyline
 90
4
 70
1
 10
-4.8
 20
-1.2
 10
4.8
 20
-1.2
 10
4.8
 20
1.2
 10
-4.8
 20
1.2
  0
ENDBLK
  5
23B
330
239
100
AcDbEntity
  8
0
100
AcDbBlockEnd
  0
BLOCK
  5
23E
330
23D
100
AcDbEntity
  8
0
100
AcDbBlockBegin
  2
TOILET-BLOCK-12-MALE
 70
0
 10
0.0
 20
0.0
 30
0.0
  3
TOILET-BLOCK-12-MALE
  1

  0
LWPOLYLINE
  5
240
330
23D
100
AcDbEntity
  8
0
100
AcDbPolyline
 90
4
 70
1
 10
-6.0
 20
-1.5
 10
6.0
 20
-1.5
 10
6.0
 20
1.5
 10
-6.0
 20
1.5
  0
ENDBLK
  5
23F
330
23D
100
AcDbEntity
  8
0
100
AcDbBlockEnd
  0
BLOCK
  5
242
330
241
100
AcDbEntity
  8
0
100
AcDbBlockBegin
  2
TOILET-BLOCK-12-FEMALE
 70
0
 10
0.0
 20
0.0
 30
0.0
  3
TOILET-BLOCK-12-FEMALE
  1

  0
LWPOLYLINE
  5
244
330
241
100
AcDbEntity
  8
0
100
AcDbPolyline
 90
4
 70
1
 10
-6.0
 20
-1.5
 10
6.0
 20
-1.5
 10
6.0
 20
1.5
 10
-6.0
 20
1.5
  0
ENDBLK
  5
243
330
241
100
AcDbEntity
  8
0
100
AcDbBlockEnd
  0
BLOCK
  5
246
330
245
100
AcDbEntity
  8
0
100
AcDbBlockBegin
  2
TOILET-VIP-6X3
 70
0
 10
0.0
 20
0.0
 30
0.0
  3
TOILET-VIP-6X3
  1

  0
LWPOLYLINE
  5
248
330
245
100
AcDbEntity
  8
0
100
AcDbPolyline
 90
4
 70
1
 10
-3.0
 20
-1.5
 10
3.0
 20
-1.5
 10
3.0
 20
1.5
 10
-3.0
 20
1.5
  0
ENDBLK
  5
247
330
245
100
AcDbEntity
  8
0
100
AcDbBlockEnd
  0
BLOCK
  5
24A
330
249
100
AcDbEntity
  8
0
100
AcDbBlockBegin
  2
SHOWER-UNIT
 70
0
 10
0.0
 20
0.0
 30
0.0
  3
SHOWER-UNIT
  1

  0
LWPOLYLINE
  5
24C
330
249
100
AcDbEntity
  8
0
100
AcDbPolyline
 90
4
 70
1
 10
-0.6
 20
-0.6
 10
0.6
 20
-0.6
 10
0.6
 20
0.6
 10
-0.6
 20
0.6
  0
ENDBLK
  5
24B
330
249
100
AcDbEntity
  8
0
100
AcDbBlockEnd
  0
BLOCK
  5
24E
330
24D
100
AcDbEntity
  8
0
100
AcDbBlockBegin
  2
HANDWASH-STATION-4TAP
 70
0
 10
0.0
 20
0.0
 30
0.0
  3
HANDWASH-STATION-4TAP
  1

  0
LWPOLYLINE
  5
250
330
24D
100
AcDbEntity
  8
0
100
AcDbPolyline
 90
4
 70
1
 10
-1.0
 20
-0.3
 10
1.0
 20
-0.3
 10
1.0
 20
0.3
 10
-1.0
 20
0.3
  0
ENDBLK
  5
24F
330
24D
100
AcDbEntity
  8
0
100
AcDbBlockEnd
  0
BLOCK
  5
252
330
251
100
AcDbEntity
  8
0
100
AcDbBlockBegin
  2
BABY-CHANGE-UNIT
 70
0
 10
0.0
 20
0.0
 30
0.0
  3
BABY-CHANGE-UNIT
  1

  0
LWPOLYLINE
  5
254
330
251
100
AcDbEntity
  8
0
100
AcDbPolyline
 90
4
 70
1
 10
-1.0
 20
-1.0
 10
1.0
 20
-1.0
 10
1.0
 20
1.0
 10
-1.0
 20
1.0
  0
ENDBLK
  5
253
330
251
100
AcDbEntity
  8
0
100
AcDbBlockEnd
  0
BLOCK
  5
256
330
255
100
AcDbEntity
  8
0
100
AcDbBlockBegin
  2
PRAYER-TENT-5X5-MALE
 70
0
 10
0.0
 20
0.0
 30
0.0
  3
PRAYER-TENT-5X5-MALE
  1

  0
LWPOLYLINE
  5
258
330
255
100
AcDbEntity
  8
0
100
AcDbPolyline
 90
4
 70
1
 10
-2.5
 20
-2.5
 10
2.5
 20
-2.5
 10
2.5
 20
2.5
 10
-2.5
 20
2.5
  0
LINE
  5
259
330
255
100
AcDbEntity
  8
0
100
AcDbLine
 10
-2.5
 20
-2.5
 30
0.0
 11
2.5
 21
2.5
 31
0.0
  0
LINE
  5
25A
330
255
100
AcDbEntity
  8
0
100
AcDbLine
 10
-2.5
 20
2.5
 30
0.0
 11
2.5
 21
-2.5
 31
0.0
  0
ENDBLK
  5
257
330
255
100
AcDbEntity
  8
0
100
AcDbBlockEnd
  0
BLOCK
  5
25C
330
25B
100
AcDbEntity
  8
0
100
AcDbBlockBegin
  2
PRAYER-TENT-5X5-FEMALE
 70
0
 10
0.0
 20
0.0
 30
0.0
  3
PRAYER-TENT-5X5-FEMALE
  1

  0
LWPOLYLINE
  5
25E
330
25B
100
AcDbEntity
  8
0
100
AcDbPolyline
 90
4
 70
1
 10
-2.5
 20
-2.5
 10
2.5
 20
-2.5
 10
2.5
 20
2.5
 10
-2.5
 20
2.5
  0
LINE
  5
25F
330
25B
100
AcDbEntity
  8
0
100
AcDbLine
 10
-2.5
 20
-2.5
 30
0.0
 11
2.5
 21
2.5
 31
0.0
  0
LINE
  5
260
330
25B
100
AcDbEntity
  8
0
100
AcDbLine
 10
-2.5
 20
2.5
 30
0.0
 11
2.5
 21
-2.5
 31
0.0
  0
ENDBLK
  5
25D
330
25B
100
AcDbEntity
  8
0
100
AcDbBlockEnd
  0
BLOCK
  5
262
330
261
100
AcDbEntity
  8
0
100
AcDbBlockBegin
  2
PRAYER-TENT-10X10-MALE
 70
0
 10
0.0
 20
0.0
 30
0.0
  3
PRAYER-TENT-10X10-MALE
  1

  0
LWPOLYLINE
  5
264
330
261
100
AcDbEntity
  8
0
100
AcDbPolyline
 90
4
 70
1
 10
-5.0
 20
-5.0
 10
5.0
 20
-5.0
 10
5.0
 20
5.0
 10
-5.0
 20
5.0
  0
LINE
  5
265
330
261
100
AcDbEntity
  8
0
100
AcDbLine
 10
-5.0
 20
-5.0
 30
0.0
 11
5.0
 21
5.0
 31
0.0
  0
LINE
  5
266
330
261
100
AcDbEntity
  8
0
100
AcDbLine
 10
-5.0
 20
5.0
 30
0.0
 11
5.0
 21
-5.0
 31
0.0
  0
ENDBLK
  5
263
330
261
100
AcDbEntity
  8
0
100
AcDbBlockEnd
  0
BLOCK
  5
268
330
267
100
AcDbEntity
  8
0
100
AcDbBlockBegin
  2
PRAYER-TENT-10X10-FEMALE
 70
0
 10
0.0
 20
0.0
 30
0.0
  3
PRAYER-TENT-10X10-FEMALE
  1

  0
LWPOLYLINE
  5
26A
330
267
100
AcDbEntity
  8
0
100
AcDbPolyline
 90
4
 70
1
 10
-5.0
 20
-5.0
 10
5.0
 20
-5.0
 10
5.0
 20
5.0
 10
-5.0
 20
5.0
  0
LINE
  5
26B
330
267
100
AcDbEntity
  8
0
100
AcDbLine
 10
-5.0
 20
-5.0
 30
0.0
 11
5.0
 21
5.0
 31
0.0
  0
LINE
  5
26C
330
267
100
AcDbEntity
  8
0
100
AcDbLine
 10
-5.0
 20
5.0
 30
0.0
 11
5.0
 21
-5.0
 31
0.0
  0
ENDBLK
  5
269
330
267
100
AcDbEntity
  8
0
100
AcDbBlockEnd
  0
BLOCK
  5
26E
330
26D
100
AcDbEntity
  8
0
100
AcDbBlockBegin
  2
PRAYER-MAT-ROW-6PAX
 70
0
 10
0.0
 20
0.0
 30
0.0
  3
PRAYER-MAT-ROW-6PAX
  1

  0
LWPOLYLINE
  5
270
330
26D
100
AcDbEntity
  8
0
100
AcDbPolyline
 90
4
 70
1
 10
-3.0
 20
-0.6
 10
3.0
 20
-0.6
 10
3.0
 20
0.6
 10
-3.0
 20
0.6
  0
LINE
  5
271
330
26D
100
AcDbEntity
  8
0
100
AcDbLine
 10
-3.0
 20
0.0
 30
0.0
 11
3.0
 21
0.0
 31
0.0
  0
ENDBLK
  5
26F
330
26D
100
AcDbEntity
  8
0
100
AcDbBlockEnd
  0
BLOCK
  5
273
330
272
100
AcDbEntity
  8
0
100
AcDbBlockBegin
  2
WUDU-ABLUTION-STATION-4M
 70
0
 10
0.0
 20
0.0
 30
0.0
  3
WUDU-ABLUTION-STATION-4M
  1

  0
LWPOLYLINE
  5
275
330
272
100
AcDbEntity
  8
0
100
AcDbPolyline
 90
4
 70
1
 10
-2.0
 20
-0.5
 10
2.0
 20
-0.5
 10
2.0
 20
0.5
 10
-2.0
 20
0.5
  0
ENDBLK
  5
274
330
272
100
AcDbEntity
  8
0
100
AcDbBlockEnd
  0
BLOCK
  5
277
330
276
100
AcDbEntity
  8
0
100
AcDbBlockBegin
  2
SHOE-RACK-2M
 70
0
 10
0.0
 20
0.0
 30
0.0
  3
SHOE-RACK-2M
  1

  0
LWPOLYLINE
  5
279
330
276
100
AcDbEntity
  8
0
100
AcDbPolyline
 90
4
 70
1
 10
-1.0
 20
-0.25
 10
1.0
 20
-0.25
 10
1.0
 20
0.25
 10
-1.0
 20
0.25
  0
ENDBLK
  5
278
330
276
100
AcDbEntity
  8
0
100
AcDbBlockEnd
  0
BLOCK
  5
27B
330
27A
100
AcDbEntity
  8
0
100
AcDbBlockBegin
  2
TICKET-BOOTH-2X2
 70
0
 10
0.0
 20
0.0
 30
0.0
  3
TICKET-BOOTH-2X2
  1

  0
LWPOLYLINE
  5
27D
330
27A
100
AcDbEntity
  8
0
100
AcDbPolyline
 90
4
 70
1
 10
-1.0
 20
-1.0
 10
1.0
 20
-1.0
 10
1.0
 20
1.0
 10
-1.0
 20
1.0
  0
ENDBLK
  5
27C
330
27A
100
AcDbEntity
  8
0
100
AcDbBlockEnd
  0
BLOCK
  5
27F
330
27E
100
AcDbEntity
  8
0
100
AcDbBlockBegin
  2
TICKET-BOOTH-3X2
 70
0
 10
0.0
 20
0.0
 30
0.0
  3
TICKET-BOOTH-3X2
  1

  0
LWPOLYLINE
  5
281
330
27E
100
AcDbEntity
  8
0
100
AcDbPolyline
 90
4
 70
1
 10
-1.5
 20
-1.0
 10
1.5
 20
-1.0
 10
1.5
 20
1.0
 10
-1.5
 20
1.0
  0
ENDBLK
  5
280
330
27E
100
AcDbEntity
  8
0
100
AcDbBlockEnd
  0
BLOCK
  5
283
330
282
100
AcDbEntity
  8
0
100
AcDbBlockBegin
  2
ACCREDITATION-CABIN-6X3
 70
0
 10
0.0
 20
0.0
 30
0.0
  3
ACCREDITATION-CABIN-6X3
  1

  0
LWPOLYLINE
  5
285
330
282
100
AcDbEntity
  8
0
100
AcDbPolyline
 90
4
 70
1
 10
-3.0
 20
-1.5
 10
3.0
 20
-1.5
 10
3.0
 20
1.5
 10
-3.0
 20
1.5
  0
ENDBLK
  5
284
330
282
100
AcDbEntity
  8
0
100
AcDbBlockEnd
  0
BLOCK
  5
287
330
286
100
AcDbEntity
  8
0
100
AcDbBlockBegin
  2
TURNSTILE
 70
0
 10
0.0
 20
0.0
 30
0.0
  3
TURNSTILE
  1

  0
LWPOLYLINE
  5
289
330
286
100
AcDbEntity
  8
0
100
AcDbPolyline
 90
4
 70
1
 10
-0.5
 20
-0.3
 10
0.5
 20
-0.3
 10
0.5
 20
0.3
 10
-0.5
 20
0.3
  0
ENDBLK
  5
288
330
286
100
AcDbEntity
  8
0
100
AcDbBlockEnd
  0
BLOCK
  5
28B
330
28A
100
AcDbEntity
  8
0
100
AcDbBlockBegin
  2
MAG-SEARCH-ARCH
 70
0
 10
0.0
 20
0.0
 30
0.0
  3
MAG-SEARCH-ARCH
  1

  0
LWPOLYLINE
  5
28D
330
28A
100
AcDbEntity
  8
0
100
AcDbPolyline
 90
4
 70
1
 10
-0.6
 20
-0.4
 10
0.6
 20
-0.4
 10
0.6
 20
0.4
 10
-0.6
 20
0.4
  0
LINE
  5
28E
330
28A
100
AcDbEntity
  8
0
100
AcDbLine
 10
-0.6
 20
0.0
 30
0.0
 11
0.6
 21
0.0
 31
0.0
  0
ENDBLK
  5
28C
330
28A
100
AcDbEntity
  8
0
100
AcDbBlockEnd
  0
BLOCK
  5
290
330
28F
100
AcDbEntity
  8
0
100
AcDbBlockBegin
  2
SEARCH-TABLE-2X1
 70
0
 10
0.0
 20
0.0
 30
0.0
  3
SEARCH-TABLE-2X1
  1

  0
LWPOLYLINE
  5
292
330
28F
100
AcDbEntity
  8
0
100
AcDbPolyline
 90
4
 70
1
 10
-1.0
 20
-0.5
 10
1.0
 20
-0.5
 10
1.0
 20
0.5
 10
-1.0
 20
0.5
  0
ENDBLK
  5
291
330
28F
100
AcDbEntity
  8
0
100
AcDbBlockEnd
  0
BLOCK
  5
294
330
293
100
AcDbEntity
  8
0
100
AcDbBlockBegin
  2
BAG-DROP-3X2
 70
0
 10
0.0
 20
0.0
 30
0.0
  3
BAG-DROP-3X2
  1

  0
LWPOLYLINE
  5
296
330
293
100
AcDbEntity
  8
0
100
AcDbPolyline
 90
4
 70
1
 10
-1.5
 20
-1.0
 10
1.5
 20
-1.0
 10
1.5
 20
1.0
 10
-1.5
 20
1.0
  0
ENDBLK
  5
295
330
293
100
AcDbEntity
  8
0
100
AcDbBlockEnd
  0
BLOCK
  5
298
330
297
100
AcDbEntity
  8
0
100
AcDbBlockBegin
  2
ENTRANCE-GATE-6M
 70
0
 10
0.0
 20
0.0
 30
0.0
  3
ENTRANCE-GATE-6M
  1

  0
LWPOLYLINE
  5
29A
330
297
100
AcDbEntity
  8
0
100
AcDbPolyline
 90
4
 70
1
 10
-3.0
 20
-0.5
 10
3.0
 20
-0.5
 10
3.0
 20
0.5
 10
-3.0
 20
0.5
  0
LINE
  5
29B
330
297
100
AcDbEntity
  8
0
100
AcDbLine
 10
-3.0
 20
0.0
 30
0.0
 11
3.0
 21
0.0
 31
0.0
  0
ENDBLK
  5
299
330
297
100
AcDbEntity
  8
0
100
AcDbBlockEnd
  0
BLOCK
  5
29D
330
29C
100
AcDbEntity
  8
0
100
AcDbBlockBegin
  2
ENTRANCE-GATE-10M
 70
0
 10
0.0
 20
0.0
 30
0.0
  3
ENTRANCE-GATE-10M
  1

  0
LWPOLYLINE
  5
29F
330
29C
100
AcDbEntity
  8
0
100
AcDbPolyline
 90
4
 70
1
 10
-5.0
 20
-0.5
 10
5.0
 20
-0.5
 10
5.0
 20
0.5
 10
-5.0
 20
0.5
  0
LINE
  5
2A0
330
29C
100
AcDbEntity
  8
0
100
AcDbLine
 10
-5.0
 20
0.0
 30
0.0
 11
5.0
 21
0.0
 31
0.0
  0
ENDBLK
  5
29E
330
29C
100
AcDbEntity
  8
0
100
AcDbBlockEnd
  0
BLOCK
  5
2A2
330
2A1
100
AcDbEntity
  8
0
100
AcDbBlockBegin
  2
QUEUE-LANE-10X2
 70
0
 10
0.0
 20
0.0
 30
0.0
  3
QUEUE-LANE-10X2
  1

  0
LWPOLYLINE
  5
2A4
330
2A1
100
AcDbEntity
  8
0
100
AcDbPolyline
 90
4
 70
1
 10
-5.0
 20
-1.0
 10
5.0
 20
-1.0
 10
5.0
 20
1.0
 10
-5.0
 20
1.0
  0
ENDBLK
  5
2A3
330
2A1
100
AcDbEntity
  8
0
100
AcDbBlockEnd
  0
BLOCK
  5
2A6
330
2A5
100
AcDbEntity
  8
0
100
AcDbBlockBegin
  2
CROWD-BARRIER-2.5M
 70
0
 10
0.0
 20
0.0
 30
0.0
  3
CROWD-BARRIER-2.5M
  1

  0
LWPOLYLINE
  5
2A8
330
2A5
100
AcDbEntity
  8
0
100
AcDbPolyline
 90
4
 70
1
 10
-1.25
 20
-0.2
 10
1.25
 20
-0.2
 10
1.25
 20
0.2
 10
-1.25
 20
0.2
  0
LINE
  5
2A9
330
2A5
100
AcDbEntity
  8
0
100
AcDbLine
 10
-1.25
 20
0.0
 30
0.0
 11
1.25
 21
0.0
 31
0.0
  0
ENDBLK
  5
2A7
330
2A5
100
AcDbEntity
  8
0
100
AcDbBlockEnd
  0
BLOCK
  5
2AB
330
2AA
100
AcDbEntity
  8
0
100
AcDbBlockBegin
  2
BARRIER-LINE-10M
 70
0
 10
0.0
 20
0.0
 30
0.0
  3
BARRIER-LINE-10M
  1

  0
LWPOLYLINE
  5
2AD
330
2AA
100
AcDbEntity
  8
0
100
AcDbPolyline
 90
4
 70
1
 10
-5.0
 20
-0.2
 10
5.0
 20
-0.2
 10
5.0
 20
0.2
 10
-5.0
 20
0.2
  0
LINE
  5
2AE
330
2AA
100
AcDbEntity
  8
0
100
AcDbLine
 10
-5.0
 20
0.0
 30
0.0
 11
5.0
 21
0.0
 31
0.0
  0
ENDBLK
  5
2AC
330
2AA
100
AcDbEntity
  8
0
100
AcDbBlockEnd
  0
BLOCK
  5
2B0
330
2AF
100
AcDbEntity
  8
0
100
AcDbBlockBegin
  2
HERAS-FENCE-3.5M
 70
0
 10
0.0
 20
0.0
 30
0.0
  3
HERAS-FENCE-3.5M
  1

  0
LWPOLYLINE
  5
2B2
330
2AF
100
AcDbEntity
  8
0
100
AcDbPolyline
 90
4
 70
1
 10
-1.75
 20
-0.15
 10
1.75
 20
-0.15
 10
1.75
 20
0.15
 10
-1.75
 20
0.15
  0
LINE
  5
2B3
330
2AF
100
AcDbEntity
  8
0
100
AcDbLine
 10
-1.75
 20
0.0
 30
0.0
 11
1.75
 21
0.0
 31
0.0
  0
ENDBLK
  5
2B1
330
2AF
100
AcDbEntity
  8
0
100
AcDbBlockEnd
  0
BLOCK
  5
2B5
330
2B4
100
AcDbEntity
  8
0
100
AcDbBlockBegin
  2
WATER-BARRIER-2M
 70
0
 10
0.0
 20
0.0
 30
0.0
  3
WATER-BARRIER-2M
  1

  0
LWPOLYLINE
  5
2B7
330
2B4
100
AcDbEntity
  8
0
100
AcDbPolyline
 90
4
 70
1
 10
-1.0
 20
-0.3
 10
1.0
 20
-0.3
 10
1.0
 20
0.3
 10
-1.0
 20
0.3
  0
LINE
  5
2B8
330
2B4
100
AcDbEntity
  8
0
100
AcDbLine
 10
-1.0
 20
0.0
 30
0.0
 11
1.0
 21
0.0
 31
0.0
  0
ENDBLK
  5
2B6
330
2B4
100
AcDbEntity
  8
0
100
AcDbBlockEnd
  0
BLOCK
  5
2BA
330
2B9
100
AcDbEntity
  8
0
100
AcDbBlockBegin
  2
SECURITY-CABIN-2X2
 70
0
 10
0.0
 20
0.0
 30
0.0
  3
SECURITY-CABIN-2X2
  1

  0
LWPOLYLINE
  5
2BC
330
2B9
100
AcDbEntity
  8
0
100
AcDbPolyline
 90
4
 70
1
 10
-1.0
 20
-1.0
 10
1.0
 20
-1.0
 10
1.0
 20
1.0
 10
-1.0
 20
1.0
  0
ENDBLK
  5
2BB
330
2B9
100
AcDbEntity
  8
0
100
AcDbBlockEnd
  0
BLOCK
  5
2BE
330
2BD
100
AcDbEntity
  8
0
100
AcDbBlockBegin
  2
CCTV-POLE
 70
0
 10
0.0
 20
0.0
 30
0.0
  3
CCTV-POLE
  1

  0
CIRCLE
  5
2C0
330
2BD
100
AcDbEntity
  8
0
100
AcDbCircle
 10
0.0
 20
0.0
 30
0.0
 40
0.25
  0
LINE
  5
2C1
330
2BD
100
AcDbEntity
  8
0
100
AcDbLine
 10
-0.25
 20
0.0
 30
0.0
 11
0.25
 21
0.0
 31
0.0
  0
LINE
  5
2C2
330
2BD
100
AcDbEntity
  8
0
100
AcDbLine
 10
0.0
 20
-0.25
 30
0.0
 11
0.0
 21
0.25
 31
0.0
  0
ENDBLK
  5
2BF
330
2BD
100
AcDbEntity
  8
0
100
AcDbBlockEnd
  0
BLOCK
  5
2C4
330
2C3
100
AcDbEntity
  8
0
100
AcDbBlockBegin
  2
GENERATOR-100KVA
 70
0
 10
0.0
 20
0.0
 30
0.0
  3
GENERATOR-100KVA
  1

  0
LWPOLYLINE
  5
2C6
330
2C3
100
AcDbEntity
  8
0
100
AcDbPolyline
 90
4
 70
1
 10
-1.5
 20
-0.6
 10
1.5
 20
-0.6
 10
1.5
 20
0.6
 10
-1.5
 20
0.6
  0
ENDBLK
  5
2C5
330
2C3
100
AcDbEntity
  8
0
100
AcDbBlockEnd
  0
BLOCK
  5
2C8
330
2C7
100
AcDbEntity
  8
0
100
AcDbBlockBegin
  2
GENERATOR-250KVA
 70
0
 10
0.0
 20
0.0
 30
0.0
  3
GENERATOR-250KVA
  1

  0
LWPOLYLINE
  5
2CA
330
2C7
100
AcDbEntity
  8
0
100
AcDbPolyline
 90
4
 70
1
 10
-2.25
 20
-0.8
 10
2.25
 20
-0.8
 10
2.25
 20
0.8
 10
-2.25
 20
0.8
  0
ENDBLK
  5
2C9
330
2C7
100
AcDbEntity
  8
0
100
AcDbBlockEnd
  0
BLOCK
  5
2CC
330
2CB
100
AcDbEntity
  8
0
100
AcDbBlockBegin
  2
GENERATOR-500KVA
 70
0
 10
0.0
 20
0.0
 30
0.0
  3
GENERATOR-500KVA
  1

  0
LWPOLYLINE
  5
2CE
330
2CB
100
AcDbEntity
  8
0
100
AcDbPolyline
 90
4
 70
1
 10
-3.0
 20
-1.1
 10
3.0
 20
-1.1
 10
3.0
 20
1.1
 10
-3.0
 20
1.1
  0
ENDBLK
  5
2CD
330
2CB
100
AcDbEntity
  8
0
100
AcDbBlockEnd
  0
BLOCK
  5
2D0
330
2CF
100
AcDbEntity
  8
0
100
AcDbBlockBegin
  2
FUEL-TANK-2X1
 70
0
 10
0.0
 20
0.0
 30
0.0
  3
FUEL-TANK-2X1
  1

  0
LWPOLYLINE
  5
2D2
330
2CF
100
AcDbEntity
  8
0
100
AcDbPolyline
 90
4
 70
1
 10
-1.0
 20
-0.5
 10
1.0
 20
-0.5
 10
1.0
 20
0.5
 10
-1.0
 20
0.5
  0
ENDBLK
  5
2D1
330
2CF
100
AcDbEntity
  8
0
100
AcDbBlockEnd
  0
BLOCK
  5
2D4
330
2D3
100
AcDbEntity
  8
0
100
AcDbBlockBegin
  2
DISTRIBUTION-BOARD
 70
0
 10
0.0
 20
0.0
 30
0.0
  3
DISTRIBUTION-BOARD
  1

  0
LWPOLYLINE
  5
2D6
330
2D3
100
AcDbEntity
  8
0
100
AcDbPolyline
 90
4
 70
1
 10
-0.5
 20
-0.25
 10
0.5
 20
-0.25
 10
0.5
 20
0.25
 10
-0.5
 20
0.25
  0
ENDBLK
  5
2D5
330
2D3
100
AcDbEntity
  8
0
100
AcDbBlockEnd
  0
BLOCK
  5
2D8
330
2D7
100
AcDbEntity
  8
0
100
AcDbBlockBegin
  2
CABLE-RAMP-1.5M
 70
0
 10
0.0
 20
0.0
 30
0.0
  3
CABLE-RAMP-1.5M
  1

  0
LWPOLYLINE
  5
2DA
330
2D7
100
AcDbEntity
  8
0
100
AcDbPolyline
 90
4
 70
1
 10
-0.75
 20
-0.25
 10
0.75
 20
-0.25
 10
0.75
 20
0.25
 10
-0.75
 20
0.25
  0
LINE
  5
2DB
330
2D7
100
AcDbEntity
  8
0
100
AcDbLine
 10
-0.75
 20
0.0
 30
0.0
 11
0.75
 21
0.0
 31
0.0
  0
ENDBLK
  5
2D9
330
2D7
100
AcDbEntity
  8
0
100
AcDbBlockEnd
  0
BLOCK
  5
2DD
330
2DC
100
AcDbEntity
  8
0
100
AcDbBlockBegin
  2
LIGHT-TOWER-MOBILE
 70
0
 10
0.0
 20
0.0
 30
0.0
  3
LIGHT-TOWER-MOBILE
  1

  0
LWPOLYLINE
  5
2DF
330
2DC
100
AcDbEntity
  8
0
100
AcDbPolyline
 90
4
 70
1
 10
-1.0
 20
-0.7
 10
1.0
 20
-0.7
 10
1.0
 20
0.7
 10
-1.0
 20
0.7
  0
ENDBLK
  5
2DE
330
2DC
100
AcDbEntity
  8
0
100
AcDbBlockEnd
  0
BLOCK
  5
2E1
330
2E0
100
AcDbEntity
  8
0
100
AcDbBlockBegin
  2
WATER-TANK-1000L
 70
0
 10
0.0
 20
0.0
 30
0.0
  3
WATER-TANK-1000L
  1

  0
CIRCLE
  5
2E3
330
2E0
100
AcDbEntity
  8
0
100
AcDbCircle
 10
0.0
 20
0.0
 30
0.0
 40
0.6
  0
LINE
  5
2E4
330
2E0
100
AcDbEntity
  8
0
100
AcDbLine
 10
-0.6
 20
0.0
 30
0.0
 11
0.6
 21
0.0
 31
0.0
  0
LINE
  5
2E5
330
2E0
100
AcDbEntity
  8
0
100
AcDbLine
 10
0.0
 20
-0.6
 30
0.0
 11
0.0
 21
0.6
 31
0.0
  0
ENDBLK
  5
2E2
330
2E0
100
AcDbEntity
  8
0
100
AcDbBlockEnd
  0
BLOCK
  5
2E7
330
2E6
100
AcDbEntity
  8
0
100
AcDbBlockBegin
  2
WASTE-BIN-240L
 70
0
 10
0.0
 20
0.0
 30
0.0
  3
WASTE-BIN-240L
  1

  0
LWPOLYLINE
  5
2E9
330
2E6
100
AcDbEntity
  8
0
100
AcDbPolyline
 90
4
 70
1
 10
-0.35
 20
-0.3
 10
0.35
 20
-0.3
 10
0.35
 20
0.3
 10
-0.35
 20
0.3
  0
ENDBLK
  5
2E8
330
2E6
100
AcDbEntity
  8
0
100
AcDbBlockEnd
  0
BLOCK
  5
2EB
330
2EA
100
AcDbEntity
  8
0
100
AcDbBlockBegin
  2
BIN-CLUSTER-3
 70
0
 10
0.0
 20
0.0
 30
0.0
  3
BIN-CLUSTER-3
  1

  0
LWPOLYLINE
  5
2ED
330
2EA
100
AcDbEntity
  8
0
100
AcDbPolyline
 90
4
 70
1
 10
-1.05
 20
-0.3
 10
1.05
 20
-0.3
 10
1.05
 20
0.3
 10
-1.05
 20
0.3
  0
ENDBLK
  5
2EC
330
2EA
100
AcDbEntity
  8
0
100
AcDbBlockEnd
  0
BLOCK
  5
2EF
330
2EE
100
AcDbEntity
  8
0
100
AcDbBlockBegin
  2
RECYCLING-STATION-3X1
 70
0
 10
0.0
 20
0.0
 30
0.0
  3
RECYCLING-STATION-3X1
  1

  0
LWPOLYLINE
  5
2F1
330
2EE
100
AcDbEntity
  8
0
100
AcDbPolyline
 90
4
 70
1
 10
-1.5
 20
-0.5
 10
1.5
 20
-0.5
 10
1.5
 20
0.5
 10
-1.5
 20
0.5
  0
ENDBLK
  5
2F0
330
2EE
100
AcDbEntity
  8
0
100
AcDbBlockEnd
  0
BLOCK
  5
2F3
330
2F2
100
AcDbEntity
  8
0
100
AcDbBlockBegin
  2
SKIP-6M
 70
0
 10
0.0
 20
0.0
 30
0.0
  3
SKIP-6M
  1

  0
LWPOLYLINE
  5
2F5
330
2F2
100
AcDbEntity
  8
0
100
AcDbPolyline
 90
4
 70
1
 10
-3.0
 20
-1.2
 10
3.0
 20
-1.2
 10
3.0
 20
1.2
 10
-3.0
 20
1.2
  0
ENDBLK
  5
2F4
330
2F2
100
AcDbEntity
  8
0
100
AcDbBlockEnd
  0
BLOCK
  5
2F7
330
2F6
100
AcDbEntity
  8
0
100
AcDbBlockBegin
  2
CABIN-20FT
 70
0
 10
0.0
 20
0.0
 30
0.0
  3
CABIN-20FT
  1

  0
LWPOLYLINE
  5
2F9
330
2F6
100
AcDbEntity
  8
0
100
AcDbPolyline
 90
4
 70
1
 10
-3.0
 20
-1.2
 10
3.0
 20
-1.2
 10
3.0
 20
1.2
 10
-3.0
 20
1.2
  0
ENDBLK
  5
2F8
330
2F6
100
AcDbEntity
  8
0
100
AcDbBlockEnd
  0
BLOCK
  5
2FB
330
2FA
100
AcDbEntity
  8
0
100
AcDbBlockBegin
  2
CABIN-40FT
 70
0
 10
0.0
 20
0.0
 30
0.0
  3
CABIN-40FT
  1

  0
LWPOLYLINE
  5
2FD
330
2FA
100
AcDbEntity
  8
0
100
AcDbPolyline
 90
4
 70
1
 10
-6.0
 20
-1.2
 10
6.0
 20
-1.2
 10
6.0
 20
1.2
 10
-6.0
 20
1.2
  0
ENDBLK
  5
2FC
330
2FA
100
AcDbEntity
  8
0
100
AcDbBlockEnd
  0
BLOCK
  5
2FF
330
2FE
100
AcDbEntity
  8
0
100
AcDbBlockBegin
  2
OFFICE-CABIN-6X3
 70
0
 10
0.0
 20
0.0
 30
0.0
  3
OFFICE-CABIN-6X3
  1

  0
LWPOLYLINE
  5
301
330
2FE
100
AcDbEntity
  8
0
100
AcDbPolyline
 90
4
 70
1
 10
-3.0
 20
-1.5
 10
3.0
 20
-1.5
 10
3.0
 20
1.5
 10
-3.0
 20
1.5
  0
ENDBLK
  5
300
330
2FE
100
AcDbEntity
  8
0
100
AcDbBlockEnd
  0
BLOCK
  5
303
330
302
100
AcDbEntity
  8
0
100
AcDbBlockBegin
  2
STORAGE-TENT-5X10
 70
0
 10
0.0
 20
0.0
 30
0.0
  3
STORAGE-TENT-5X10
  1

  0
LWPOLYLINE
  5
305
330
302
100
AcDbEntity
  8
0
100
AcDbPolyline
 90
4
 70
1
 10
-2.5
 20
-5.0
 10
2.5
 20
-5.0
 10
2.5
 20
5.0
 10
-2.5
 20
5.0
  0
LINE
  5
306
330
302
100
AcDbEntity
  8
0
100
AcDbLine
 10
-2.5
 20
-5.0
 30
0.0
 11
2.5
 21
5.0
 31
0.0
  0
LINE
  5
307
330
302
100
AcDbEntity
  8
0
100
AcDbLine
 10
-2.5
 20
5.0
 30
0.0
 11
2.5
 21
-5.0
 31
0.0
  0
ENDBLK
  5
304
330
302
100
AcDbEntity
  8
0
100
AcDbBlockEnd
  0
BLOCK
  5
309
330
308
100
AcDbEntity
  8
0
100
AcDbBlockBegin
  2
MEDIC-POINT-3X3
 70
0
 10
0.0
 20
0.0
 30
0.0
  3
MEDIC-POINT-3X3
  1

  0
LWPOLYLINE
  5
30B
330
308
100
AcDbEntity
  8
0
100
AcDbPolyline
 90
4
 70
1
 10
-1.5
 20
-1.5
 10
1.5
 20
-1.5
 10
1.5
 20
1.5
 10
-1.5
 20
1.5
  0
ENDBLK
  5
30A
330
308
100
AcDbEntity
  8
0
100
AcDbBlockEnd
  0
BLOCK
  5
30D
330
30C
100
AcDbEntity
  8
0
100
AcDbBlockBegin
  2
AMBULANCE-BAY-6X3
 70
0
 10
0.0
 20
0.0
 30
0.0
  3
AMBULANCE-BAY-6X3
  1

  0
LWPOLYLINE
  5
30F
330
30C
100
AcDbEntity
  8
0
100
AcDbPolyline
 90
4
 70
1
 10
-3.0
 20
-1.5
 10
3.0
 20
-1.5
 10
3.0
 20
1.5
 10
-3.0
 20
1.5
  0
ENDBLK
  5
30E
330
30C
100
AcDbEntity
  8
0
100
AcDbBlockEnd
  0
BLOCK
  5
311
330
310
100
AcDbEntity
  8
0
100
AcDbBlockBegin
  2
FIRE-POINT
 70
0
 10
0.0
 20
0.0
 30
0.0
  3
FIRE-POINT
  1

  0
LWPOLYLINE
  5
313
330
310
100
AcDbEntity
  8
0
100
AcDbPolyline
 90
4
 70
1
 10
-0.5
 20
-0.5
 10
0.5
 20
-0.5
 10
0.5
 20
0.5
 10
-0.5
 20
0.5
  0
ENDBLK
  5
312
330
310
100
AcDbEntity
  8
0
100
AcDbBlockEnd
  0
BLOCK
  5
315
330
314
100
AcDbEntity
  8
0
100
AcDbBlockBegin
  2
FORKLIFT-3X1.2
 70
0
 10
0.0
 20
0.0
 30
0.0
  3
FORKLIFT-3X1.2
  1

  0
LWPOLYLINE
  5
317
330
314
100
AcDbEntity
  8
0
100
AcDbPolyline
 90
4
 70
1
 10
-1.5
 20
-0.6
 10
1.5
 20
-0.6
 10
1.5
 20
0.6
 10
-1.5
 20
0.6
  0
LINE
  5
318
330
314
100
AcDbEntity
  8
0
100
AcDbLine
 10
0.5
 20
-0.6
 30
0.0
 11
0.5
 21
0.6
 31
0.0
  0
ENDBLK
  5
316
330
314
100
AcDbEntity
  8
0
100
AcDbBlockEnd
  0
BLOCK
  5
31A
330
319
100
AcDbEntity
  8
0
100
AcDbBlockBegin
  2
GOLF-BUGGY-3X1.2
 70
0
 10
0.0
 20
0.0
 30
0.0
  3
GOLF-BUGGY-3X1.2
  1

  0
LWPOLYLINE
  5
31C
330
319
100
AcDbEntity
  8
0
100
AcDbPolyline
 90
4
 70
1
 10
-1.5
 20
-0.6
 10
1.5
 20
-0.6
 10
1.5
 20
0.6
 10
-1.5
 20
0.6
  0
LINE
  5
31D
330
319
100
AcDbEntity
  8
0
100
AcDbLine
 10
0.5
 20
-0.6
 30
0.0
 11
0.5
 21
0.6
 31
0.0
  0
ENDBLK
  5
31B
330
319
100
AcDbEntity
  8
0
100
AcDbBlockEnd
  0
BLOCK
  5
31F
330
31E
100
AcDbEntity
  8
0
100
AcDbBlockBegin
  2
CAMERA-PLATFORM-3X3
 70
0
 10
0.0
 20
0.0
 30
0.0
  3
CAMERA-PLATFORM-3X3
  1

  0
LWPOLYLINE
  5
321
330
31E
100
AcDbEntity
  8
0
100
AcDbPolyline
 90
4
 70
1
 10
-1.5
 20
-1.5
 10
1.5
 20
-1.5
 10
1.5
 20
1.5
 10
-1.5
 20
1.5
  0
ENDBLK
  5
320
330
31E
100
AcDbEntity
  8
0
100
AcDbBlockEnd
  0
BLOCK
  5
323
330
322
100
AcDbEntity
  8
0
100
AcDbBlockBegin
  2
COMMENTARY-BOOTH-4X2
 70
0
 10
0.0
 20
0.0
 30
0.0
  3
COMMENTARY-BOOTH-4X2
  1

  0
LWPOLYLINE
  5
325
330
322
100
AcDbEntity
  8
0
100
AcDbPolyline
 90
4
 70
1
 10
-2.0
 20
-1.0
 10
2.0
 20
-1.0
 10
2.0
 20
1.0
 10
-2.0
 20
1.0
  0
ENDBLK
  5
324
330
322
100
AcDbEntity
  8
0
100
AcDbBlockEnd
  0
BLOCK
  5
327
330
326
100
AcDbEntity
  8
0
100
AcDbBlockBegin
  2
PRESS-DESK-6X1
 70
0
 10
0.0
 20
0.0
 30
0.0
  3
PRESS-DESK-6X1
  1

  0
LWPOLYLINE
  5
329
330
326
100
AcDbEntity
  8
0
100
AcDbPolyline
 90
4
 70
1
 10
-3.0
 20
-0.5
 10
3.0
 20
-0.5
 10
3.0
 20
0.5
 10
-3.0
 20
0.5
  0
ENDBLK
  5
328
330
326
100
AcDbEntity
  8
0
100
AcDbBlockEnd
  0
BLOCK
  5
32B
330
32A
100
AcDbEntity
  8
0
100
AcDbBlockBegin
  2
MEDIA-CABIN-6X3
 70
0
 10
0.0
 20
0.0
 30
0.0
  3
MEDIA-CABIN-6X3
  1

  0
LWPOLYLINE
  5
32D
330
32A
100
AcDbEntity
  8
0
100
AcDbPolyline
 90
4
 70
1
 10
-3.0
 20
-1.5
 10
3.0
 20
-1.5
 10
3.0
 20
1.5
 10
-3.0
 20
1.5
  0
ENDBLK
  5
32C
330
32A
100
AcDbEntity
  8
0
100
AcDbBlockEnd
  0
BLOCK
  5
32F
330
32E
100
AcDbEntity
  8
0
100
AcDbBlockBegin
  2
MEDIA-TENT-10X10
 70
0
 10
0.0
 20
0.0
 30
0.0
  3
MEDIA-TENT-10X10
  1

  0
LWPOLYLINE
  5
331
330
32E
100
AcDbEntity
  8
0
100
AcDbPolyline
 90
4
 70
1
 10
-5.0
 20
-5.0
 10
5.0
 20
-5.0
 10
5.0
 20
5.0
 10
-5.0
 20
5.0
  0
LINE
  5
332
330
32E
100
AcDbEntity
  8
0
100
AcDbLine
 10
-5.0
 20
-5.0
 30
0.0
 11
5.0
 21
5.0
 31
0.0
  0
LINE
  5
333
330
32E
100
AcDbEntity
  8
0
100
AcDbLine
 10
-5.0
 20
5.0
 30
0.0
 11
5.0
 21
-5.0
 31
0.0
  0
ENDBLK
  5
330
330
32E
100
AcDbEntity
  8
0
100
AcDbBlockEnd
  0
BLOCK
  5
335
330
334
100
AcDbEntity
  8
0
100
AcDbBlockBegin
  2
OB-VAN-12X2.5
 70
0
 10
0.0
 20
0.0
 30
0.0
  3
OB-VAN-12X2.5
  1

  0
LWPOLYLINE
  5
337
330
334
100
AcDbEntity
  8
0
100
AcDbPolyline
 90
4
 70
1
 10
-6.0
 20
-1.25
 10
6.0
 20
-1.25
 10
6.0
 20
1.25
 10
-6.0
 20
1.25
  0
LINE
  5
338
330
334
100
AcDbEntity
  8
0
100
AcDbLine
 10
4.0
 20
-1.25
 30
0.0
 11
4.0
 21
1.25
 31
0.0
  0
ENDBLK
  5
336
330
334
100
AcDbEntity
  8
0
100
AcDbBlockEnd
  0
BLOCK
  5
33A
330
339
100
AcDbEntity
  8
0
100
AcDbBlockBegin
  2
SATELLITE-DISH-3M
 70
0
 10
0.0
 20
0.0
 30
0.0
  3
SATELLITE-DISH-3M
  1

  0
CIRCLE
  5
33C
330
339
100
AcDbEntity
  8
0
100
AcDbCircle
 10
0.0
 20
0.0
 30
0.0
 40
1.5
  0
LINE
  5
33D
330
339
100
AcDbEntity
  8
0
100
AcDbLine
 10
-1.5
 20
0.0
 30
0.0
 11
1.5
 21
0.0
 31
0.0
  0
LINE
  5
33E
330
339
100
AcDbEntity
  8
0
100
AcDbLine
 10
0.0
 20
-1.5
 30
0.0
 11
0.0
 21
1.5
 31
0.0
  0
ENDBLK
  5
33B
330
339
100
AcDbEntity
  8
0
100
AcDbBlockEnd
  0
BLOCK
  5
340
330
33F
100
AcDbEntity
  8
0
100
AcDbBlockBegin
  2
PHOTO-POSITION-2X2
 70
0
 10
0.0
 20
0.0
 30
0.0
  3
PHOTO-POSITION-2X2
  1

  0
LWPOLYLINE
  5
342
330
33F
100
AcDbEntity
  8
0
100
AcDbPolyline
 90
4
 70
1
 10
-1.0
 20
-1.0
 10
1.0
 20
-1.0
 10
1.0
 20
1.0
 10
-1.0
 20
1.0
  0
ENDBLK
  5
341
330
33F
100
AcDbEntity
  8
0
100
AcDbBlockEnd
  0
BLOCK
  5
344
330
343
100
AcDbEntity
  8
0
100
AcDbBlockBegin
  2
MIXED-ZONE-10X3
 70
0
 10
0.0
 20
0.0
 30
0.0
  3
MIXED-ZONE-10X3
  1

  0
LWPOLYLINE
  5
346
330
343
100
AcDbEntity
  8
0
100
AcDbPolyline
 90
4
 70
1
 10
-5.0
 20
-1.5
 10
5.0
 20
-1.5
 10
5.0
 20
1.5
 10
-5.0
 20
1.5
  0
ENDBLK
  5
345
330
343
100
AcDbEntity
  8
0
100
AcDbBlockEnd
  0
BLOCK
  5
348
330
347
100
AcDbEntity
  8
0
100
AcDbBlockBegin
  2
PRESS-CONF-TENT-10X8
 70
0
 10
0.0
 20
0.0
 30
0.0
  3
PRESS-CONF-TENT-10X8
  1

  0
LWPOLYLINE
  5
34A
330
347
100
AcDbEntity
  8
0
100
AcDbPolyline
 90
4
 70
1
 10
-5.0
 20
-4.0
 10
5.0
 20
-4.0
 10
5.0
 20
4.0
 10
-5.0
 20
4.0
  0
LINE
  5
34B
330
347
100
AcDbEntity
  8
0
100
AcDbLine
 10
-5.0
 20
-4.0
 30
0.0
 11
5.0
 21
4.0
 31
0.0
  0
LINE
  5
34C
330
347
100
AcDbEntity
  8
0
100
AcDbLine
 10
-5.0
 20
4.0
 30
0.0
 11
5.0
 21
-4.0
 31
0.0
  0
ENDBLK
  5
349
330
347
100
AcDbEntity
  8
0
100
AcDbBlockEnd
  0
BLOCK
  5
34E
330
34D
100
AcDbEntity
  8
0
100
AcDbBlockBegin
  2
SPONSOR-BOOTH-3X3
 70
0
 10
0.0
 20
0.0
 30
0.0
  3
SPONSOR-BOOTH-3X3
  1

  0
LWPOLYLINE
  5
350
330
34D
100
AcDbEntity
  8
0
100
AcDbPolyline
 90
4
 70
1
 10
-1.5
 20
-1.5
 10
1.5
 20
-1.5
 10
1.5
 20
1.5
 10
-1.5
 20
1.5
  0
ENDBLK
  5
34F
330
34D
100
AcDbEntity
  8
0
100
AcDbBlockEnd
  0
BLOCK
  5
352
330
351
100
AcDbEntity
  8
0
100
AcDbBlockBegin
  2
SPONSOR-BOOTH-6X3
 70
0
 10
0.0
 20
0.0
 30
0.0
  3
SPONSOR-BOOTH-6X3
  1

  0
LWPOLYLINE
  5
354
330
351
100
AcDbEntity
  8
0
100
AcDbPolyline
 90
4
 70
1
 10
-3.0
 20
-1.5
 10
3.0
 20
-1.5
 10
3.0
 20
1.5
 10
-3.0
 20
1.5
  0
ENDBLK
  5
353
330
351
100
AcDbEntity
  8
0
100
AcDbBlockEnd
  0
BLOCK
  5
356
330
355
100
AcDbEntity
  8
0
100
AcDbBlockBegin
  2
SPONSOR-PAVILION-10X10
 70
0
 10
0.0
 20
0.0
 30
0.0
  3
SPONSOR-PAVILION-10X10
  1

  0
LWPOLYLINE
  5
358
330
355
100
AcDbEntity
  8
0
100
AcDbPolyline
 90
4
 70
1
 10
-5.0
 20
-5.0
 10
5.0
 20
-5.0
 10
5.0
 20
5.0
 10
-5.0
 20
5.0
  0
LINE
  5
359
330
355
100
AcDbEntity
  8
0
100
AcDbLine
 10
-5.0
 20
-5.0
 30
0.0
 11
5.0
 21
5.0
 31
0.0
  0
LINE
  5
35A
330
355
100
AcDbEntity
  8
0
100
AcDbLine
 10
-5.0
 20
5.0
 30
0.0
 11
5.0
 21
-5.0
 31
0.0
  0
ENDBLK
  5
357
330
355
100
AcDbEntity
  8
0
100
AcDbBlockEnd
  0
BLOCK
  5
35C
330
35B
100
AcDbEntity
  8
0
100
AcDbBlockBegin
  2
SPONSOR-ARCH-8M
 70
0
 10
0.0
 20
0.0
 30
0.0
  3
SPONSOR-ARCH-8M
  1

  0
LWPOLYLINE
  5
35E
330
35B
100
AcDbEntity
  8
0
100
AcDbPolyline
 90
4
 70
1
 10
-4.0
 20
-0.5
 10
4.0
 20
-0.5
 10
4.0
 20
0.5
 10
-4.0
 20
0.5
  0
LINE
  5
35F
330
35B
100
AcDbEntity
  8
0
100
AcDbLine
 10
-4.0
 20
0.0
 30
0.0
 11
4.0
 21
0.0
 31
0.0
  0
ENDBLK
  5
35D
330
35B
100
AcDbEntity
  8
0
100
AcDbBlockEnd
  0
BLOCK
  5
361
330
360
100
AcDbEntity
  8
0
100
AcDbBlockBegin
  2
TOTEM-1X0.5
 70
0
 10
0.0
 20
0.0
 30
0.0
  3
TOTEM-1X0.5
  1

  0
LWPOLYLINE
  5
363
330
360
100
AcDbEntity
  8
0
100
AcDbPolyline
 90
4
 70
1
 10
-0.5
 20
-0.25
 10
0.5
 20
-0.25
 10
0.5
 20
0.25
 10
-0.5
 20
0.25
  0
ENDBLK
  5
362
330
360
100
AcDbEntity
  8
0
100
AcDbBlockEnd
  0
BLOCK
  5
365
330
364
100
AcDbEntity
  8
0
100
AcDbBlockBegin
  2
FLAG-POLE
 70
0
 10
0.0
 20
0.0
 30
0.0
  3
FLAG-POLE
  1

  0
CIRCLE
  5
367
330
364
100
AcDbEntity
  8
0
100
AcDbCircle
 10
0.0
 20
0.0
 30
0.0
 40
0.2
  0
LINE
  5
368
330
364
100
AcDbEntity
  8
0
100
AcDbLine
 10
-0.2
 20
0.0
 30
0.0
 11
0.2
 21
0.0
 31
0.0
  0
LINE
  5
369
330
364
100
AcDbEntity
  8
0
100
AcDbLine
 10
0.0
 20
-0.2
 30
0.0
 11
0.0
 21
0.2
 31
0.0
  0
ENDBLK
  5
366
330
364
100
AcDbEntity
  8
0
100
AcDbBlockEnd
  0
BLOCK
  5
36B
330
36A
100
AcDbEntity
  8
0
100
AcDbBlockBegin
  2
BANNER-WALL-6M
 70
0
 10
0.0
 20
0.0
 30
0.0
  3
BANNER-WALL-6M
  1

  0
LWPOLYLINE
  5
36D
330
36A
100
AcDbEntity
  8
0
100
AcDbPolyline
 90
4
 70
1
 10
-3.0
 20
-0.15
 10
3.0
 20
-0.15
 10
3.0
 20
0.15
 10
-3.0
 20
0.15
  0
LINE
  5
36E
330
36A
100
AcDbEntity
  8
0
100
AcDbLine
 10
-3.0
 20
0.0
 30
0.0
 11
3.0
 21
0.0
 31
0.0
  0
ENDBLK
  5
36C
330
36A
100
AcDbEntity
  8
0
100
AcDbBlockEnd
  0
BLOCK
  5
370
330
36F
100
AcDbEntity
  8
0
100
AcDbBlockBegin
  2
PHOTO-WALL-4M
 70
0
 10
0.0
 20
0.0
 30
0.0
  3
PHOTO-WALL-4M
  1

  0
LWPOLYLINE
  5
372
330
36F
100
AcDbEntity
  8
0
100
AcDbPolyline
 90
4
 70
1
 10
-2.0
 20
-0.15
 10
2.0
 20
-0.15
 10
2.0
 20
0.15
 10
-2.0
 20
0.15
  0
LINE
  5
373
330
36F
100
AcDbEntity
  8
0
100
AcDbLine
 10
-2.0
 20
0.0
 30
0.0
 11
2.0
 21
0.0
 31
0.0
  0
ENDBLK
  5
371
330
36F
100
AcDbEntity
  8
0
100
AcDbBlockEnd
  0
BLOCK
  5
375
330
374
100
AcDbEntity
  8
0
100
AcDbBlockBegin
  2
MERCH-BOOTH-4X3
 70
0
 10
0.0
 20
0.0
 30
0.0
  3
MERCH-BOOTH-4X3
  1

  0
LWPOLYLINE
  5
377
330
374
100
AcDbEntity
  8
0
100
AcDbPolyline
 90
4
 70
1
 10
-2.0
 20
-1.5
 10
2.0
 20
-1.5
 10
2.0
 20
1.5
 10
-2.0
 20
1.5
  0
ENDBLK
  5
376
330
374
100
AcDbEntity
  8
0
100
AcDbBlockEnd
  0
BLOCK
  5
379
330
378
100
AcDbEntity
  8
0
100
AcDbBlockBegin
  2
INFO-KIOSK-2X2
 70
0
 10
0.0
 20
0.0
 30
0.0
  3
INFO-KIOSK-2X2
  1

  0
LWPOLYLINE
  5
37B
330
378
100
AcDbEntity
  8
0
100
AcDbPolyline
 90
4
 70
1
 10
-1.0
 20
-1.0
 10
1.0
 20
-1.0
 10
1.0
 20
1.0
 10
-1.0
 20
1.0
  0
ENDBLK
  5
37A
330
378
100
AcDbEntity
  8
0
100
AcDbBlockEnd
  0
BLOCK
  5
37D
330
37C
100
AcDbEntity
  8
0
100
AcDbBlockBegin
  2
ACTIVATION-POD-5X5
 70
0
 10
0.0
 20
0.0
 30
0.0
  3
ACTIVATION-POD-5X5
  1

  0
LWPOLYLINE
  5
37F
330
37C
100
AcDbEntity
  8
0
100
AcDbPolyline
 90
4
 70
1
 10
-2.5
 20
-2.5
 10
2.5
 20
-2.5
 10
2.5
 20
2.5
 10
-2.5
 20
2.5
  0
ENDBLK
  5
37E
330
37C
100
AcDbEntity
  8
0
100
AcDbBlockEnd
  0
BLOCK
  5
381
330
380
100
AcDbEntity
  8
0
100
AcDbBlockBegin
  2
VR-POD-3X3
 70
0
 10
0.0
 20
0.0
 30
0.0
  3
VR-POD-3X3
  1

  0
LWPOLYLINE
  5
383
330
380
100
AcDbEntity
  8
0
100
AcDbPolyline
 90
4
 70
1
 10
-1.5
 20
-1.5
 10
1.5
 20
-1.5
 10
1.5
 20
1.5
 10
-1.5
 20
1.5
  0
ENDBLK
  5
382
330
380
100
AcDbEntity
  8
0
100
AcDbBlockEnd
  0
BLOCK
  5
385
330
384
100
AcDbEntity
  8
0
100
AcDbBlockBegin
  2
KIDS-ZONE-10X10
 70
0
 10
0.0
 20
0.0
 30
0.0
  3
KIDS-ZONE-10X10
  1

  0
LWPOLYLINE
  5
387
330
384
100
AcDbEntity
  8
0
100
AcDbPolyline
 90
4
 70
1
 10
-5.0
 20
-5.0
 10
5.0
 20
-5.0
 10
5.0
 20
5.0
 10
-5.0
 20
5.0
  0
ENDBLK
  5
386
330
384
100
AcDbEntity
  8
0
100
AcDbBlockEnd
  0
BLOCK
  5
389
330
388
100
AcDbEntity
  8
0
100
AcDbBlockBegin
  2
STAGE-MEET-GREET-6X4
 70
0
 10
0.0
 20
0.0
 30
0.0
  3
STAGE-MEET-GREET-6X4
  1

  0
LWPOLYLINE
  5
38B
330
388
100
AcDbEntity
  8
0
100
AcDbPolyline
 90
4
 70
1
 10
-3.0
 20
-2.0
 10
3.0
 20
-2.0
 10
3.0
 20
2.0
 10
-3.0
 20
2.0
  0
ENDBLK
  5
38A
330
388
100
AcDbEntity
  8
0
100
AcDbBlockEnd
  0
BLOCK
  5
38D
330
38C
100
AcDbEntity
  8
0
100
AcDbBlockBegin
  2
PONTOON-10X3
 70
0
 10
0.0
 20
0.0
 30
0.0
  3
PONTOON-10X3
  1

  0
LWPOLYLINE
  5
38F
330
38C
100
AcDbEntity
  8
0
100
AcDbPolyline
 90
4
 70
1
 10
-5.0
 20
-1.5
 10
5.0
 20
-1.5
 10
5.0
 20
1.5
 10
-5.0
 20
1.5
  0
ENDBLK
  5
38E
330
38C
100
AcDbEntity
  8
0
100
AcDbBlockEnd
  0
BLOCK
  5
391
330
390
100
AcDbEntity
  8
0
100
AcDbBlockBegin
  2
PONTOON-20X3
 70
0
 10
0.0
 20
0.0
 30
0.0
  3
PONTOON-20X3
  1

  0
LWPOLYLINE
  5
393
330
390
100
AcDbEntity
  8
0
100
AcDbPolyline
 90
4
 70
1
 10
-10.0
 20
-1.5
 10
10.0
 20
-1.5
 10
10.0
 20
1.5
 10
-10.0
 20
1.5
  0
ENDBLK
  5
392
330
390
100
AcDbEntity
  8
0
100
AcDbBlockEnd
  0
BLOCK
  5
395
330
394
100
AcDbEntity
  8
0
100
AcDbBlockBegin
  2
BOAT-CRADLE-6X3
 70
0
 10
0.0
 20
0.0
 30
0.0
  3
BOAT-CRADLE-6X3
  1

  0
LWPOLYLINE
  5
397
330
394
100
AcDbEntity
  8
0
100
AcDbPolyline
 90
4
 70
1
 10
-3.0
 20
-1.5
 10
3.0
 20
-1.5
 10
3.0
 20
1.5
 10
-3.0
 20
1.5
  0
ENDBLK
  5
396
330
394
100
AcDbEntity
  8
0
100
AcDbBlockEnd
  0
BLOCK
  5
399
330
398
100
AcDbEntity
  8
0
100
AcDbBlockBegin
  2
BOAT-TENT-12X8
 70
0
 10
0.0
 20
0.0
 30
0.0
  3
BOAT-TENT-12X8
  1

  0
LWPOLYLINE
  5
39B
330
398
100
AcDbEntity
  8
0
100
AcDbPolyline
 90
4
 70
1
 10
-6.0
 20
-4.0
 10
6.0
 20
-4.0
 10
6.0
 20
4.0
 10
-6.0
 20
4.0
  0
LINE
  5
39C
330
398
100
AcDbEntity
  8
0
100
AcDbLine
 10
-6.0
 20
-4.0
 30
0.0
 11
6.0
 21
4.0
 31
0.0
  0
LINE
  5
39D
330
398
100
AcDbEntity
  8
0
100
AcDbLine
 10
-6.0
 20
4.0
 30
0.0
 11
6.0
 21
-4.0
 31
0.0
  0
ENDBLK
  5
39A
330
398
100
AcDbEntity
  8
0
100
AcDbBlockEnd
  0
BLOCK
  5
39F
330
39E
100
AcDbEntity
  8
0
100
AcDbBlockBegin
  2
CRANE-PAD-8X8
 70
0
 10
0.0
 20
0.0
 30
0.0
  3
CRANE-PAD-8X8
  1

  0
LWPOLYLINE
  5
3A1
330
39E
100
AcDbEntity
  8
0
100
AcDbPolyline
 90
4
 70
1
 10
-4.0
 20
-4.0
 10
4.0
 20
-4.0
 10
4.0
 20
4.0
 10
-4.0
 20
4.0
  0
ENDBLK
  5
3A0
330
39E
100
AcDbEntity
  8
0
100
AcDbBlockEnd
  0
BLOCK
  5
3A3
330
3A2
100
AcDbEntity
  8
0
100
AcDbBlockBegin
  2
SLIPWAY-8X12
 70
0
 10
0.0
 20
0.0
 30
0.0
  3
SLIPWAY-8X12
  1

  0
LWPOLYLINE
  5
3A5
330
3A2
100
AcDbEntity
  8
0
100
AcDbPolyline
 90
4
 70
1
 10
-4.0
 20
-6.0
 10
4.0
 20
-6.0
 10
4.0
 20
6.0
 10
-4.0
 20
6.0
  0
ENDBLK
  5
3A4
330
3A2
100
AcDbEntity
  8
0
100
AcDbBlockEnd
  0
BLOCK
  5
3A7
330
3A6
100
AcDbEntity
  8
0
100
AcDbBlockBegin
  2
PIT-BAY-8X6
 70
0
 10
0.0
 20
0.0
 30
0.0
  3
PIT-BAY-8X6
  1

  0
LWPOLYLINE
  5
3A9
330
3A6
100
AcDbEntity
  8
0
100
AcDbPolyline
 90
4
 70
1
 10
-4.0
 20
-3.0
 10
4.0
 20
-3.0
 10
4.0
 20
3.0
 10
-4.0
 20
3.0
  0
ENDBLK
  5
3A8
330
3A6
100
AcDbEntity
  8
0
100
AcDbBlockEnd
  0
BLOCK
  5
3AB
330
3AA
100
AcDbEntity
  8
0
100
AcDbBlockBegin
  2
TEAM-TENT-10X10
 70
0
 10
0.0
 20
0.0
 30
0.0
  3
TEAM-TENT-10X10
  1

  0
LWPOLYLINE
  5
3AD
330
3AA
100
AcDbEntity
  8
0
100
AcDbPolyline
 90
4
 70
1
 10
-5.0
 20
-5.0
 10
5.0
 20
-5.0
 10
5.0
 20
5.0
 10
-5.0
 20
5.0
  0
LINE
  5
3AE
330
3AA
100
AcDbEntity
  8
0
100
AcDbLine
 10
-5.0
 20
-5.0
 30
0.0
 11
5.0
 21
5.0
 31
0.0
  0
LINE
  5
3AF
330
3AA
100
AcDbEntity
  8
0
100
AcDbLine
 10
-5.0
 20
5.0
 30
0.0
 11
5.0
 21
-5.0
 31
0.0
  0
ENDBLK
  5
3AC
330
3AA
100
AcDbEntity
  8
0
100
AcDbBlockEnd
  0
BLOCK
  5
3B1
330
3B0
100
AcDbEntity
  8
0
100
AcDbBlockBegin
  2
SCRUTINEERING-BAY-6X6
 70
0
 10
0.0
 20
0.0
 30
0.0
  3
SCRUTINEERING-BAY-6X6
  1

  0
LWPOLYLINE
  5
3B3
330
3B0
100
AcDbEntity
  8
0
100
AcDbPolyline
 90
4
 70
1
 10
-3.0
 20
-3.0
 10
3.0
 20
-3.0
 10
3.0
 20
3.0
 10
-3.0
 20
3.0
  0
ENDBLK
  5
3B2
330
3B0
100
AcDbEntity
  8
0
100
AcDbBlockEnd
  0
BLOCK
  5
3B5
330
3B4
100
AcDbEntity
  8
0
100
AcDbBlockBegin
  2
RACE-CONTROL-6X4
 70
0
 10
0.0
 20
0.0
 30
0.0
  3
RACE-CONTROL-6X4
  1

  0
LWPOLYLINE
  5
3B7
330
3B4
100
AcDbEntity
  8
0
100
AcDbPolyline
 90
4
 70
1
 10
-3.0
 20
-2.0
 10
3.0
 20
-2.0
 10
3.0
 20
2.0
 10
-3.0
 20
2.0
  0
ENDBLK
  5
3B6
330
3B4
100
AcDbEntity
  8
0
100
AcDbBlockEnd
  0
BLOCK
  5
3B9
330
3B8
100
AcDbEntity
  8
0
100
AcDbBlockBegin
  2
PODIUM-6X4
 70
0
 10
0.0
 20
0.0
 30
0.0
  3
PODIUM-6X4
  1

  0
LWPOLYLINE
  5
3BB
330
3B8
100
AcDbEntity
  8
0
100
AcDbPolyline
 90
4
 70
1
 10
-3.0
 20
-2.0
 10
3.0
 20
-2.0
 10
3.0
 20
2.0
 10
-3.0
 20
2.0
  0
ENDBLK
  5
3BA
330
3B8
100
AcDbEntity
  8
0
100
AcDbBlockEnd
  0
BLOCK
  5
3BD
330
3BC
100
AcDbEntity
  8
0
100
AcDbBlockBegin
  2
START-GANTRY-12M
 70
0
 10
0.0
 20
0.0
 30
0.0
  3
START-GANTRY-12M
  1

  0
LWPOLYLINE
  5
3BF
330
3BC
100
AcDbEntity
  8
0
100
AcDbPolyline
 90
4
 70
1
 10
-6.0
 20
-0.5
 10
6.0
 20
-0.5
 10
6.0
 20
0.5
 10
-6.0
 20
0.5
  0
LINE
  5
3C0
330
3BC
100
AcDbEntity
  8
0
100
AcDbLine
 10
-6.0
 20
0.0
 30
0.0
 11
6.0
 21
0.0
 31
0.0
  0
ENDBLK
  5
3BE
330
3BC
100
AcDbEntity
  8
0
100
AcDbBlockEnd
  0
BLOCK
  5
3C2
330
3C1
100
AcDbEntity
  8
0
100
AcDbBlockBegin
  2
COURSE-MARKER-BUOY
 70
0
 10
0.0
 20
0.0
 30
0.0
  3
COURSE-MARKER-BUOY
  1

  0
CIRCLE
  5
3C4
330
3C1
100
AcDbEntity
  8
0
100
AcDbCircle
 10
0.0
 20
0.0
 30
0.0
 40
0.5
  0
LINE
  5
3C5
330
3C1
100
AcDbEntity
  8
0
100
AcDbLine
 10
-0.5
 20
0.0
 30
0.0
 11
0.5
 21
0.0
 31
0.0
  0
LINE
  5
3C6
330
3C1
100
AcDbEntity
  8
0
100
AcDbLine
 10
0.0
 20
-0.5
 30
0.0
 11
0.0
 21
0.5
 31
0.0
  0
ENDBLK
  5
3C3
330
3C1
100
AcDbEntity
  8
0
100
AcDbBlockEnd
  0
BLOCK
  5
3C8
330
3C7
100
AcDbEntity
  8
0
100
AcDbBlockBegin
  2
PALM-4M
 70
0
 10
0.0
 20
0.0
 30
0.0
  3
PALM-4M
  1

  0
CIRCLE
  5
3CA
330
3C7
100
AcDbEntity
  8
0
100
AcDbCircle
 10
0.0
 20
0.0
 30
0.0
 40
2.0
  0
LINE
  5
3CB
330
3C7
100
AcDbEntity
  8
0
100
AcDbLine
 10
-2.0
 20
0.0
 30
0.0
 11
2.0
 21
0.0
 31
0.0
  0
LINE
  5
3CC
330
3C7
100
AcDbEntity
  8
0
100
AcDbLine
 10
0.0
 20
-2.0
 30
0.0
 11
0.0
 21
2.0
 31
0.0
  0
ENDBLK
  5
3C9
330
3C7
100
AcDbEntity
  8
0
100
AcDbBlockEnd
  0
BLOCK
  5
3CE
330
3CD
100
AcDbEntity
  8
0
100
AcDbBlockBegin
  2
TREE-5M
 70
0
 10
0.0
 20
0.0
 30
0.0
  3
TREE-5M
  1

  0
CIRCLE
  5
3D0
330
3CD
100
AcDbEntity
  8
0
100
AcDbCircle
 10
0.0
 20
0.0
 30
0.0
 40
2.5
  0
LINE
  5
3D1
330
3CD
100
AcDbEntity
  8
0
100
AcDbLine
 10
-2.5
 20
0.0
 30
0.0
 11
2.5
 21
0.0
 31
0.0
  0
LINE
  5
3D2
330
3CD
100
AcDbEntity
  8
0
100
AcDbLine
 10
0.0
 20
-2.5
 30
0.0
 11
0.0
 21
2.5
 31
0.0
  0
ENDBLK
  5
3CF
330
3CD
100
AcDbEntity
  8
0
100
AcDbBlockEnd
  0
BLOCK
  5
3D4
330
3D3
100
AcDbEntity
  8
0
100
AcDbBlockBegin
  2
PLANTER-1X1
 70
0
 10
0.0
 20
0.0
 30
0.0
  3
PLANTER-1X1
  1

  0
LWPOLYLINE
  5
3D6
330
3D3
100
AcDbEntity
  8
0
100
AcDbPolyline
 90
4
 70
1
 10
-0.5
 20
-0.5
 10
0.5
 20
-0.5
 10
0.5
 20
0.5
 10
-0.5
 20
0.5
  0
ENDBLK
  5
3D5
330
3D3
100
AcDbEntity
  8
0
100
AcDbBlockEnd
  0
BLOCK
  5
3D8
330
3D7
100
AcDbEntity
  8
0
100
AcDbBlockBegin
  2
PLANTER-BOX-2X0.6
 70
0
 10
0.0
 20
0.0
 30
0.0
  3
PLANTER-BOX-2X0.6
  1

  0
LWPOLYLINE
  5
3DA
330
3D7
100
AcDbEntity
  8
0
100
AcDbPolyline
 90
4
 70
1
 10
-1.0
 20
-0.3
 10
1.0
 20
-0.3
 10
1.0
 20
0.3
 10
-1.0
 20
0.3
  0
ENDBLK
  5
3D9
330
3D7
100
AcDbEntity
  8
0
100
AcDbBlockEnd
  0
BLOCK
  5
3DC
330
3DB
100
AcDbEntity
  8
0
100
AcDbBlockBegin
  2
TURF-AREA-10X10
 70
0
 10
0.0
 20
0.0
 30
0.0
  3
TURF-AREA-10X10
  1

  0
LWPOLYLINE
  5
3DE
330
3DB
100
AcDbEntity
  8
0
100
AcDbPolyline
 90
4
 70
1
 10
-5.0
 20
-5.0
 10
5.0
 20
-5.0
 10
5.0
 20
5.0
 10
-5.0
 20
5.0
  0
ENDBLK
  5
3DD
330
3DB
100
AcDbEntity
  8
0
100
AcDbBlockEnd
  0
BLOCK
  5
3E0
330
3DF
100
AcDbEntity
  8
0
100
AcDbBlockBegin
  2
GRAVEL-PATH-10X2
 70
0
 10
0.0
 20
0.0
 30
0.0
  3
GRAVEL-PATH-10X2
  1

  0
LWPOLYLINE
  5
3E2
330
3DF
100
AcDbEntity
  8
0
100
AcDbPolyline
 90
4
 70
1
 10
-5.0
 20
-1.0
 10
5.0
 20
-1.0
 10
5.0
 20
1.0
 10
-5.0
 20
1.0
  0
ENDBLK
  5
3E1
330
3DF
100
AcDbEntity
  8
0
100
AcDbBlockEnd
  0
ENDSEC
  0
SECTION
  2
ENTITIES
  0
ENDSEC
  0
SECTION
  2
OBJECTS
  0
DICTIONARY
  5
A
330
0
100
AcDbDictionary
281
1
  3
ACAD_COLOR
350
B
  3
ACAD_GROUP
350
C
  3
ACAD_LAYOUT
350
D
  3
ACAD_MATERIAL
350
E
  3
ACAD_MLEADERSTYLE
350
F
  3
ACAD_MLINESTYLE
350
10
  3
ACAD_PLOTSETTINGS
350
11
  3
ACAD_PLOTSTYLENAME
350
12
  3
ACAD_SCALELIST
350
14
  3
ACAD_TABLESTYLE
350
15
  3
ACAD_VISUALSTYLE
350
16
  3
EZDXF_META
350
2D
  0
DICTIONARY
  5
B
330
A
100
AcDbDictionary
281
1
  0
DICTIONARY
  5
C
330
A
100
AcDbDictionary
281
1
  0
DICTIONARY
  5
D
330
A
100
AcDbDictionary
281
1
  3
Model
350
1A
  3
Layout1
350
1E
  0
DICTIONARY
  5
E
330
A
100
AcDbDictionary
281
1
  3
ByBlock
350
1F
  3
ByLayer
350
20
  3
Global
350
21
  0
DICTIONARY
  5
F
330
A
100
AcDbDictionary
281
1
  3
Standard
350
2C
  0
DICTIONARY
  5
10
330
A
100
AcDbDictionary
281
1
  3
Standard
350
22
  0
DICTIONARY
  5
11
330
A
100
AcDbDictionary
281
1
  0
ACDBDICTIONARYWDFLT
  5
12
330
A
100
AcDbDictionary
281
1
  3
Normal
350
13
100
AcDbDictionaryWithDefault
340
13
  0
ACDBPLACEHOLDER
  5
13
330
12
  0
DICTIONARY
  5
14
330
A
100
AcDbDictionary
281
1
  0
DICTIONARY
  5
15
330
A
100
AcDbDictionary
281
1
  0
DICTIONARY
  5
16
330
A
100
AcDbDictionary
281
1
  3
2dWireframe
350
5A
  3
Basic
350
5B
  3
Brighten
350
5C
  3
ColorChange
350
5D
  3
Conceptual
350
5E
  3
Dim
350
5F
  3
EdgeColorOff
350
60
  3
Facepattern
350
61
  3
Flat
350
62
  3
FlatWithEdges
350
63
  3
Gouraud
350
64
  3
GouraudWithEdges
350
65
  3
Hidden
350
66
  3
JitterOff
350
67
  3
Linepattern
350
68
  3
Modeling
350
69
  3
OverhangOff
350
6A
  3
Realistic
350
6B
  3
Shaded
350
6C
  3
Shaded with edges
350
6D
  3
Shades of Gray
350
6E
  3
Sketchy
350
6F
  3
Thicken
350
70
  3
Wireframe
350
71
  3
X-Ray
350
72
  0
LAYOUT
  5
1A
330
D
100
AcDbPlotSettings
  1

  4
A3
  6

 40
7.5
 41
20.0
 42
7.5
 43
20.0
 44
420.0
 45
297.0
 46
0.0
 47
0.0
 48
0.0
 49
0.0
140
0.0
141
0.0
142
1.0
143
1.0
 70
1024
 72
1
 73
0
 74
5
  7

 75
16
 76
0
 77
2
 78
300
147
1.0
148
0.0
149
0.0
100
AcDbLayout
  1
Model
 70
1
 71
0
 10
0.0
 20
0.0
 11
420.0
 21
297.0
 12
0.0
 22
0.0
 32
0.0
 14
1e+20
 24
1e+20
 34
1e+20
 15
-1e+20
 25
-1e+20
 35
-1e+20
146
0.0
 13
0.0
 23
0.0
 33
0.0
 16
1.0
 26
0.0
 36
0.0
 17
0.0
 27
1.0
 37
0.0
 76
1
330
17
  0
LAYOUT
  5
1E
330
D
100
AcDbPlotSettings
  1

  4
A3
  6

 40
7.5
 41
20.0
 42
7.5
 43
20.0
 44
420.0
 45
297.0
 46
0.0
 47
0.0
 48
0.0
 49
0.0
140
0.0
141
0.0
142
1.0
143
1.0
 70
0
 72
1
 73
0
 74
5
  7

 75
16
 76
0
 77
2
 78
300
147
1.0
148
0.0
149
0.0
100
AcDbLayout
  1
Layout1
 70
1
 71
1
 10
0.0
 20
0.0
 11
420.0
 21
297.0
 12
0.0
 22
0.0
 32
0.0
 14
1e+20
 24
1e+20
 34
1e+20
 15
-1e+20
 25
-1e+20
 35
-1e+20
146
0.0
 13
0.0
 23
0.0
 33
0.0
 16
1.0
 26
0.0
 36
0.0
 17
0.0
 27
1.0
 37
0.0
 76
1
330
1B
  0
MATERIAL
  5
1F
102
{ACAD_REACTORS
330
E
102
}
330
E
100
AcDbMaterial
  1
ByBlock
  2

 70
0
 40
1.0
 71
1
 41
1.0
 91
-1023410177
 42
1.0
 72
1
  3

 73
1
 74
1
 75
1
 44
0.5
 73
0
 45
1.0
 46
1.0
 77
1
  4

 78
1
 79
1
170
1
 48
1.0
171
1
  6

172
1
173
1
174
1
140
1.0
141
1.0
175
1
  7

176
1
177
1
178
1
143
1.0
179
1
  8

270
1
271
1
272
1
145
1.0
146
1.0
273
1
  9

274
1
275
1
276
1
 42
1.0
 72
1
  3

 73
1
 74
1
 75
1
 94
63
  0
MATERIAL
  5
20
102
{ACAD_REACTORS
330
E
102
}
330
E
100
AcDbMaterial
  1
ByLayer
  2

 70
0
 40
1.0
 71
1
 41
1.0
 91
-1023410177
 42
1.0
 72
1
  3

 73
1
 74
1
 75
1
 44
0.5
 73
0
 45
1.0
 46
1.0
 77
1
  4

 78
1
 79
1
170
1
 48
1.0
171
1
  6

172
1
173
1
174
1
140
1.0
141
1.0
175
1
  7

176
1
177
1
178
1
143
1.0
179
1
  8

270
1
271
1
272
1
145
1.0
146
1.0
273
1
  9

274
1
275
1
276
1
 42
1.0
 72
1
  3

 73
1
 74
1
 75
1
 94
63
  0
MATERIAL
  5
21
102
{ACAD_REACTORS
330
E
102
}
330
E
100
AcDbMaterial
  1
Global
  2

 70
0
 40
1.0
 71
1
 41
1.0
 91
-1023410177
 42
1.0
 72
1
  3

 73
1
 74
1
 75
1
 44
0.5
 73
0
 45
1.0
 46
1.0
 77
1
  4

 78
1
 79
1
170
1
 48
1.0
171
1
  6

172
1
173
1
174
1
140
1.0
141
1.0
175
1
  7

176
1
177
1
178
1
143
1.0
179
1
  8

270
1
271
1
272
1
145
1.0
146
1.0
273
1
  9

274
1
275
1
276
1
 42
1.0
 72
1
  3

 73
1
 74
1
 75
1
 94
63
  0
MLINESTYLE
  5
22
102
{ACAD_REACTORS
330
10
102
}
330
10
100
AcDbMlineStyle
  2
Standard
 70
0
  3

 62
256
 51
90.0
 52
90.0
 71
2
 49
0.5
 62
256
  6
BYLAYER
 49
-0.5
 62
256
  6
BYLAYER
  0
MLEADERSTYLE
  5
2C
102
{ACAD_REACTORS
330
F
102
}
330
F
100
AcDbMLeaderStyle
179
2
170
2
171
1
172
0
 90
2
 40
0.0
 41
0.0
173
1
 91
-1056964608
 92
-2
290
1
 42
2.0
291
1
 43
8.0
  3
Standard
 44
4.0
300

342
29
174
1
175
1
176
0
178
1
 93
-1056964608
 45
4.0
292
0
297
0
 46
4.0
 94
-1056964608
 47
1.0
 49
1.0
140
1.0
294
1
141
0.0
177
0
142
1.0
295
0
296
0
143
3.75
271
0
272
9
273
9
  0
DICTIONARY
  5
2D
330
A
100
AcDbDictionary
280
1
281
1
  3
CREATED_BY_EZDXF
350
2E
  3
WRITTEN_BY_EZDXF
350
3E5
  0
DICTIONARYVAR
  5
2E
330
2D
100
DictionaryVariables
280
0
  1
1.4.2 @ 2026-08-27T15:19:44.487267+00:00
  0
VISUALSTYLE
  5
5A
102
{ACAD_REACTORS
330
16
102
}
330
16
100
AcDbVisualStyle
  2
2dWireframe
 70
4
177
3
291
0
 70
58
 90
2
176
1
 90
2
176
1
 90
0
176
1
 90
0
176
1
 40
0.6
176
1
 40
30.0
176
1
 62
7
420
16777215
176
1
 90
1
176
1
 90
4
176
1
 62
7
176
1
 62
257
176
1
 90
1
176
1
 90
1
176
1
 40
1.0
176
1
 90
8
176
1
 62
7
176
1
 40
1.0
176
1
 90
1
176
1
 90
6
176
1
 90
2
176
1
 62
7
176
1
 90
5
176
1
 90
0
176
1
 90
0
176
1
290
0
176
1
 90
1
176
1
 40
0.0
176
1
 90
0
176
1
290
1
176
1
290
1
176
1
290
0
176
1
290
0
176
1
290
0
176
1
290
0
176
1
290
0
176
1
290
0
176
1
290
0
176
1
 90
50
176
1
 40
0.0
176
1
 40
1.0
176
1
 90
0
176
1
 62
18
420
0
176
1
 90
50
176
1
 90
3
176
1
 62
5
420
255
176
1
290
0
176
1
 90
50
176
1
 90
50
176
1
 90
50
176
1
290
0
176
1
 90
50
176
1
 62
256
176
0
 40
1.0
176
0
 90
2
176
1
  1
strokes_ogs.tif
176
1
290
0
176
1
 40
1.0
176
1
 40
1.0
176
1
  0
VISUALSTYLE
  5
5B
102
{ACAD_REACTORS
330
16
102
}
330
16
100
AcDbVisualStyle
  2
Basic
 70
7
177
3
291
1
 70
58
 90
2
176
1
 90
2
176
1
 90
0
176
1
 90
1
176
1
 40
0.6
176
1
 40
30.0
176
1
 62
7
420
16777215
176
1
 90
1
176
1
 90
4
176
1
 62
7
176
1
 62
257
176
1
 90
1
176
1
 90
1
176
1
 40
1.0
176
1
 90
8
176
1
 62
7
176
1
 40
1.0
176
1
 90
1
176
1
 90
6
176
1
 90
2
176
1
 62
7
176
1
 90
5
176
1
 90
0
176
1
 90
0
176
1
290
0
176
1
 90
1
176
1
 40
0.0
176
1
 90
0
176
1
290
0
176
1
290
1
176
1
290
1
176
1
290
0
176
1
290
0
176
1
290
0
176
1
290
0
176
1
290
0
176
1
290
0
176
1
 90
50
176
1
 40
0.0
176
1
 40
1.0
176
1
 90
0
176
1
 62
18
420
0
176
1
 90
50
176
1
 90
3
176
1
 62
5
420
255
176
1
290
0
176
1
 90
50
176
1
 90
50
176
1
 90
50
176
1
290
0
176
1
 90
50
176
1
 62
256
176
0
 40
1.0
176
0
 90
2
176
1
  1
strokes_ogs.tif
176
1
290
0
176
1
 40
1.0
176
1
 40
1.0
176
1
  0
VISUALSTYLE
  5
5C
102
{ACAD_REACTORS
330
16
102
}
330
16
100
AcDbVisualStyle
  2
Brighten
 70
12
177
3
291
1
 70
58
 90
2
176
1
 90
2
176
1
 90
0
176
1
 90
2
176
1
 40
0.6
176
1
 40
30.0
176
1
 62
7
420
16777215
176
1
 90
1
176
1
 90
4
176
1
 62
7
176
1
 62
257
176
1
 90
1
176
1
 90
1
176
1
 40
1.0
176
1
 90
8
176
1
 62
7
176
1
 40
1.0
176
1
 90
1
176
1
 90
6
176
1
 90
2
176
1
 62
7
176
1
 90
5
176
1
 90
0
176
1
 90
0
176
1
290
0
176
1
 90
1
176
1
 40
0.0
176
1
 90
0
176
1
290
0
176
1
290
1
176
1
290
1
176
1
290
0
176
1
290
0
176
1
290
0
176
1
290
0
176
1
290
0
176
1
290
0
176
1
 90
50
176
1
 40
0.0
176
1
 40
1.0
176
1
 90
0
176
1
 62
18
420
0
176
1
 90
50
176
1
 90
3
176
1
 62
5
420
255
176
1
290
0
176
1
 90
50
176
1
 90
50
176
1
 90
50
176
1
290
0
176
1
 90
50
176
1
 62
256
176
0
 40
1.0
176
0
 90
2
176
1
  1
strokes_ogs.tif
176
1
290
0
176
1
 40
1.0
176
1
 40
1.0
176
1
  0
VISUALSTYLE
  5
5D
102
{ACAD_REACTORS
330
16
102
}
330
16
100
AcDbVisualStyle
  2
ColorChange
 70
16
177
3
291
1
 70
58
 90
2
176
1
 90
2
176
1
 90
0
176
1
 90
2
176
1
 40
0.6
176
1
 40
30.0
176
1
 62
7
420
16777215
176
1
 90
1
176
1
 90
4
176
1
 62
7
176
1
 62
257
176
1
 90
1
176
1
 90
1
176
1
 40
1.0
176
1
 90
8
176
1
 62
7
176
1
 40
1.0
176
1
 90
1
176
1
 90
6
176
1
 90
2
176
1
 62
7
176
1
 90
5
176
1
 90
0
176
1
 90
0
176
1
290
0
176
1
 90
1
176
1
 40
0.0
176
1
 90
0
176
1
290
0
176
1
290
1
176
1
290
1
176
1
290
0
176
1
290
0
176
1
290
0
176
1
290
0
176
1
290
0
176
1
290
0
176
1
 90
50
176
1
 40
0.0
176
1
 40
1.0
176
1
 90
0
176
1
 62
18
420
0
176
1
 90
50
176
1
 90
3
176
1
 62
5
420
255
176
1
290
0
176
1
 90
50
176
1
 90
50
176
1
 90
50
176
1
290
0
176
1
 90
50
176
1
 62
256
176
0
 40
1.0
176
0
 90
2
176
1
  1
strokes_ogs.tif
176
1
290
0
176
1
 40
1.0
176
1
 40
1.0
176
1
  0
VISUALSTYLE
  5
5E
102
{ACAD_REACTORS
330
16
102
}
330
16
100
AcDbVisualStyle
  2
Conceptual
 70
9
177
3
291
0
 70
58
 90
2
176
1
 90
2
176
1
 90
0
176
1
 90
3
176
1
 40
0.6
176
1
 40
30.0
176
1
 62
7
420
16777215
176
1
 90
1
176
1
 90
4
176
1
 62
7
176
1
 62
257
176
1
 90
1
176
1
 90
1
176
1
 40
1.0
176
1
 90
8
176
1
 62
7
176
1
 40
1.0
176
1
 90
1
176
1
 90
6
176
1
 90
2
176
1
 62
7
176
1
 90
5
176
1
 90
0
176
1
 90
0
176
1
290
0
176
1
 90
1
176
1
 40
0.0
176
1
 90
0
176
1
290
0
176
1
290
1
176
1
290
1
176
1
290
0
176
1
290
0
176
1
290
0
176
1
290
0
176
1
290
0
176
1
290
0
176
1
 90
50
176
1
 40
0.0
176
1
 40
1.0
176
1
 90
0
176
1
 62
18
420
0
176
1
 90
50
176
1
 90
3
176
1
 62
5
420
255
176
1
290
0
176
1
 90
50
176
1
 90
50
176
1
 90
50
176
1
290
0
176
1
 90
50
176
1
 62
256
176
0
 40
1.0
176
0
 90
2
176
1
  1
strokes_ogs.tif
176
1
290
0
176
1
 40
1.0
176
1
 40
1.0
176
1
  0
VISUALSTYLE
  5
5F
102
{ACAD_REACTORS
330
16
102
}
330
16
100
AcDbVisualStyle
  2
Dim
 70
11
177
3
291
1
 70
58
 90
2
176
1
 90
2
176
1
 90
0
176
1
 90
2
176
1
 40
0.6
176
1
 40
30.0
176
1
 62
7
420
16777215
176
1
 90
1
176
1
 90
4
176
1
 62
7
176
1
 62
257
176
1
 90
1
176
1
 90
1
176
1
 40
1.0
176
1
 90
8
176
1
 62
7
176
1
 40
1.0
176
1
 90
1
176
1
 90
6
176
1
 90
2
176
1
 62
7
176
1
 90
5
176
1
 90
0
176
1
 90
0
176
1
290
0
176
1
 90
1
176
1
 40
0.0
176
1
 90
0
176
1
290
0
176
1
290
1
176
1
290
1
176
1
290
0
176
1
290
0
176
1
290
0
176
1
290
0
176
1
290
0
176
1
290
0
176
1
 90
50
176
1
 40
0.0
176
1
 40
1.0
176
1
 90
0
176
1
 62
18
420
0
176
1
 90
50
176
1
 90
3
176
1
 62
5
420
255
176
1
290
0
176
1
 90
50
176
1
 90
50
176
1
 90
50
176
1
290
0
176
1
 90
50
176
1
 62
256
176
0
 40
1.0
176
0
 90
2
176
1
  1
strokes_ogs.tif
176
1
290
0
176
1
 40
1.0
176
1
 40
1.0
176
1
  0
VISUALSTYLE
  5
60
102
{ACAD_REACTORS
330
16
102
}
330
16
100
AcDbVisualStyle
  2
EdgeColorOff
 70
22
177
3
291
1
 70
58
 90
2
176
1
 90
2
176
1
 90
0
176
1
 90
2
176
1
 40
0.6
176
1
 40
30.0
176
1
 62
7
420
16777215
176
1
 90
1
176
1
 90
4
176
1
 62
7
176
1
 62
257
176
1
 90
1
176
1
 90
1
176
1
 40
1.0
176
1
 90
8
176
1
 62
7
176
1
 40
1.0
176
1
 90
1
176
1
 90
6
176
1
 90
2
176
1
 62
7
176
1
 90
5
176
1
 90
0
176
1
 90
0
176
1
290
0
176
1
 90
1
176
1
 40
0.0
176
1
 90
0
176
1
290
0
176
1
290
1
176
1
290
1
176
1
290
0
176
1
290
0
176
1
290
0
176
1
290
0
176
1
290
0
176
1
290
0
176
1
 90
50
176
1
 40
0.0
176
1
 40
1.0
176
1
 90
0
176
1
 62
18
420
0
176
1
 90
50
176
1
 90
3
176
1
 62
5
420
255
176
1
290
0
176
1
 90
50
176
1
 90
50
176
1
 90
50
176
1
290
0
176
1
 90
50
176
1
 62
256
176
0
 40
1.0
176
0
 90
2
176
1
  1
strokes_ogs.tif
176
1
290
0
176
1
 40
1.0
176
1
 40
1.0
176
1
  0
VISUALSTYLE
  5
61
102
{ACAD_REACTORS
330
16
102
}
330
16
100
AcDbVisualStyle
  2
Facepattern
 70
15
177
3
291
1
 70
58
 90
2
176
1
 90
2
176
1
 90
0
176
1
 90
2
176
1
 40
0.6
176
1
 40
30.0
176
1
 62
7
420
16777215
176
1
 90
1
176
1
 90
4
176
1
 62
7
176
1
 62
257
176
1
 90
1
176
1
 90
1
176
1
 40
1.0
176
1
 90
8
176
1
 62
7
176
1
 40
1.0
176
1
 90
1
176
1
 90
6
176
1
 90
2
176
1
 62
7
176
1
 90
5
176
1
 90
0
176
1
 90
0
176
1
290
0
176
1
 90
1
176
1
 40
0.0
176
1
 90
0
176
1
290
0
176
1
290
1
176
1
290
1
176
1
290
0
176
1
290
0
176
1
290
0
176
1
290
0
176
1
290
0
176
1
290
0
176
1
 90
50
176
1
 40
0.0
176
1
 40
1.0
176
1
 90
0
176
1
 62
18
420
0
176
1
 90
50
176
1
 90
3
176
1
 62
5
420
255
176
1
290
0
176
1
 90
50
176
1
 90
50
176
1
 90
50
176
1
290
0
176
1
 90
50
176
1
 62
256
176
0
 40
1.0
176
0
 90
2
176
1
  1
strokes_ogs.tif
176
1
290
0
176
1
 40
1.0
176
1
 40
1.0
176
1
  0
VISUALSTYLE
  5
62
102
{ACAD_REACTORS
330
16
102
}
330
16
100
AcDbVisualStyle
  2
Flat
 70
0
177
3
291
1
 70
58
 90
2
176
1
 90
2
176
1
 90
0
176
1
 90
2
176
1
 40
0.6
176
1
 40
30.0
176
1
 62
7
420
16777215
176
1
 90
1
176
1
 90
4
176
1
 62
7
176
1
 62
257
176
1
 90
1
176
1
 90
1
176
1
 40
1.0
176
1
 90
8
176
1
 62
7
176
1
 40
1.0
176
1
 90
1
176
1
 90
6
176
1
 90
2
176
1
 62
7
176
1
 90
5
176
1
 90
0
176
1
 90
0
176
1
290
0
176
1
 90
1
176
1
 40
0.0
176
1
 90
0
176
1
290
0
176
1
290
1
176
1
290
1
176
1
290
0
176
1
290
0
176
1
290
0
176
1
290
0
176
1
290
0
176
1
290
0
176
1
 90
50
176
1
 40
0.0
176
1
 40
1.0
176
1
 90
0
176
1
 62
18
420
0
176
1
 90
50
176
1
 90
3
176
1
 62
5
420
255
176
1
290
0
176
1
 90
50
176
1
 90
50
176
1
 90
50
176
1
290
0
176
1
 90
50
176
1
 62
256
176
0
 40
1.0
176
0
 90
2
176
1
  1
strokes_ogs.tif
176
1
290
0
176
1
 40
1.0
176
1
 40
1.0
176
1
  0
VISUALSTYLE
  5
63
102
{ACAD_REACTORS
330
16
102
}
330
16
100
AcDbVisualStyle
  2
FlatWithEdges
 70
1
177
3
291
1
 70
58
 90
2
176
1
 90
2
176
1
 90
0
176
1
 90
2
176
1
 40
0.6
176
1
 40
30.0
176
1
 62
7
420
16777215
176
1
 90
1
176
1
 90
4
176
1
 62
7
176
1
 62
257
176
1
 90
1
176
1
 90
1
176
1
 40
1.0
176
1
 90
8
176
1
 62
7
176
1
 40
1.0
176
1
 90
1
176
1
 90
6
176
1
 90
2
176
1
 62
7
176
1
 90
5
176
1
 90
0
176
1
 90
0
176
1
290
0
176
1
 90
1
176
1
 40
0.0
176
1
 90
0
176
1
290
0
176
1
290
1
176
1
290
1
176
1
290
0
176
1
290
0
176
1
290
0
176
1
290
0
176
1
290
0
176
1
290
0
176
1
 90
50
176
1
 40
0.0
176
1
 40
1.0
176
1
 90
0
176
1
 62
18
420
0
176
1
 90
50
176
1
 90
3
176
1
 62
5
420
255
176
1
290
0
176
1
 90
50
176
1
 90
50
176
1
 90
50
176
1
290
0
176
1
 90
50
176
1
 62
256
176
0
 40
1.0
176
0
 90
2
176
1
  1
strokes_ogs.tif
176
1
290
0
176
1
 40
1.0
176
1
 40
1.0
176
1
  0
VISUALSTYLE
  5
64
102
{ACAD_REACTORS
330
16
102
}
330
16
100
AcDbVisualStyle
  2
Gouraud
 70
2
177
3
291
1
 70
58
 90
2
176
1
 90
2
176
1
 90
0
176
1
 90
2
176
1
 40
0.6
176
1
 40
30.0
176
1
 62
7
420
16777215
176
1
 90
1
176
1
 90
4
176
1
 62
7
176
1
 62
257
176
1
 90
1
176
1
 90
1
176
1
 40
1.0
176
1
 90
8
176
1
 62
7
176
1
 40
1.0
176
1
 90
1
176
1
 90
6
176
1
 90
2
176
1
 62
7
176
1
 90
5
176
1
 90
0
176
1
 90
0
176
1
290
0
176
1
 90
1
176
1
 40
0.0
176
1
 90
0
176
1
290
0
176
1
290
1
176
1
290
1
176
1
290
0
176
1
290
0
176
1
290
0
176
1
290
0
176
1
290
0
176
1
290
0
176
1
 90
50
176
1
 40
0.0
176
1
 40
1.0
176
1
 90
0
176
1
 62
18
420
0
176
1
 90
50
176
1
 90
3
176
1
 62
5
420
255
176
1
290
0
176
1
 90
50
176
1
 90
50
176
1
 90
50
176
1
290
0
176
1
 90
50
176
1
 62
256
176
0
 40
1.0
176
0
 90
2
176
1
  1
strokes_ogs.tif
176
1
290
0
176
1
 40
1.0
176
1
 40
1.0
176
1
  0
VISUALSTYLE
  5
65
102
{ACAD_REACTORS
330
16
102
}
330
16
100
AcDbVisualStyle
  2
GouraudWithEdges
 70
3
177
3
291
1
 70
58
 90
2
176
1
 90
2
176
1
 90
0
176
1
 90
2
176
1
 40
0.6
176
1
 40
30.0
176
1
 62
7
420
16777215
176
1
 90
1
176
1
 90
4
176
1
 62
7
176
1
 62
257
176
1
 90
1
176
1
 90
1
176
1
 40
1.0
176
1
 90
8
176
1
 62
7
176
1
 40
1.0
176
1
 90
1
176
1
 90
6
176
1
 90
2
176
1
 62
7
176
1
 90
5
176
1
 90
0
176
1
 90
0
176
1
290
0
176
1
 90
1
176
1
 40
0.0
176
1
 90
0
176
1
290
0
176
1
290
1
176
1
290
1
176
1
290
0
176
1
290
0
176
1
290
0
176
1
290
0
176
1
290
0
176
1
290
0
176
1
 90
50
176
1
 40
0.0
176
1
 40
1.0
176
1
 90
0
176
1
 62
18
420
0
176
1
 90
50
176
1
 90
3
176
1
 62
5
420
255
176
1
290
0
176
1
 90
50
176
1
 90
50
176
1
 90
50
176
1
290
0
176
1
 90
50
176
1
 62
256
176
0
 40
1.0
176
0
 90
2
176
1
  1
strokes_ogs.tif
176
1
290
0
176
1
 40
1.0
176
1
 40
1.0
176
1
  0
VISUALSTYLE
  5
66
102
{ACAD_REACTORS
330
16
102
}
330
16
100
AcDbVisualStyle
  2
Hidden
 70
6
177
3
291
0
 70
58
 90
2
176
1
 90
2
176
1
 90
0
176
1
 90
1
176
1
 40
0.6
176
1
 40
30.0
176
1
 62
7
420
16777215
176
1
 90
1
176
1
 90
4
176
1
 62
7
176
1
 62
257
176
1
 90
1
176
1
 90
1
176
1
 40
1.0
176
1
 90
8
176
1
 62
7
176
1
 40
1.0
176
1
 90
1
176
1
 90
6
176
1
 90
2
176
1
 62
7
176
1
 90
5
176
1
 90
0
176
1
 90
0
176
1
290
0
176
1
 90
1
176
1
 40
0.0
176
1
 90
0
176
1
290
0
176
1
290
1
176
1
290
1
176
1
290
0
176
1
290
0
176
1
290
0
176
1
290
0
176
1
290
0
176
1
290
0
176
1
 90
50
176
1
 40
0.0
176
1
 40
1.0
176
1
 90
0
176
1
 62
18
420
0
176
1
 90
50
176
1
 90
3
176
1
 62
5
420
255
176
1
290
0
176
1
 90
50
176
1
 90
50
176
1
 90
50
176
1
290
0
176
1
 90
50
176
1
 62
256
176
0
 40
1.0
176
0
 90
2
176
1
  1
strokes_ogs.tif
176
1
290
0
176
1
 40
1.0
176
1
 40
1.0
176
1
  0
VISUALSTYLE
  5
67
102
{ACAD_REACTORS
330
16
102
}
330
16
100
AcDbVisualStyle
  2
JitterOff
 70
20
177
3
291
1
 70
58
 90
2
176
1
 90
2
176
1
 90
0
176
1
 90
2
176
1
 40
0.6
176
1
 40
30.0
176
1
 62
7
420
16777215
176
1
 90
1
176
1
 90
4
176
1
 62
7
176
1
 62
257
176
1
 90
1
176
1
 90
1
176
1
 40
1.0
176
1
 90
8
176
1
 62
7
176
1
 40
1.0
176
1
 90
1
176
1
 90
6
176
1
 90
2
176
1
 62
7
176
1
 90
5
176
1
 90
0
176
1
 90
0
176
1
290
0
176
1
 90
1
176
1
 40
0.0
176
1
 90
0
176
1
290
0
176
1
290
1
176
1
290
1
176
1
290
0
176
1
290
0
176
1
290
0
176
1
290
0
176
1
290
0
176
1
290
0
176
1
 90
50
176
1
 40
0.0
176
1
 40
1.0
176
1
 90
0
176
1
 62
18
420
0
176
1
 90
50
176
1
 90
3
176
1
 62
5
420
255
176
1
290
0
176
1
 90
50
176
1
 90
50
176
1
 90
50
176
1
290
0
176
1
 90
50
176
1
 62
256
176
0
 40
1.0
176
0
 90
2
176
1
  1
strokes_ogs.tif
176
1
290
0
176
1
 40
1.0
176
1
 40
1.0
176
1
  0
VISUALSTYLE
  5
68
102
{ACAD_REACTORS
330
16
102
}
330
16
100
AcDbVisualStyle
  2
Linepattern
 70
14
177
3
291
1
 70
58
 90
2
176
1
 90
2
176
1
 90
0
176
1
 90
2
176
1
 40
0.6
176
1
 40
30.0
176
1
 62
7
420
16777215
176
1
 90
1
176
1
 90
4
176
1
 62
7
176
1
 62
257
176
1
 90
1
176
1
 90
1
176
1
 40
1.0
176
1
 90
8
176
1
 62
7
176
1
 40
1.0
176
1
 90
1
176
1
 90
6
176
1
 90
2
176
1
 62
7
176
1
 90
5
176
1
 90
0
176
1
 90
0
176
1
290
0
176
1
 90
1
176
1
 40
0.0
176
1
 90
0
176
1
290
0
176
1
290
1
176
1
290
1
176
1
290
0
176
1
290
0
176
1
290
0
176
1
290
0
176
1
290
0
176
1
290
0
176
1
 90
50
176
1
 40
0.0
176
1
 40
1.0
176
1
 90
0
176
1
 62
18
420
0
176
1
 90
50
176
1
 90
3
176
1
 62
5
420
255
176
1
290
0
176
1
 90
50
176
1
 90
50
176
1
 90
50
176
1
290
0
176
1
 90
50
176
1
 62
256
176
0
 40
1.0
176
0
 90
2
176
1
  1
strokes_ogs.tif
176
1
290
0
176
1
 40
1.0
176
1
 40
1.0
176
1
  0
VISUALSTYLE
  5
69
102
{ACAD_REACTORS
330
16
102
}
330
16
100
AcDbVisualStyle
  2
Modeling
 70
10
177
3
291
0
 70
58
 90
2
176
1
 90
2
176
1
 90
0
176
1
 90
2
176
1
 40
0.6
176
1
 40
30.0
176
1
 62
7
420
16777215
176
1
 90
1
176
1
 90
4
176
1
 62
7
176
1
 62
257
176
1
 90
1
176
1
 90
1
176
1
 40
1.0
176
1
 90
8
176
1
 62
7
176
1
 40
1.0
176
1
 90
1
176
1
 90
6
176
1
 90
2
176
1
 62
7
176
1
 90
5
176
1
 90
0
176
1
 90
0
176
1
290
0
176
1
 90
1
176
1
 40
0.0
176
1
 90
0
176
1
290
0
176
1
290
1
176
1
290
1
176
1
290
0
176
1
290
0
176
1
290
0
176
1
290
0
176
1
290
0
176
1
290
0
176
1
 90
50
176
1
 40
0.0
176
1
 40
1.0
176
1
 90
0
176
1
 62
18
420
0
176
1
 90
50
176
1
 90
3
176
1
 62
5
420
255
176
1
290
0
176
1
 90
50
176
1
 90
50
176
1
 90
50
176
1
290
0
176
1
 90
50
176
1
 62
256
176
0
 40
1.0
176
0
 90
2
176
1
  1
strokes_ogs.tif
176
1
290
0
176
1
 40
1.0
176
1
 40
1.0
176
1
  0
VISUALSTYLE
  5
6A
102
{ACAD_REACTORS
330
16
102
}
330
16
100
AcDbVisualStyle
  2
OverhangOff
 70
21
177
3
291
1
 70
58
 90
2
176
1
 90
2
176
1
 90
0
176
1
 90
2
176
1
 40
0.6
176
1
 40
30.0
176
1
 62
7
420
16777215
176
1
 90
1
176
1
 90
4
176
1
 62
7
176
1
 62
257
176
1
 90
1
176
1
 90
1
176
1
 40
1.0
176
1
 90
8
176
1
 62
7
176
1
 40
1.0
176
1
 90
1
176
1
 90
6
176
1
 90
2
176
1
 62
7
176
1
 90
5
176
1
 90
0
176
1
 90
0
176
1
290
0
176
1
 90
1
176
1
 40
0.0
176
1
 90
0
176
1
290
0
176
1
290
1
176
1
290
1
176
1
290
0
176
1
290
0
176
1
290
0
176
1
290
0
176
1
290
0
176
1
290
0
176
1
 90
50
176
1
 40
0.0
176
1
 40
1.0
176
1
 90
0
176
1
 62
18
420
0
176
1
 90
50
176
1
 90
3
176
1
 62
5
420
255
176
1
290
0
176
1
 90
50
176
1
 90
50
176
1
 90
50
176
1
290
0
176
1
 90
50
176
1
 62
256
176
0
 40
1.0
176
0
 90
2
176
1
  1
strokes_ogs.tif
176
1
290
0
176
1
 40
1.0
176
1
 40
1.0
176
1
  0
VISUALSTYLE
  5
6B
102
{ACAD_REACTORS
330
16
102
}
330
16
100
AcDbVisualStyle
  2
Realistic
 70
8
177
3
291
0
 70
58
 90
2
176
1
 90
2
176
1
 90
0
176
1
 90
2
176
1
 40
0.6
176
1
 40
30.0
176
1
 62
7
420
16777215
176
1
 90
1
176
1
 90
4
176
1
 62
7
176
1
 62
257
176
1
 90
1
176
1
 90
1
176
1
 40
1.0
176
1
 90
8
176
1
 62
7
176
1
 40
1.0
176
1
 90
1
176
1
 90
6
176
1
 90
2
176
1
 62
7
176
1
 90
5
176
1
 90
0
176
1
 90
0
176
1
290
0
176
1
 90
1
176
1
 40
0.0
176
1
 90
0
176
1
290
0
176
1
290
1
176
1
290
1
176
1
290
0
176
1
290
0
176
1
290
0
176
1
290
0
176
1
290
0
176
1
290
0
176
1
 90
50
176
1
 40
0.0
176
1
 40
1.0
176
1
 90
0
176
1
 62
18
420
0
176
1
 90
50
176
1
 90
3
176
1
 62
5
420
255
176
1
290
0
176
1
 90
50
176
1
 90
50
176
1
 90
50
176
1
290
0
176
1
 90
50
176
1
 62
256
176
0
 40
1.0
176
0
 90
2
176
1
  1
strokes_ogs.tif
176
1
290
0
176
1
 40
1.0
176
1
 40
1.0
176
1
  0
VISUALSTYLE
  5
6C
102
{ACAD_REACTORS
330
16
102
}
330
16
100
AcDbVisualStyle
  2
Shaded
 70
27
177
3
291
0
 70
58
 90
2
176
1
 90
2
176
1
 90
0
176
1
 90
2
176
1
 40
0.6
176
1
 40
30.0
176
1
 62
7
420
16777215
176
1
 90
1
176
1
 90
4
176
1
 62
7
176
1
 62
257
176
1
 90
1
176
1
 90
1
176
1
 40
1.0
176
1
 90
8
176
1
 62
7
176
1
 40
1.0
176
1
 90
1
176
1
 90
6
176
1
 90
2
176
1
 62
7
176
1
 90
5
176
1
 90
0
176
1
 90
0
176
1
290
0
176
1
 90
1
176
1
 40
0.0
176
1
 90
0
176
1
290
0
176
1
290
1
176
1
290
1
176
1
290
0
176
1
290
0
176
1
290
0
176
1
290
0
176
1
290
0
176
1
290
0
176
1
 90
50
176
1
 40
0.0
176
1
 40
1.0
176
1
 90
0
176
1
 62
18
420
0
176
1
 90
50
176
1
 90
3
176
1
 62
5
420
255
176
1
290
0
176
1
 90
50
176
1
 90
50
176
1
 90
50
176
1
290
0
176
1
 90
50
176
1
 62
256
176
0
 40
1.0
176
0
 90
2
176
1
  1
strokes_ogs.tif
176
1
290
0
176
1
 40
1.0
176
1
 40
1.0
176
1
  0
VISUALSTYLE
  5
6D
102
{ACAD_REACTORS
330
16
102
}
330
16
100
AcDbVisualStyle
  2
Shaded with edges
 70
26
177
3
291
0
 70
58
 90
2
176
1
 90
2
176
1
 90
0
176
1
 90
2
176
1
 40
0.6
176
1
 40
30.0
176
1
 62
7
420
16777215
176
1
 90
1
176
1
 90
4
176
1
 62
7
176
1
 62
257
176
1
 90
1
176
1
 90
1
176
1
 40
1.0
176
1
 90
8
176
1
 62
7
176
1
 40
1.0
176
1
 90
1
176
1
 90
6
176
1
 90
2
176
1
 62
7
176
1
 90
5
176
1
 90
0
176
1
 90
0
176
1
290
0
176
1
 90
1
176
1
 40
0.0
176
1
 90
0
176
1
290
0
176
1
290
1
176
1
290
1
176
1
290
0
176
1
290
0
176
1
290
0
176
1
290
0
176
1
290
0
176
1
290
0
176
1
 90
50
176
1
 40
0.0
176
1
 40
1.0
176
1
 90
0
176
1
 62
18
420
0
176
1
 90
50
176
1
 90
3
176
1
 62
5
420
255
176
1
290
0
176
1
 90
50
176
1
 90
50
176
1
 90
50
176
1
290
0
176
1
 90
50
176
1
 62
256
176
0
 40
1.0
176
0
 90
2
176
1
  1
strokes_ogs.tif
176
1
290
0
176
1
 40
1.0
176
1
 40
1.0
176
1
  0
VISUALSTYLE
  5
6E
102
{ACAD_REACTORS
330
16
102
}
330
16
100
AcDbVisualStyle
  2
Shades of Gray
 70
23
177
3
291
0
 70
58
 90
2
176
1
 90
2
176
1
 90
0
176
1
 90
2
176
1
 40
0.6
176
1
 40
30.0
176
1
 62
7
420
16777215
176
1
 90
1
176
1
 90
4
176
1
 62
7
176
1
 62
257
176
1
 90
1
176
1
 90
1
176
1
 40
1.0
176
1
 90
8
176
1
 62
7
176
1
 40
1.0
176
1
 90
1
176
1
 90
6
176
1
 90
2
176
1
 62
7
176
1
 90
5
176
1
 90
0
176
1
 90
0
176
1
290
0
176
1
 90
1
176
1
 40
0.0
176
1
 90
0
176
1
290
0
176
1
290
1
176
1
290
1
176
1
290
0
176
1
290
0
176
1
290
0
176
1
290
0
176
1
290
0
176
1
290
0
176
1
 90
50
176
1
 40
0.0
176
1
 40
1.0
176
1
 90
0
176
1
 62
18
420
0
176
1
 90
50
176
1
 90
3
176
1
 62
5
420
255
176
1
290
0
176
1
 90
50
176
1
 90
50
176
1
 90
50
176
1
290
0
176
1
 90
50
176
1
 62
256
176
0
 40
1.0
176
0
 90
2
176
1
  1
strokes_ogs.tif
176
1
290
0
176
1
 40
1.0
176
1
 40
1.0
176
1
  0
VISUALSTYLE
  5
6F
102
{ACAD_REACTORS
330
16
102
}
330
16
100
AcDbVisualStyle
  2
Sketchy
 70
24
177
3
291
0
 70
58
 90
2
176
1
 90
2
176
1
 90
0
176
1
 90
1
176
1
 40
0.6
176
1
 40
30.0
176
1
 62
7
420
16777215
176
1
 90
1
176
1
 90
4
176
1
 62
7
176
1
 62
257
176
1
 90
1
176
1
 90
1
176
1
 40
1.0
176
1
 90
8
176
1
 62
7
176
1
 40
1.0
176
1
 90
1
176
1
 90
6
176
1
 90
2
176
1
 62
7
176
1
 90
5
176
1
 90
0
176
1
 90
0
176
1
290
0
176
1
 90
1
176
1
 40
0.0
176
1
 90
0
176
1
290
0
176
1
290
1
176
1
290
1
176
1
290
0
176
1
290
0
176
1
290
0
176
1
290
0
176
1
290
0
176
1
290
0
176
1
 90
50
176
1
 40
0.0
176
1
 40
1.0
176
1
 90
0
176
1
 62
18
420
0
176
1
 90
50
176
1
 90
3
176
1
 62
5
420
255
176
1
290
0
176
1
 90
50
176
1
 90
50
176
1
 90
50
176
1
290
0
176
1
 90
50
176
1
 62
256
176
0
 40
1.0
176
0
 90
2
176
1
  1
strokes_ogs.tif
176
1
290
0
176
1
 40
1.0
176
1
 40
1.0
176
1
  0
VISUALSTYLE
  5
70
102
{ACAD_REACTORS
330
16
102
}
330
16
100
AcDbVisualStyle
  2
Thicken
 70
13
177
3
291
1
 70
58
 90
2
176
1
 90
2
176
1
 90
0
176
1
 90
2
176
1
 40
0.6
176
1
 40
30.0
176
1
 62
7
420
16777215
176
1
 90
1
176
1
 90
4
176
1
 62
7
176
1
 62
257
176
1
 90
1
176
1
 90
1
176
1
 40
1.0
176
1
 90
8
176
1
 62
7
176
1
 40
1.0
176
1
 90
1
176
1
 90
6
176
1
 90
2
176
1
 62
7
176
1
 90
5
176
1
 90
0
176
1
 90
0
176
1
290
0
176
1
 90
1
176
1
 40
0.0
176
1
 90
0
176
1
290
0
176
1
290
1
176
1
290
1
176
1
290
0
176
1
290
0
176
1
290
0
176
1
290
0
176
1
290
0
176
1
290
0
176
1
 90
50
176
1
 40
0.0
176
1
 40
1.0
176
1
 90
0
176
1
 62
18
420
0
176
1
 90
50
176
1
 90
3
176
1
 62
5
420
255
176
1
290
0
176
1
 90
50
176
1
 90
50
176
1
 90
50
176
1
290
0
176
1
 90
50
176
1
 62
256
176
0
 40
1.0
176
0
 90
2
176
1
  1
strokes_ogs.tif
176
1
290
0
176
1
 40
1.0
176
1
 40
1.0
176
1
  0
VISUALSTYLE
  5
71
102
{ACAD_REACTORS
330
16
102
}
330
16
100
AcDbVisualStyle
  2
Wireframe
 70
5
177
3
291
0
 70
58
 90
2
176
1
 90
2
176
1
 90
0
176
1
 90
0
176
1
 40
0.6
176
1
 40
30.0
176
1
 62
7
420
16777215
176
1
 90
1
176
1
 90
4
176
1
 62
7
176
1
 62
257
176
1
 90
1
176
1
 90
1
176
1
 40
1.0
176
1
 90
8
176
1
 62
7
176
1
 40
1.0
176
1
 90
1
176
1
 90
6
176
1
 90
2
176
1
 62
7
176
1
 90
5
176
1
 90
0
176
1
 90
0
176
1
290
0
176
1
 90
1
176
1
 40
0.0
176
1
 90
0
176
1
290
0
176
1
290
1
176
1
290
1
176
1
290
0
176
1
290
0
176
1
290
0
176
1
290
0
176
1
290
0
176
1
290
0
176
1
 90
50
176
1
 40
0.0
176
1
 40
1.0
176
1
 90
0
176
1
 62
18
420
0
176
1
 90
50
176
1
 90
3
176
1
 62
5
420
255
176
1
290
0
176
1
 90
50
176
1
 90
50
176
1
 90
50
176
1
290
0
176
1
 90
50
176
1
 62
256
176
0
 40
1.0
176
0
 90
2
176
1
  1
strokes_ogs.tif
176
1
290
0
176
1
 40
1.0
176
1
 40
1.0
176
1
  0
VISUALSTYLE
  5
72
102
{ACAD_REACTORS
330
16
102
}
330
16
100
AcDbVisualStyle
  2
X-Ray
 70
25
177
3
291
0
 70
58
 90
2
176
1
 90
2
176
1
 90
0
176
1
 90
2
176
1
 40
0.5
176
1
 40
30.0
176
1
 62
7
420
16777215
176
1
 90
1
176
1
 90
4
176
1
 62
7
176
1
 62
257
176
1
 90
1
176
1
 90
1
176
1
 40
1.0
176
1
 90
8
176
1
 62
7
176
1
 40
1.0
176
1
 90
1
176
1
 90
6
176
1
 90
2
176
1
 62
7
176
1
 90
5
176
1
 90
0
176
1
 90
0
176
1
290
0
176
1
 90
1
176
1
 40
0.0
176
1
 90
0
176
1
290
0
176
1
290
1
176
1
290
1
176
1
290
0
176
1
290
0
176
1
290
0
176
1
290
0
176
1
290
0
176
1
290
0
176
1
 90
50
176
1
 40
0.0
176
1
 40
1.0
176
1
 90
0
176
1
 62
18
420
0
176
1
 90
50
176
1
 90
3
176
1
 62
5
420
255
176
1
290
0
176
1
 90
50
176
1
 90
50
176
1
 90
50
176
1
290
0
176
1
 90
50
176
1
 62
256
176
0
 40
1.0
176
0
 90
2
176
1
  1
strokes_ogs.tif
176
1
290
0
176
1
 40
1.0
176
1
 40
1.0
176
1
  0
DICTIONARYVAR
  5
3E5
330
2D
100
DictionaryVariables
280
0
  1
1.4.2 @ 2026-08-27T15:19:45.185398+00:00
  0
ENDSEC
  0
EOF
